<?xml version="1.0" standalone="no"?>
<!DOCTYPE svg PUBLIC "-//W3C//DTD SVG 1.1//EN" "http://www.w3.org/Graphics/SVG/1.1/DTD/svg11.dtd" >
<!--
2013-9-30: Created.
-->
<svg>
<metadata>
Created by iconfont
</metadata>
<defs>

<font id="iconfont" horiz-adv-x="1024" >
  <font-face
    font-family="iconfont"
    font-weight="500"
    font-stretch="normal"
    units-per-em="1024"
    ascent="896"
    descent="-128"
  />
    <missing-glyph />
    
    <glyph glyph-name="bangzhuzhongxin" unicode="&#58886;" d="M512 812C230.4 812 0 581.6 0 300s230.4-512 512-512 512 230.4 512 512S793.6 812 512 812zM512-148c-249.6 0-448 198.4-448 448 0 249.6 198.4 448 448 448s448-198.4 448-448C960 50.4 761.6-148 512-148zM467.2 63.2l89.6 0 0-89.6-89.6 0 0 89.6ZM512 626.4c-57.6 0-108.8-12.8-140.8-44.8s-57.6-76.8-64-134.4L384 434.4c6.4 44.8 19.2 76.8 44.8 96C454.4 549.6 480 562.4 512 562.4c32 0 64-12.8 89.6-32C627.2 504.8 640 479.2 640 447.2 640 428 633.6 415.2 627.2 396 614.4 383.2 601.6 364 569.6 338.4 544 319.2 524.8 300 518.4 287.2 499.2 268 492.8 255.2 486.4 236c-6.4-25.6-12.8-51.2-12.8-83.2 0-6.4 0-12.8 0-25.6l76.8 0c0 32 0 51.2 6.4 70.4S563.2 229.6 569.6 236c6.4 12.8 25.6 25.6 51.2 51.2 38.4 32 64 64 76.8 83.2s19.2 51.2 19.2 76.8c0 51.2-19.2 89.6-57.6 121.6C627.2 607.2 576 626.4 512 626.4z"  horiz-adv-x="1024" />

    
    <glyph glyph-name="zanting1" unicode="&#58979;" d="M686.480358 776.439974c0 32.377408 26.325575 58.644655 58.644655 58.644655 32.386618 0 58.645678-26.420743 58.645678-58.644655l0-781.930779c0-32.376385-26.325575-58.644655-58.645678-58.644655-32.385595 0-58.644655 26.419719-58.644655 58.644655L686.480358 776.439974zM217.321072 776.439974c0 32.377408 26.325575 58.644655 58.645678 58.644655 32.385595 0 58.644655-26.420743 58.644655-58.644655l0-781.930779c0-32.376385-26.325575-58.644655-58.644655-58.644655-32.385595 0-58.645678 26.419719-58.645678 58.644655L217.321072 776.439974z"  horiz-adv-x="1024" />

    
    <glyph glyph-name="shuju" unicode="&#58884;" d="M319.148226-48.981319 64.757375-48.981319 64.757375 655.095301l254.390851 0L319.148226-48.981319zM126.427946 12.689253 257.477654 12.689253 257.477654 593.42473 126.427946 593.42473 126.427946 12.689253zM638.203842-48.981319 383.811967-48.981319 383.811967 462.372975l254.391874 0L638.203842-48.981319zM445.482539 12.689253l131.049708 0L576.532247 400.702404 445.482539 400.702404 445.482539 12.689253zM957.258435-48.981319l-254.393921 0L702.864514 816.981319l254.393921 0L957.258435-48.981319zM764.536109 12.689253l131.050732 0L895.58684 755.309724 764.536109 755.309724 764.536109 12.689253z"  horiz-adv-x="1024" />

    
    <glyph glyph-name="quxiao1" unicode="&#58959;" d="M842.947458 117.883083 576.847937 383.986697 842.946434 650.116917c8.67559 8.674567 13.447267 20.208251 13.43908 32.477692-0.008186 12.232602-4.7727 23.715121-13.414521 32.332383-8.655124 8.677637-20.149922 13.450337-32.384571 13.4575-12.286838 0-23.808242-4.771677-32.474622-13.434987L512.019443 448.856124 245.88206 714.949504c-8.66331 8.66331-20.175505 13.434987-32.416294 13.434987-12.239765 0-23.75196-4.770653-32.414247-13.43294-8.66024-8.636704-13.428847-20.12434-13.437034-32.356942-0.008186-12.269441 4.76349-23.803125 13.437034-32.476669l266.135336-266.13022L181.050496 117.88206c-8.664334-8.66331-13.43601-20.173458-13.43601-32.41527 0-12.239765 4.7727-23.752983 13.437034-32.417317 8.662287-8.66331 20.173458-13.43294 32.413224-13.43294 12.240789 0 23.754007 4.770653 32.416294 13.43294l266.134313 266.100544 266.101567-266.100544c8.66331-8.66331 20.185738-13.43294 32.4429-13.43294 12.265348 0.008186 23.74889 4.771677 32.369222 13.412474C860.81643 70.918445 860.821547 100.008994 842.947458 117.883083z"  horiz-adv-x="1024" />

    
    <glyph glyph-name="xiugai" unicode="&#58891;" d="M339.096684 341.58929c-0.608987-0.762483-1.231165-1.600915-1.497984-2.591243l-47.091872-172.647545c-2.742141-10.055183 0.063957-20.923814 7.504312-28.541649 5.573621-5.408333 12.911646-8.404302 20.70836-8.404302 2.589644 0 5.179888 0.303794 7.718767 0.989329l171.466346 46.749304c0.253828 0 0.380742-0.253828 0.584204-0.253828 1.980657 0 3.910349 0.735501 5.38275 2.235484l458.447573 458.394009c13.634756 13.635155 21.100694 32.198569 21.100694 52.411265 0 22.878488-9.725406 45.782759-26.713888 62.745858l-43.295646 43.370994c-16.987482 17.012865-39.917936 26.739271-62.77224 26.739271-20.212296 0-38.774711-7.465339-52.460232-21.051127L339.78222 343.162224C339.300147 342.731516 339.452044 342.096946 339.096684 341.58929M917.473745 682.387829l-45.530131-45.504548-73.842735 75.010943 44.895361 44.870378c7.084197 7.134563 20.872848 6.094268 28.998139-2.057605l43.296645-43.371394c4.544919-4.544319 7.134163-10.536856 7.134163-16.454244C922.425188 689.981281 920.647393 685.562677 917.473745 682.387829M420.633802 334.37718l330.794921 330.844887 73.842735-75.061508L495.111506 259.974825 420.633802 334.37718 420.633802 334.37718 420.633802 334.37718zM360.350674 200.251517l23.894799 87.7583 63.76157-63.762569L360.350674 200.251517 360.350674 200.251517 360.350674 200.251517zM946.52285 500.725996c-17.368024 0-31.614365-14.118428-31.664332-31.689914l0-427.365646c0-22.420799-18.181673-40.602272-40.629453-40.602272L151.251643 1.068164c-22.396815 0-40.692211 18.181673-40.692211 40.602272L110.559433 739.217299c0 22.422797 18.271012 40.655236 40.692211 40.655236l465.644693 0c17.41919 0 31.588583 14.169393 31.588583 31.613566 0 17.41959-14.169393 31.614965-31.588583 31.614965L146.439906 843.101065c-54.658741 0-99.109004-44.437671-99.109004-99.109604l0-707.145755c0-54.695716 44.450263-99.082622 99.109004-99.082622l732.562922 0c54.671733 0 99.135586 44.386706 99.135586 99.082622L978.138414 469.213961C978.035484 486.607568 963.842107 500.725996 946.52285 500.725996"  horiz-adv-x="1024" />

    
    <glyph glyph-name="kaishi" unicode="&#59215;" d="M923.427 401.885c0 0-425.517 248.001-659.388 384.303-58.407 35.322-149.748 77.699-149.748-71.567 0-191.617 0-508.64 0-674.874 2.115-84.837 64.329-68.545 103.814-48.91 218.391 127.274 705.325 411.050 705.325 411.050z"  horiz-adv-x="1024" />

    
    <glyph glyph-name="false-circle" unicode="&#58882;" d="M512-128c-282.752 0-512 229.248-512 512 0 282.773 229.248 512 512 512 282.773 0 512.021-229.227 512.021-512 0-282.752-229.248-512-512.021-512zM723.2 534.848c16.683 16.661 16.683 43.669 0 60.331-16.661 16.683-43.669 16.683-60.331 0l-150.848-150.848-150.848 150.848c-16.661 16.683-43.669 16.683-60.331 0-16.683-16.661-16.683-43.669 0-60.331l150.848-150.848-150.848-150.848c-16.683-16.661-16.683-43.669 0-60.331 16.661-16.683 43.669-16.683 60.331 0l150.848 150.848 150.848-150.848c16.661-16.683 43.669-16.683 60.331 0 16.683 16.661 16.683 43.669 0 60.331l-150.848 150.848 150.848 150.848z"  horiz-adv-x="1025" />

    
    <glyph glyph-name="arrow-down" unicode="&#58944;" d="M533.931 156.412c-12.692-12.692-33.188-12.774-45.779-0.184l-413.771 413.772c-12.591 12.591-12.508 33.087 0.184 45.779v0c12.692 12.692 33.188 12.774 45.779 0.184l413.772-413.772c12.589-12.591 12.507-33.087-0.185-45.779v0zM947.852 614.737c12.692-12.692 12.774-33.188 0.184-45.779l-413.772-413.771c-12.591-12.591-33.087-12.508-45.779 0.184v0c-12.692 12.692-12.774 33.188-0.184 45.779l413.771 413.771c12.592 12.59 33.088 12.508 45.78-0.184v0z"  horiz-adv-x="1024" />

    
    <glyph glyph-name="wechaticon16" unicode="&#58887;" d="M760.889 16.875h-497.778c-55.623 0-100.885 45.255-100.885 100.885v400.391c0 55.623 42.062 100.885 93.774 100.885h64v-59.541h-64c-18.553 0-34.226-18.93-34.226-41.337v-400.398c0-22.791 18.546-41.337 41.337-41.337h497.778c22.791 0 41.337 18.546 41.337 41.337l-0 400.391c0 22.407-15.673 41.337-34.226 41.337h-64v59.541h64c51.705 0 93.774-45.255 93.774-100.885v-400.398c0-55.616-45.262-100.871-100.885-100.871zM680.974 437.483c-10.617 11.577-28.615 12.352-40.185 1.728l-100.345-92.060v411.534c0 15.708-12.736 28.444-28.444 28.444s-28.444-12.736-28.444-28.444v-410.098l-95.296 90.311c-11.399 10.809-29.412 10.318-40.206-1.081-10.809-11.406-10.318-29.404 1.081-40.206l143.303-135.801c0.135-0.128 0.292-0.206 0.427-0.334 1.18-1.081 2.439-2.091 3.804-2.965 0.064-0.043 0.121-0.1 0.185-0.135 1.173-0.74 2.411-1.394 3.698-1.963 0.164-0.071 0.334-0.092 0.491-0.156 1.237-0.519 2.503-0.882 3.79-1.216 0.548-0.142 1.074-0.356 1.621-0.462 1.828-0.363 3.676-0.569 5.532-0.569 1.813 0 3.62 0.192 5.404 0.533 0.633 0.121 1.244 0.363 1.87 0.526 1.131 0.299 2.254 0.59 3.342 1.024 0.718 0.284 1.387 0.683 2.076 1.031 0.96 0.484 1.913 0.953 2.823 1.543 0.661 0.434 1.273 0.953 1.906 1.444 0.597 0.469 1.252 0.853 1.82 1.372l148.011 135.801c11.577 10.624 12.359 28.622 1.735 40.199z"  horiz-adv-x="1024" />

    
    <glyph glyph-name="shouji" unicode="&#58936;" d="M512 100.352c-26.624 0-48.128-21.504-48.128-48.128s21.504-48.128 48.128-48.128 48.128 21.504 48.128 48.128-21.504 48.128-48.128 48.128zM749.056 854.016H274.944c-39.936 0-72.192-32.256-72.192-72.192v-795.136c0-39.936 32.256-72.192 72.192-72.192h474.112c39.936 0 72.192 32.256 72.192 72.192V781.824c0 39.424-32.256 72.192-72.192 72.192z m-474.112-48.128h474.112c13.312 0 24.064-10.752 24.064-24.064v-595.968H250.88V781.824c0 13.312 10.752 24.064 24.064 24.064z m474.112-843.776H274.944c-13.312 0-24.064 10.752-24.064 24.064V133.12h522.24v-146.944c0-13.312-10.752-24.064-24.064-24.064z"  horiz-adv-x="1024" />

    
    <glyph glyph-name="sousuo" unicode="&#59062;" d="M929.9-1.1L774.2 154.3c25.1 30.2 45.8 64.2 61.1 100.7 18.9 46 29.6 97.1 29.6 149.8 0 52.4-10.2 102.5-28.9 148.3l-0.8 2.3c-19.4 47.3-48.3 89.2-83.3 125l-1.8 2c-36 35.8-79.5 65.5-127.1 85.4h-0.5c-46 19.4-97.1 29.1-149.8 29.1-108.4 0-206.6-43.4-277.6-114.5-35.8-35.8-65.2-79-84.9-127.6-19.4-46.2-29.9-96.9-29.9-150 0-52.1 10.5-102 28.9-147.8l1-2.1c19.7-47.8 49.1-91.2 84.9-127.3h0.5c35.8-36.3 79.2-65 127.3-85.4 46-18.9 96.9-29.7 149.8-29.7 53.2 0 103.8 10.7 150.3 29.7 36.3 15.6 70.1 35.8 100.2 60.8L879-52.2c14.1-13.8 36.8-13.8 50.9 0.3 14.3 14 14.3 36.7 0 50.8zM699.3 178.3l-0.5-0.5c-29.4-28.6-64.7-52.7-103.3-68.8-37.8-15.6-79.5-24.6-122.7-24.6-43.5 0-85.1 9-122.7 24.6-38.9 16.1-74.1 40.1-104 69.3-29.4 29.7-53.4 65.2-69.3 104.3l-1 1.8c-15.4 36.8-23.5 77.5-23.5 120.4 0 43.9 8.7 85.4 24.5 122.7 15.9 38.9 39.4 74.1 69.3 104.3 58 57.8 138.3 93.6 226.7 93.6 43.2 0 84.9-8.7 122.7-24 38.9-16.1 74.1-40.1 103.8-69.5l1.8-1.8c28.9-29.4 51.9-63.6 67.7-102.5l0.8-1.5c15.1-37.3 23.2-78.2 23.2-121.2s-8.2-84.4-24-122.2C753 243.3 729 208 699.3 178.3z"  horiz-adv-x="1024" />

    
    <glyph glyph-name="star" unicode="&#58889;" d="M535.757 83.866l198.963-120.013c35.43-21.402 79.258 10.342 69.837 50.688l-52.634 226.304c-3.891 16.896 1.843 34.611 14.95 45.978l175.718 152.166c31.334 27.136 14.643 78.541-26.624 82.125l-231.629 19.866c-17.306 1.434-32.358 12.39-39.117 28.365l-90.419 213.402c-16.179 38.093-70.144 38.093-86.221 0l-90.419-213.402c-6.758-15.974-21.811-26.931-39.117-28.365l-231.834-19.763c-41.267-3.584-57.958-54.989-26.624-82.125l175.718-152.166c13.107-11.366 18.842-29.082 14.95-45.978l-52.634-226.304c-9.421-40.346 34.406-72.090 69.837-50.688l198.963 119.91c14.848 8.909 33.485 8.909 48.333 0z"  horiz-adv-x="1024" />

    
    <glyph glyph-name="pingfen" unicode="&#58906;" d="M512 791.773l112.43-227.812a89.798 89.798 0 0 1 67.621-49.127l251.401-36.532L761.53 300.979a89.806 89.806 0 0 1-25.825-79.492l42.95-250.39-224.86 118.215a90.13 90.13 0 0 1-41.796 10.32 90.082 90.082 0 0 1-41.788-10.32L245.344-28.902l42.944 250.39a89.78 89.78 0 0 1-25.827 79.486L80.543 478.302l251.407 36.532a89.788 89.788 0 0 1 67.616 49.127l112.433 227.812m0 57.055c-14.783 0-29.567-7.699-37.17-23.104L356.206 585.361a41.44 41.44 0 0 0-31.21-22.674L59.741 524.143c-33.996-4.939-47.573-46.718-22.972-70.697L228.71 266.348a41.448 41.448 0 0 0 11.922-36.687l-45.313-264.184c-4.594-26.791 16.691-48.546 40.845-48.546 6.37 0 12.946 1.512 19.294 4.852l237.251 124.73a41.467 41.467 0 0 0 38.582 0l237.25-124.73c6.351-3.341 12.925-4.852 19.294-4.852 24.15 0 45.439 21.756 40.844 48.546l-45.311 264.184a41.427 41.427 0 0 0 11.92 36.687l191.94 187.097c24.603 23.979 11.026 65.758-22.974 70.697l-265.248 38.545a41.44 41.44 0 0 0-31.21 22.674L549.168 825.724c-7.603 15.402-22.386 23.104-37.169 23.104z"  horiz-adv-x="1024" />

    
    <glyph glyph-name="duanxin" unicode="&#59621;" d="M1310.72 724.29568C1310.72 819.11808 1234.24768 896 1139.87584 896H170.84416C76.47232 896 0 819.11808 0 724.29568v-661.504c0-94.8224 76.47232-171.66336 170.8032-171.66336H1139.9168c94.37184 0 170.84416 76.84096 170.84416 171.66336V724.29568zM1142.66112 834.1504c17.69472 0 34.4064-5.12 49.152-12.6976L683.37664 337.38752c-1.80224-1.67936-1.72032-1.35168-2.58048-2.74432-2.08896-1.55648-8.88832-5.77536-22.65088-5.77536-13.80352 0-20.60288 4.05504-22.69184 5.61152-0.98304 1.6384-0.98304 1.06496-2.90816 2.8672L114.36032 815.7184c17.08032 11.14112 37.35552 18.432 59.14624 18.432h969.15456z m106.496-772.66944c0-60.25216-46.53056-108.544-106.496-108.544H173.54752c-59.96544 0-110.46912 48.29184-110.46912 108.544V723.27168c0 15.64672 4.17792 30.55616 10.11712 44.032l515.6864-474.9312c7.20896-7.7824 28.59008-26.05056 68.97664-26.05056 40.79616 0 62.09536 18.59584 69.09952 26.29632L1235.7632 777.58464c9.17504-16.01536 13.39392-34.57024 13.39392-54.31296v-661.79072z"  horiz-adv-x="1310" />

    
    <glyph glyph-name="fabu1" unicode="&#58892;" d="M51.2 384l278.756-136.533 22.755 45.51L176.356 384l671.288 364.089L398.222 224.71V-71.11h56.89V201.956l460.8 534.755L773.688 31.29 529.067 179.2l-34.134-45.511L819.2-59.733 1006.933 890.31z"  horiz-adv-x="1024" />

    
    <glyph glyph-name="tupian" unicode="&#58928;" d="M1133.184 892.096H75.52C34.048 892.096 0 858.176 0 816.576V-52.48C0-93.952 34.048-128 75.52-128h1057.664c41.536 0 75.52 34.048 75.52 75.52V816.512c0 41.6-33.984 75.52-75.52 75.52z m0-944.576H75.52V170.24l303.168 293.76 312.576-312.192c12.864-15.616 35.84-13.632 52.096-1.344L881.28 275.2l248.768-255.36a38.144 38.144 0 0 1 3.072-2.688v-69.696z m0 177.408l-221.952 227.2a37.888 37.888 0 0 1-49.536 3.2l-142.272-123.968L406.72 540.8a38.016 38.016 0 0 1-26.88 13.632 39.232 39.232 0 0 1-28.224-10.24L75.52 275.712V816.512h1057.664v-691.584z m-264.384 389.184a75.328 75.328 0 1 1 0 150.72 75.328 75.328 0 0 1 0-150.72z"  horiz-adv-x="1216" />

    
    <glyph glyph-name="yonghuzhongxin" unicode="&#58880;" d="M857.335 37.257c-0.107 1.107-0.234 2.21-0.351 3.312a34.588 34.588 0 0 1-0.81 6.956C840.5 170.779 759.926 273.768 649.781 321.163c63.655 43.606 105.428 116.825 105.428 199.801 0 133.679-108.37 242.039-242.04 242.039s-242.03-108.36-242.03-242.039c0-83.007 41.8-156.25 105.492-199.85C267.71 274.2 187.732 172.91 170.873 51.433a34.455 34.455 0 0 1-1.934-11.395l0.265-2.656-0.013-0.124h0.025l0.042-0.42c0-19.059 15.444-34.51 34.511-34.51 19.06 0 34.51 15.451 34.51 34.51l-0.042 0.42h0.62c16.087 131.809 124.937 234.94 259.279 242.157 4.973-0.306 9.982-0.479 15.032-0.479 5.061 0 10.083 0.175 15.067 0.481 134.358-7.202 243.226-110.339 259.312-242.16h0.704l0.042-0.419c0-19.059 15.453-34.51 34.512-34.51s34.511 15.451 34.511 34.51l-0.042 0.42h0.06zM513.11 348.017c-95.477 0-172.882 77.403-172.882 172.88 0 95.488 77.406 172.883 172.882 172.883 95.478 0 172.882-77.396 172.882-172.882 0-95.479-77.404-172.882-172.882-172.882z"  horiz-adv-x="1024" />

    
    <glyph glyph-name="tupian1" unicode="&#58890;" d="M1177.848142 894.676575H214.229402c-51.117286 0-90.323748-39.206462-90.323748-90.323748v-840.20937c0-48.13958 39.206462-90.323748 90.323748-90.323748H1177.848142c48.13958 0 90.323748 42.184168 90.323748 90.323748V804.187399c0.165428 48.305008-39.041034 90.489176-90.323748 90.489176zM419.029402 740.993861c51.282714 0 96.444588-42.184168 96.444588-96.444588s-42.184168-96.444588-96.444588-96.444588c-51.117286 0-96.444588 42.184168-96.444588 96.444588S367.746688 740.993861 419.029402 740.993861z m-69.314378-731.853958c-9.098546 0-18.031664 2.977706-27.13021 9.098546-18.031664 15.053958-18.031664 36.063328-2.977706 54.26042l186.768336 262.038126c15.053958 15.053958 36.063328 18.031664 54.26042 5.955412l162.615832-114.476252L1015.23231 539.171567c15.053958 15.053958 87.346042 93.301454 129.53021 5.955412v-533.00937c0-2.977706-795.047496-2.977706-795.047496-2.977706z m0 0"  horiz-adv-x="1392" />

    
    <glyph glyph-name="gengduo" unicode="&#58899;" d="M512-128C230.4-128 0 102.39999999999998 0 384S230.4 896 512 896s512-230.4 512-512-230.4-512-512-512z m0 64c249.6 0 448 198.4 448 448S761.6 832 512 832 64 633.6 64 384s198.4-448 448-448z m0 0M288.6 385m-60.7 0a60.7 60.7 0 1 1 121.4 0 60.7 60.7 0 1 1-121.4 0ZM511.6 385m-60.7 0a60.7 60.7 0 1 1 121.4 0 60.7 60.7 0 1 1-121.4 0ZM745.8 385m-60.7 0a60.7 60.7 0 1 1 121.4 0 60.7 60.7 0 1 1-121.4 0Z"  horiz-adv-x="1024" />

    
    <glyph glyph-name="shixiao1" unicode="&#58966;" d="M512 832C265 832 64 631 64 384s201-448 448-448 448 201 448 448-201 448-448 448z m0-821.3c-205.9 0-373.3 167.5-373.3 373.3 0 205.9 167.5 373.3 373.3 373.3S885.3 589.9 885.3 384 717.9 10.7 512 10.7zM512 234.6c-34.3 0-62.2-27.9-62.2-62.2s27.8-62.2 62.2-62.2c34.4 0 62.2 27.9 62.2 62.2s-27.9 62.2-62.2 62.2zM512 284.4c27.5 0 49.8 22.3 49.8 49.8V608c0 27.5-22.3 49.8-49.8 49.8S462.2 635.5 462.2 608v-273.8c0-27.5 22.3-49.8 49.8-49.8z"  horiz-adv-x="1024" />

    
    <glyph glyph-name="liebiao" unicode="&#60033;" d="M928 673.162H591.777c-17.673 0-32 14.327-32 32v0.036c0 17.673 14.327 32 32 32H928c17.673 0 32-14.327 32-32v-0.036c0-17.674-14.327-32-32-32zM928 483.055H591.777c-17.673 0-32 14.327-32 32v0.036c0 17.673 14.327 32 32 32H928c17.673 0 32-14.327 32-32v-0.036c0-17.673-14.327-32-32-32zM376.174 416.018H136.04c-39.723 0-72.04 32.317-72.04 72.04V728.192c0 39.723 32.317 72.04 72.04 72.04h240.134c39.723 0 72.04-32.317 72.04-72.04v-240.134c0-39.723-32.316-72.04-72.04-72.04zM136.04 736.197c-4.339 0-8.004-3.666-8.004-8.004v-240.134c0-4.339 3.666-8.004 8.004-8.004h240.134c4.339 0 8.004 3.666 8.004 8.004V728.192c0 4.339-3.666 8.004-8.004 8.004H136.04zM928 224.911H591.777c-17.673 0-32 14.327-32 32v0.036c0 17.673 14.327 32 32 32H928c17.673 0 32-14.327 32-32v-0.036c0-17.673-14.327-32-32-32zM928 34.805H591.777c-17.673 0-32 14.327-32 32v0.036c0 17.673 14.327 32 32 32H928c17.673 0 32-14.327 32-32v-0.036c0-17.673-14.327-32-32-32zM376.174-32.232H136.04c-39.723 0-72.04 32.317-72.04 72.04V279.942c0 39.723 32.317 72.04 72.04 72.04h240.134c39.723 0 72.04-32.317 72.04-72.04v-240.134c0-39.723-32.316-72.04-72.04-72.04zM136.04 287.946c-4.339 0-8.004-3.666-8.004-8.004v-240.134c0-4.339 3.666-8.004 8.004-8.004h240.134c4.339 0 8.004 3.666 8.004 8.004V279.942c0 4.339-3.666 8.004-8.004 8.004H136.04z"  horiz-adv-x="1024" />

    
    <glyph glyph-name="-hao" unicode="&#58883;" d="M972.8 329.216H64c-32 0-64 25.6-64 57.6s32 51.2 64 51.2h908.8c32 0 57.6-25.6 57.6-51.2s-25.6-57.6-57.6-57.6Z"  horiz-adv-x="1030" />

    
    <glyph glyph-name="fanhuidingbu" unicode="&#58968;" d="M614.9 493.4V204c0-14.3-11.6-25.9-25.9-25.9H433.4c-14.3 0-25.9 11.6-25.9 25.9V493.4H262c-14.3 0-25.9 11.7-25.9 26 0 6.8 2.7 13.3 7.4 18.1L492.7 790c10.1 10.2 26.5 10.3 36.7 0.3l0.3-0.3 249.2-252.5c10-10.2 9.9-26.7-0.4-36.7-4.8-4.7-11.3-7.4-18.1-7.4H614.9zM123 72.9h778.1c14.3 0 25.9-11.6 25.9-25.9v-53.2c0-14.3-11.6-25.9-25.9-25.9H123c-14.3 0-25.9 11.6-25.9 25.9V47c0 14.3 11.6 25.9 25.9 25.9z"  horiz-adv-x="1024" />

    
    <glyph glyph-name="xitong" unicode="&#58919;" d="M536.249731 210.39397199999996a160.378902 160.378902 0 1 0 160.378902 160.378902 160.378902 160.378902 0 0 0-160.378902-160.378902z m0 263.440258a103.612487 103.612487 0 1 1 103.061356-103.061356 103.061356 103.061356 0 0 1-103.061356 103.061356zM410.592034-53.59741699999995a61.175457 61.175457 0 0 0-32.516684 8.818084l-122.902045 70.544672a65.033369 65.033369 0 0 0-23.698601 88.73197v3.857912a73.851453 73.851453 0 0 1 0 76.055974A74.402583 74.402583 0 0 1 165.339074 234.64370299999996h-3.306781a65.033369 65.033369 0 0 0-65.033369 65.033369V441.868676A66.13563 66.13563 0 0 0 165.339074 506.902045a73.300323 73.300323 0 0 1 66.13563 39.130248A73.851453 73.851453 0 0 1 234.230355 620.434876v4.409042a65.033369 65.033369 0 0 0 23.698601 89.2831L378.07535 785.77395a65.033369 65.033369 0 0 0 89.2831-24.24973v-3.857912a74.402583 74.402583 0 0 1 65.584499-36.374596 76.055974 76.055974 0 0 1 67.237891 36.374596l6.062432 4.960172A64.482239 64.482239 0 0 0 693.872982 785.77395l122.902045-70.544671a66.13563 66.13563 0 0 0 30.312164-39.681378 65.584499 65.584499 0 0 0-6.613563-49.601722v-3.857912a73.851453 73.851453 0 0 1 0-76.055974 73.300323 73.300323 0 0 1 64.482239-39.681378h4.960172a65.033369 65.033369 0 0 0 65.033369-65.033369v-141.640474A65.584499 65.584499 0 0 0 908.262648 234.64370299999996h-4.409042a79.913886 79.913886 0 0 1-77.158235-83.220667 73.300323 73.300323 0 0 1 8.818084-31.965555v-4.409042a64.482239 64.482239 0 0 0-23.6986-88.73197l-122.902046-71.095802a65.584499 65.584499 0 0 0-82.669537 24.249731v3.306782a78.811625 78.811625 0 0 1-132.822389 0v-4.409042a64.482239 64.482239 0 0 0-55.113025-32.516685z m-129.515608 275.565124a132.82239 132.82239 0 0 0 0-132.822389v-3.857912a8.818084 8.818084 0 0 1 3.306782-11.573735l122.902045-70.544672a6.062433 6.062433 0 0 1 6.062433 0 8.266954 8.266954 0 0 1 4.960172 3.306781v4.960173a137.231432 137.231432 0 0 0 232.576964 0v-3.857912a7.715823 7.715823 0 0 1 11.022605-3.857912l122.350915 71.095802a8.266954 8.266954 0 0 1 3.306782 11.022605v4.409042a136.129171 136.129171 0 0 0 55.113025 184.628633 146.600646 146.600646 0 0 0 60.624327 16.533907h4.409042a8.266954 8.266954 0 0 1 9.369214 7.164694v143.293864a8.266954 8.266954 0 0 1-8.266954 7.715823h-4.960172a135.026911 135.026911 0 0 0-114.083961 67.789021 132.82239 132.82239 0 0 0 0 132.82239v4.409042a8.266954 8.266954 0 0 1 0 6.062432 8.818084 8.818084 0 0 1-3.857912 4.960173l-123.453175 71.646932a8.818084 8.818084 0 0 1-11.022605-2.755652l0.55113-3.857911a135.578041 135.578041 0 0 0-230.923574 0H418.858988a8.818084 8.818084 0 0 1-11.022605 4.409042L284.383208 666.178687a8.266954 8.266954 0 0 1 0-11.022605v-4.409042a132.82239 132.82239 0 0 0 0-132.82239 133.37352 133.37352 0 0 0-115.737352-68.891281H165.339074a8.266954 8.266954 0 0 1-9.369214-7.164693v-142.191604a8.266954 8.266954 0 0 1 8.266954-7.715823H165.339074a135.026911 135.026911 0 0 0 115.737352-68.340151z"  horiz-adv-x="1024" />

    
    <glyph glyph-name="kaoshi" unicode="&#59003;" d="M822.5 832.1h-618c-55.3 0-100.5-45.2-100.5-100.5v-694.5c0-55.3 45.2-100.5 100.5-100.5h618c55.3 0 100.5 45.2 100.5 100.5V731.6c0.1 55.3-45.2 100.5-100.5 100.5zM262 688.9h236.4c22.5 0 41-16.8 41-37.2 0-20.5-18.4-37.2-41-37.2H262c-22.5 0-41 16.8-41 37.2 0 20.4 18.5 37.2 41 37.2z m0-197.7h317.1c22.5 0 41-16.8 41-37.2 0-20.5-18.4-37.2-41-37.2H262c-22.5 0-41 16.8-41 37.2 0 20.4 18.5 37.2 41 37.2zM660.6 225H262c-22.5 0-41 16.8-41 37.2 0 20.5 18.4 37.2 41 37.2h398.7c22.5 0 41-16.8 41-37.2-0.1-20.4-18.5-37.2-41.1-37.2z"  horiz-adv-x="1024" />

    
    <glyph glyph-name="guanbi" unicode="&#58885;" d="M566.613333 384l279.893334 279.893333c13.653333 13.653333 13.653333 34.133333 0 47.786667-13.653333 13.653333-34.133333 13.653333-47.786667 0l-286.72-273.066667-273.066667 273.066667c-13.653333 13.653333-34.133333 13.653333-47.786666 0-13.653333-13.653333-13.653333-34.133333 0-47.786667l279.893333-279.893333-279.893333-279.893333c-13.653333-13.653333-13.653333-34.133333 0-47.786667 13.653333-13.653333 34.133333-13.653333 47.786666 0l279.893334 279.893333 279.893333-279.893333c13.653333-13.653333 34.133333-13.653333 47.786667 0 13.653333 13.653333 13.653333 34.133333 0 47.786667L566.613333 384z m0 0"  horiz-adv-x="1030" />

    
    <glyph glyph-name="qiyeguanli" unicode="&#58932;" d="M928 64h-32V512c0 70.4-57.6 128-128 128H576v64c0 70.4-57.6 128-128 128H192c-70.4 0-128-57.6-128-128v-640H32c-17.92 0-32-14.08-32-32s14.08-32 32-32h896c17.92 0 32 14.08 32 32s-14.08 32-32 32zM512 640v-576H128V704c0 35.2 28.8 64 64 64h256c35.2 0 64-28.8 64-64v-64z m320-576H576V576h192c35.2 0 64-28.8 64-64v-448zM416 640H224c-17.92 0-32-14.08-32-32s14.08-32 32-32h192c17.92 0 32 14.08 32 32s-14.08 32-32 32z m0-192H224c-17.92 0-32-14.08-32-32s14.08-32 32-32h192c17.92 0 32 14.08 32 32s-14.08 32-32 32z m0-192H224c-17.92 0-32-14.08-32-32s14.08-32 32-32h192c17.92 0 32 14.08 32 32s-14.08 32-32 32z m320 192h-64c-17.92 0-32-14.08-32-32s14.08-32 32-32h64c17.92 0 32 14.08 32 32s-14.08 32-32 32z m0-192h-64c-17.92 0-32-14.08-32-32s14.08-32 32-32h64c17.92 0 32 14.08 32 32s-14.08 32-32 32z"  horiz-adv-x="1024" />

    
    <glyph glyph-name="yasuobao" unicode="&#58962;" d="M0 192h1024v-320H0zM0 895.936h1024v-320H0v320zM0 544h1024v-320H0v320zM608 895.936h192V-128h-192V895.936z"  horiz-adv-x="1024" />

    
    <glyph glyph-name="dui" unicode="&#59023;" d="M476.807977 895.99995C213.40199 895.89295-0.032 682.30996 0 418.924973S213.55099-57.989003 476.946977-58.020003 953.903953 155.389986 954.031953 418.786973A477.009977 477.009977 0 0 1 476.807977 895.99995z m273.760986-353.369983L441.860978 234.145982a43.189998 43.189998 0 0 0-62.022997 0L202.21499 411.747974a43.863998 43.863998 0 1 0 62.033997 62.033997l147.219993-147.219993 277.897986 276.864986a43.861998 43.861998 0 1 0 62.022997-62.033997z m0 0"  horiz-adv-x="1097" />

    
    <glyph glyph-name="hao" unicode="&#58881;" d="M853.95951925 420.4933895h-310.08967642v300.83326917c0 13.88461268-13.88461268 32.39742862-32.39742936 32.39742862-18.51281666 0-32.39742862-18.51281666-32.39742861-37.02563333v-300.83326844H178.2417157c-18.51281666 4.62820399-37.02563333-13.88461268-37.02563262-32.39742934s18.51281666-32.39742862 32.39742863-32.39742861h300.83326916v-300.83326845c4.62820399-18.51281666 18.51281666-37.02563333 37.02563261-37.02563334s32.39742862 18.51281666 32.39742935 32.39742862v305.46147317h305.46147243c18.51281666 0 32.39742862 18.51281666 32.39742934 32.39742861s-9.25640796 37.02563333-27.76922535 37.02563333z"  horiz-adv-x="1027" />

    
    <glyph glyph-name="jia" unicode="&#58977;" d="M825.6 422.4H544V697.6c0 19.2-12.8 32-32 32s-32-12.8-32-32V416H204.8c-25.6 0-38.4-12.8-38.4-32s12.8-32 32-32h275.2v-275.2c0-19.2 12.8-32 32-32s32 12.8 32 32V352h275.2c19.2 0 32 12.8 32 32s0 38.4-19.2 38.4zM512 896C230.4 896 0 665.6 0 384s230.4-512 512-512 512 230.4 512 512S793.6 896 512 896z m0-953.6C268.8-57.6 70.4 140.8 70.4 384 70.4 627.2 268.8 825.6 512 825.6c243.2 0 441.6-198.4 441.6-441.6 0-243.2-198.4-441.6-441.6-441.6z"  horiz-adv-x="1024" />

    
    <glyph glyph-name="daifenpeifuwushang" unicode="&#58922;" d="M819.2 486.4H546.133V588.8H614.4c37.547 0 68.267 30.72 68.267 68.267v102.4c0 37.546-30.72 68.266-68.267 68.266H409.6c-37.547 0-68.267-30.72-68.267-68.266v-102.4c0-37.547 30.72-68.267 68.267-68.267h68.267v-102.4H204.8c-37.547 0-68.267-30.72-68.267-68.267v-102.4c0-20.48 13.654-34.133 34.134-34.133s34.133 13.653 34.133 34.133v102.4h273.067v-102.4c0-20.48 13.653-34.133 34.133-34.133s34.133 13.653 34.133 34.133v102.4H819.2v-102.4c0-20.48 13.653-34.133 34.133-34.133s34.134 13.653 34.134 34.133v102.4c0 37.547-30.72 68.267-68.267 68.267zM409.6 657.067v102.4h204.8v-102.4H409.6zM170.667-25.6c-75.094 0-136.534 61.44-136.534 136.533s61.44 136.534 136.534 136.534S307.2 186.027 307.2 110.933 245.76-25.6 170.667-25.6z m0 204.8c-37.547 0-68.267-30.72-68.267-68.267s30.72-68.266 68.267-68.266 68.266 30.72 68.266 68.266-30.72 68.267-68.266 68.267zM512-25.6c-75.093 0-136.533 61.44-136.533 136.533S436.907 247.467 512 247.467s136.533-61.44 136.533-136.534S587.093-25.6 512-25.6z m0 204.8c-37.547 0-68.267-30.72-68.267-68.267s30.72-68.266 68.267-68.266 68.267 30.72 68.267 68.266S549.547 179.2 512 179.2z m341.333-204.8c-75.093 0-136.533 61.44-136.533 136.533s61.44 136.534 136.533 136.534 136.534-61.44 136.534-136.534S928.427-25.6 853.333-25.6z m0 204.8c-37.546 0-68.266-30.72-68.266-68.267s30.72-68.266 68.266-68.266 68.267 30.72 68.267 68.266-30.72 68.267-68.267 68.267z"  horiz-adv-x="1024" />

    
    <glyph glyph-name="shixiao" unicode="&#58913;" d="M512.0002-128C230.38421-128 0.0002 102.38401 0.0002 384S230.38421 896 512.0002 896 1024.0002 665.61599 1024.0002 384 793.61619-128 512.0002-128zM512.0002 832.039975C262.428182 831.976015 64.024185 633.508057 64.024185 384S262.428182-63.976015 512.0002-63.976015 959.976215 134.427983 959.976215 384 761.572217 831.976015 512.0002 831.976015zM127.958137 722.047975m22.613284 22.613284l0 0q22.613284 22.613284 45.226567 0l678.398511-678.398511q22.613284-22.613284 0-45.226568l0 0q-22.613284-22.613284-45.226567 0l-678.398511 678.398511q-22.613284 22.613284 0 45.226568Z"  horiz-adv-x="1024" />

    
    <glyph glyph-name="daochu" unicode="&#59045;" d="M899.584-73.728H124.416c-22.528 0-40.96 18.432-40.96 40.96V527.36c0 22.528 18.432 40.96 40.96 40.96h206.848v-61.44H144.896v-518.656h734.208V506.88h-199.68V568.32h220.16c22.528 0 40.96-18.432 40.96-40.96v-559.616c0-23.04-18.432-41.472-40.96-41.472zM331.264 537.6m-30.72 0a30.72 30.72 0 1 1 61.44 0 30.72 30.72 0 1 1-61.44 0ZM333.824 641.536m-30.72 0a30.72 30.72 0 1 1 61.44 0 30.72 30.72 0 1 1-61.44 0ZM692.736 640m-30.72 0a30.72 30.72 0 1 1 61.44 0 30.72 30.72 0 1 1-61.44 0ZM512.512 810.496m-30.72 0a30.72 30.72 0 1 1 61.44 0 30.72 30.72 0 1 1-61.44 0ZM679.424 537.6m-30.72 0a30.72 30.72 0 1 1 61.44 0 30.72 30.72 0 1 1-61.44 0ZM515.584 182.272h-5.12c-15.36 0-28.16 12.8-28.16 28.16V746.496c0 15.36 12.8 28.16 28.16 28.16h5.12c15.36 0 28.16-12.8 28.16-28.16v-536.064c0-15.36-12.8-28.16-28.16-28.16zM314.33216 665.3952l177.42848 167.82848 42.21952-44.63616-177.42848-167.8336zM491.32032 788.41856l42.22464 44.63616 177.42848-167.8336-42.22464-44.63616z"  horiz-adv-x="1024" />

    
    <glyph glyph-name="pdf" unicode="&#60294;" d="M76.8 896h691.2l256-256v-691.2c0-42.24-34.56-76.8-76.8-76.8H76.8c-42.24 0-76.8 34.56-76.8 76.8V819.2c0 42.24 34.56 76.8 76.8 76.8zM768 896l256-256H844.8c-42.24 0-76.8 34.56-76.8 76.8V896zM296.96 486.4c61.44 0 90.88-25.6 90.88-78.08s-30.72-78.08-92.16-78.08H230.4V230.4h-38.4V486.4h104.96zM230.4 363.52h64c19.2 0 33.28 3.84 42.24 10.24 8.96 7.68 12.8 19.2 12.8 34.56 0 15.36-5.12 26.88-14.08 33.28-8.96 7.68-23.04 10.24-42.24 10.24h-64v-88.32zM518.4 486.4c40.96 0 72.96-11.52 93.44-34.56 20.48-21.76 30.72-52.48 30.72-93.44 0-39.68-10.24-71.68-30.72-93.44-21.76-23.04-52.48-34.56-93.44-34.56h-92.16V486.4h92.16z m-53.76-222.72h46.08c32 0 56.32 7.68 71.68 23.04 14.08 15.36 21.76 39.68 21.76 71.68 0 33.28-7.68 56.32-21.76 71.68-15.36 15.36-38.4 23.04-70.4 23.04h-47.36v-189.44zM856.32 486.4v-33.28H720.64v-74.24h126.72V345.6h-126.72v-115.2h-39.68V486.4h175.36z"  horiz-adv-x="1024" />

    
    <glyph glyph-name="chakan" unicode="&#59123;" d="M616.32-27.712H197.056a92.608 92.608 0 0 0-92.608 92.672V698.88A92.608 92.608 0 0 0 196.992 791.68h633.92c24.576 0 48.192-9.728 65.536-27.2 17.472-17.472 27.072-40.704 27.072-65.472l-1.472-419.264v-0.128a34.176 34.176 0 0 1 68.352-0.128l1.408 419.392V698.88A160.832 160.832 0 0 1 830.912 859.776H196.992A160.64 160.64 0 0 1 36.224 698.88v-633.92a160.64 160.64 0 0 1 160.768-160.832h419.392a34.112 34.112 0 1 1 0 68.16zM981.888-37.696l-130.176 130.24a205.056 205.056 0 1 1-48.256-48.256l130.24-130.176a34.112 34.112 0 0 1 48.192 48.192zM684.8 74.624a136.576 136.576 0 1 0 0 273.152 136.576 136.576 0 0 0 0-273.152z m102.4 477.696a34.176 34.176 0 0 1 0 68.416L241.088 620.8a34.176 34.176 0 0 1 0-68.352l546.112-0.192zM445.888 347.712a34.112 34.112 0 1 1 0 68.16h-204.8a34.048 34.048 0 1 1 0-68.096l204.8-0.064z m-204.8-136.448a34.112 34.112 0 1 1 0-68.16H377.6a34.048 34.048 0 1 1 0 68.096l-136.512 0.064z"  horiz-adv-x="1024" />

    
    <glyph glyph-name="yonghuming" unicode="&#58898;" d="M511.700176 323.735311c52.369315 0 103.139567-10.293968 150.911575-30.482139 46.172946-19.488581 87.648643-47.472184 123.227796-83.151279 35.679094-35.679094 63.562756-77.154792 83.151279-123.227796 12.392739-29.282842 20.987703-59.764981 25.884833-90.946711H128.524693c4.797189 31.281671 13.492094 61.663869 25.884833 90.946711 19.488581 46.172946 47.472184 87.648643 83.151278 123.227796 35.679094 35.679094 77.154792 63.562756 123.227796 83.151279 47.772009 20.188171 98.54226 30.482139 150.911576 30.482139m0 59.964865c-247.255124 0-447.737654-200.48253-447.737654-447.737654h895.475307c0 247.255124-200.48253 447.737654-447.737653 447.737654zM511.700176 771.472965c50.770252 0 98.442319-19.788405 134.321296-55.567441 35.878977-35.878977 55.567441-83.551044 55.567441-134.321296s-19.788405-98.442319-55.567441-134.321296c-35.878977-35.878977-83.551044-55.567441-134.321296-55.567441s-98.442319 19.788405-134.321296 55.567441c-35.878977 35.878977-55.567441 83.551044-55.567441 134.321296s19.788405 98.442319 55.567441 134.321296c35.878977 35.779036 83.551044 55.567441 134.321296 55.567441m0 59.964864c-138.019129 0-249.853601-111.834472-249.853602-249.853601s111.834472-249.853601 249.853602-249.853601 249.853601 111.834472 249.853601 249.853601-111.834472 249.853601-249.853601 249.853601z"  horiz-adv-x="1024" />

    
    <glyph glyph-name="ziyuanxhdpi" unicode="&#58956;" d="M869.033043 502.153846a54.136928 54.136928 0 0 0 54.136928-54.136928v-467.743061a54.136928 54.136928 0 0 0-54.136928-54.136929H154.966957a54.136928 54.136928 0 0 0-54.136928 54.136929V448.016918a54.136928 54.136928 0 0 0 54.136928 54.136928h714.066086m0 54.136929H154.966957a108.273857 108.273857 0 0 1-108.273856-108.273857v-467.743061a108.273857 108.273857 0 0 1 108.273856-108.273857h714.066086a108.273857 108.273857 0 0 1 108.273856 108.273857V448.016918a108.273857 108.273857 0 0 1-108.273856 108.273857zM817.873645 533.28258h-54.136928v56.843775a251.736717 251.736717 0 1 1-503.473434 0v-56.843775h-54.136928v56.843775a305.873645 305.873645 0 1 0 611.74729 0zM438.644462 375.473434m71.460746 0l3.789584 0q71.460745 0 71.460746-71.460746l0-3.789585q0-71.460745-71.460746-71.460745l-3.789584 0q-71.460745 0-71.460746 71.460745l0 3.789585q0 71.460745 71.460746 71.460746ZM483.036743 328.374306m28.151203 0l1.353423 0q28.151203 0 28.151203-28.151203l0-204.366904q0-28.151203-28.151203-28.151203l-1.353423 0q-28.151203 0-28.151203 28.151203l0 204.366904q0 28.151203 28.151203 28.151203Z"  horiz-adv-x="1024" />

    
    <glyph glyph-name="xingxing" unicode="&#58900;" d="M1651.37 469.369v9.467a77.92 77.92 0 0 1 0-9.467z m-577.836 30.635a77.75 77.75 0 0 1-62.647 53.556l-277.705 48.79L609.108 851.876a78.543 78.543 0 0 1-141.098 0.207L343.87 602.222 66.92 551.975A78.01 78.01 0 0 1 3.714 498.42 76.62 76.62 0 0 1 0 479.07v-9.468a80.114 80.114 0 0 1 24.116-52.452l199.538-184.254-52.31-268.743c-4.96-29.506 7.364-59.739 31.298-76.79 23.714-17.311 57.622-19.584 82.153-6.61l253.732 124.06 251.523-123.852a80.062 80.062 0 0 1 36.531-8.961 79.023 79.023 0 0 1 77.543 92.568l-50.648 268.199 200.214 186.72a78.893 78.893 0 0 1 19.844 80.517z"  horiz-adv-x="1651" />

    
    <glyph glyph-name="caozuorizhi" unicode="&#58920;" d="M860.963302-62.916804a4.607013 4.607013 0 0 0-4.607013-4.607012H138.174186a4.607013 4.607013 0 0 0-4.607013 4.607012V721.737913c0 2.632579 2.120688 4.68014 4.607013 4.68014h107.204456v-76.491037a30.201528 30.201528 0 0 1 60.329929 0V726.418053h378.360066v-76.491037a30.201528 30.201528 0 0 1 60.329929 0V726.418053h111.884596c2.632579 0 4.68014-2.047561 4.68014-4.607013v-784.727844z m-4.607013 849.664787H744.398566V865.725345a30.128401 30.128401 0 0 1-60.329929 0v-78.977362H305.708571V865.725345a30.128401 30.128401 0 0 1-60.329929 0v-78.977362H138.174186A64.863815 64.863815 0 0 1 73.237244 721.81104v-784.727844c0-35.832322 29.031493-64.936942 64.936942-64.936942h718.108976c35.832322 0 65.010069 29.10462 65.01007 64.936942V721.737913a64.936942 64.936942 0 0 1-64.936943 65.01007zM709.663152 461.917018H275.507043a30.128401 30.128401 0 0 1 0-60.32993h434.156109a30.201528 30.201528 0 1 1 0 60.32993M709.663152 297.234593H275.507043a30.128401 30.128401 0 0 1 0-60.32993h434.156109a30.201528 30.201528 0 1 1 0 60.32993M709.663152 132.47904H275.507043a30.128401 30.128401 0 0 1 0-60.256802h434.156109a30.201528 30.201528 0 0 1 0 60.329929"  horiz-adv-x="1024" />

    
    <glyph glyph-name="wenjianjia" unicode="&#58902;" d="M144 728.8h369.6c23.2 0 43.2-16.8 47.2-39.2l29.6-158.4c4.8-26.4-12-51.2-38.4-56-3.2-0.8-5.6-0.8-8.8-0.8H144c-26.4 0-48 21.6-48 48V680.8c0 26.4 21.6 48 48 48zM916.8 16H139.2c-24 0-43.2 19.2-43.2 43.2V576h820.8c24 0 43.2-19.2 43.2-43.2v-473.6c0-24-19.2-43.2-43.2-43.2z"  horiz-adv-x="1024" />

    
    <glyph glyph-name="global" unicode="&#59261;" d="M480.00144-64.00288A479.978401 479.978401 0 1 0 959.979841 415.975521 480.554375 480.554375 0 0 0 480.00144-64.00288z m0 895.959682A415.981281 415.981281 0 1 1 895.982721 415.975521 416.429261 416.429261 0 0 1 480.00144 831.956802zM0.023039 447.974081h895.959682v-63.99712H0.023039zM512 895.953922v-895.959682H448.00288V895.953922zM93.010855 699.930743a482.986266 482.986266 0 0 0 40.830162 48.509817 606.88469 606.88469 0 0 1 692.44884 0 482.410292 482.410292 0 0 0 40.830163-48.509817 666.274018 666.274018 0 0 0-774.365154 0zM480.00144 191.985601a573.99017 573.99017 0 0 1-346.22442-108.411122 482.282297 482.282297 0 0 0-40.766165 48.509817 666.274018 666.274018 0 0 0 773.98117 0 482.794274 482.794274 0 0 0-40.766165-48.509817A573.926173 573.926173 0 0 1 480.00144 191.985601zM406.21276-58.371133C574.653181-22.66074 703.99136 176.498298 703.99136 415.975521S574.589183 854.67578 406.084766 890.258178a485.674145 485.674145 0 0 0 149.817258 0 635.811388 635.811388 0 0 0 0-947.98934 485.610148 485.610148 0 0 0-149.753261-0.319986zM0.023039 415.975521zM403.972861-57.987151a635.875386 635.875386 0 0 0 0 947.925344A485.674145 485.674145 0 0 0 553.854117 890.258178C385.413696 854.67578 256.011519 655.580739 256.011519 415.975521s129.33818-438.636261 297.7786-474.346654a485.674145 485.674145 0 0 0-149.817258 0.383982zM959.979841 415.975521v14.527346-14.527346z"  horiz-adv-x="1024" />

    
    <glyph glyph-name="chenggong" unicode="&#58895;" d="M512-128C229.248-128 0 101.248 0 384S229.248 896 512 896s512-229.248 512-512-229.248-512-512-512zM399.530667 404.224l-142.421334-85.802667c60.458667-21.461333 146.773333-90.069333 220.117334-180.181333 51.797333 94.378667 211.456 287.445333 289.152 304.597333-30.208 68.650667-12.928 124.416-8.618667 188.757334-176.938667-90.069333-289.152-360.362667-289.152-360.362667l-69.077333 132.992z"  horiz-adv-x="1024" />

    
    <glyph glyph-name="shengxiao" unicode="&#58924;" d="M703.546 545.816L441.928 284.623 320.479 405.898c-10.677 10.664-28.027 10.664-38.704 0-10.682-10.66-10.682-27.982 0-38.641L419.255 230c0.921-1.317 1.483-2.826 2.661-4.002 5.52-5.511 12.779-8.06 20.011-7.862 7.231-0.17 14.52 2.351 20.04 7.862 1.177 1.177 1.739 2.685 2.665 4.002l277.622 277.17c10.677 10.664 10.677 27.981 0 38.646-10.706 10.659-28.027 10.659-38.708 0zM512.002 833.622c-247.69 0-448.46-200.445-448.46-447.728 0-247.286 200.77-447.732 448.46-447.732 247.66 0 448.455 200.445 448.455 447.732 0 247.283-200.77 447.728-448.455 447.728z m0-839.491c-216.721 0-392.4 175.396-392.4 391.758 0 216.369 175.679 391.764 392.4 391.764 216.716 0 392.396-175.396 392.396-391.764 0.001-216.362-175.68-391.758-392.396-391.758z"  horiz-adv-x="1024" />

    
    <glyph glyph-name="shangyi1" unicode="&#58975;" d="M512.35 767.78a382.56 382.56 0 1 0-149.45-30.15 381.69 381.69 0 0 0 149.45 30.15m0 64c-247.42 0-448-200.58-448-448s200.58-448 448-448 448 200.57 448 448-200.57 448-448 448zM346.79 240.34a32 32 0 0 0-25.74 51l164.67 223.43a32 32 0 0 0 25.64 13h0.12A32 32 0 0 0 537.09 515l165.33-220.6a32 32 0 0 0-51.21-38.4L511.7 442.14 372.57 253.35a31.94 31.94 0 0 0-25.78-13.01z"  horiz-adv-x="1024" />

    
    <glyph glyph-name="xiayi1" unicode="&#58984;" d="M512.35 767.78a382.56 382.56 0 1 0-149.45-30.15 381.69 381.69 0 0 0 149.45 30.15m0 64c-247.42 0-448-200.58-448-448s200.58-448 448-448 448 200.57 448 448-200.57 448-448 448zM512.82 240.29a32 32 0 0 0-25.6 12.81L321.89 473.7a32 32 0 1 0 51.21 38.38l139.51-186.14 139.12 188.79a32 32 0 0 0 51.53-38L538.58 253.31a32 32 0 0 0-25.63-13z"  horiz-adv-x="1024" />

    
    <glyph glyph-name="paihangbang" unicode="&#58921;" d="M306.336-125.12H102.144A102.208 102.208 0 0 0 0-23.04V513.088a102.272 102.272 0 0 0 102.144 102.112h204.16v180.8C306.336 852.096 351.264 896 408.48 896h255.36c57.216 0 102.048-43.904 102.048-100v-333.984h204.32a102.304 102.304 0 0 0 102.08-102.144V-23.04c0-56.32-45.92-102.08-102.08-102.08h-204.32 0.064H306.336z m0 51.008V564.128H102.144a51.136 51.136 0 0 1-51.072-51.04V-23.04c0-28.16 22.912-51.072 51.072-51.072h204.16z m51.072 0h357.376V796c0 27.488-22.432 48.96-51.008 48.96h-255.328c-28.608 0-51.04-21.536-51.04-48.96V-74.112z m408.512 0h204.256c28.16 0 51.008 22.912 51.008 51.072V359.872c0 28.16-22.816 51.04-51.008 51.072h-204.256v-485.056z"  horiz-adv-x="1088" />

    
    <glyph glyph-name="shouquan" unicode="&#58941;" d="M526.319-72.804a123.853 123.853 0 0 0-40.499 6.794c-128.2 43.975-182.733 81.128-193.125 88.731C140.472 126.82 137.373 264.26 137.315 270.065l-0.002 400.753c0 35.556 28.75 65.471 64.09 66.689 95.818 3.368 246.38 79.634 290.243 102.926 21.074 11.32 48.14 11.384 69.465-0.06 43.63-23.239 193.751-99.477 290.145-102.869 35.484-1.371 64.136-31.344 63.982-66.816v-400.332c-0.058-6.079-3.063-143.456-155.246-247.549-7.7-5.691-61.988-43.817-193.232-88.838a123.778 123.778 0 0 0-40.441-6.773z m-207.35 149.042h0.412l7.966-5.869c5.12-3.777 53.629-38.13 177.643-80.667 13.828-4.775 28.877-4.756 42.599-0.02 128.416 44.048 176.884 80.126 177.358 80.485l1.309 0.949c126.153 86.028 129.97 195.094 130.07 199.696l-0.005 400.005c0.02 3.934-3.505 7.669-7.244 7.813-105.939 3.728-256.108 78.021-315.747 109.79-4.421 2.368-9.694 2.32-13.933 0.048-59.943-31.835-210.474-106.131-315.946-109.84-3.725-0.129-7.225-3.924-7.225-7.81v-400.461c0.1-4.045 3.839-108.94 122.743-194.119zM721.621 465.782L522.484 266.646c-6.068-6.15-13.907-9.186-21.996-9.186a31.338 31.338 0 0 0-21.995 9.019L368.94 376.201c-12.135 12.135-12.135 31.855 0 43.906 12.135 12.135 31.854 12.135 43.905 0l87.644-87.641 177.138 177.138c12.14 12.135 31.854 12.135 43.908 0 12.216-12.135 12.216-31.769 0.086-43.822z"  horiz-adv-x="1024" />

    
    <glyph glyph-name="ziyuan" unicode="&#58888;" d="M344.016083-127.719476C151.296277-112.010147 0.093984 36.947957 0.093984 194.602296a368.608189 368.608189 0 0 0 326.810152 374.499187A368.888712 368.888712 0 0 0 701.403323 895.911635a368.888712 368.888712 0 0 0 374.499187-326.810152A368.888712 368.888712 0 0 0 1402.712662 194.602296c0-157.654339-151.202294-306.612443-343.9221-322.321772H841.66519a30.01604 30.01604 0 0 0-31.418658 29.454992v218.247466a30.857611 30.857611 0 0 0 31.418658 30.857611h116.978398c32.540753 0 42.359084 20.478233 22.441899 46.005893l-246.580364 312.222918a44.042226 44.042226 0 0 1-72.375123 0l-245.177745-312.503442c-19.917185-25.247136-9.818331-46.005893 22.441899-46.005893H561.141455a31.138135 31.138135 0 0 0 31.138134-30.85761v-217.966943A29.735516 29.735516 0 0 0 561.141455-127.719476z"  horiz-adv-x="1402" />

    
    <glyph glyph-name="doc" unicode="&#58916;" d="M920.171163 673.339535c1.666977-183.129302 0-366.496744 0-549.626047a107.63907 107.63907 0 0 0-9.049303-56.20093 83.348837 83.348837 0 0 0-47.627907-9.287442H584.394419v-74.537674h-56.43907c-141.454884 25.957209-283.386047 49.533023-425.07907 74.537674V709.298605c142.883721 23.813953 285.767442 49.056744 428.651163 74.537674h55.486511v-74.537674h298.388838a31.910698 31.910698 0 0 0 35.72093-35.482791zM586.061395 681.674419v-65.012093h241.711628v-37.387907H586.061395v-46.43721h241.711628v-37.149767H586.061395v-47.627907h241.711628v-37.149768H586.061395v-47.627907h241.711628v-37.149767H586.061395v-46.437209h241.711628v-37.387907H586.061395v-46.43721h241.711628v-37.149767H586.061395V86.325581H893.023256V681.674419zM219.088372 443.534884l53.343256-158.600931h32.625116l31.910698 115.973954 31.672558-115.973954h32.386977L454.370233 443.534884h-38.578605l-31.672558-117.164651L352.922791 443.534884h-32.148838l-31.434418-117.164651L257.666977 443.534884z"  horiz-adv-x="1024" />

    
    <glyph glyph-name="shanchu" unicode="&#59007;" d="M358.016 114.898a27.96 27.96 0 0 1 27.93 27.93V494.392c0 15.401-12.529 27.93-27.93 27.93s-27.93-12.529-27.93-27.93v-351.56c0.594-15.313 13.128-27.934 27.93-27.934z m307.968 0a27.955 27.955 0 0 1 27.924 27.93V494.392c0 15.401-12.523 27.93-27.924 27.93s-27.924-12.529-27.924-27.93v-351.56a27.96 27.96 0 0 1 27.924-27.934z m-153.984 0a27.96 27.96 0 0 1 27.93 27.93V494.392c0 15.401-12.529 27.93-27.93 27.93s-27.93-12.529-27.93-27.93v-351.56A27.965 27.965 0 0 1 512 114.899zM928.952 707.942H715.715v38.17c0 39.434-32.087 71.521-71.522 71.521h-263.68c-39.434 0-71.521-32.087-71.521-71.521v-38.17H95.048a27.96 27.96 0 0 1-27.93-27.93 27.955 27.955 0 0 1 27.93-27.924h103.557v-586.603c0-63.862 51.952-115.815 115.82-115.815H709.58c63.862 0 115.814 51.953 115.814 115.815v587.31h103.557a27.96 27.96 0 0 1 27.93 27.93c0 15.262-12.273 27.217-27.93 27.217z m-564.807 38.17a16.195 16.195 0 0 0 16.368 16.369h263.675a16.195 16.195 0 0 0 16.369-16.369v-38.17H364.145v38.17zM769.54 65.485c0-33.065-26.9-59.966-59.96-59.966H314.424c-33.065 0-59.965 26.9-59.965 59.966v587.31H769.54v-587.31z"  horiz-adv-x="1024" />

    
    <glyph glyph-name="boshizhishiguanliicon" unicode="&#58925;" d="M619.185277 120.532378a75.506645 75.506645 0 0 0-38.125154 10.336924L37.367659 449.033383a75.506645 75.506645 0 0 0 1.090706 130.959161L582.200407 886.282796a75.531434 75.531434 0 0 0 74.118473 0l543.742042-306.290252a75.506645 75.506645 0 0 0 1.090706-130.959161L657.384798 130.844513a75.729744 75.729744 0 0 0-38.199521-10.312135z m0 723.832579a23.772447 23.772447 0 0 1-11.749885-3.098599L63.767717 535.050473a23.945968 23.945968 0 0 1-0.347043-41.521218l543.742041-318.16408a23.846813 23.846813 0 0 1 24.193856 0l543.742042 318.16408a23.945968 23.945968 0 0 1-0.322254 41.521218L631.009528 841.365514a23.772447 23.772447 0 0 1-11.824251 3.098598zM619.185277-127.975211a37.951633 37.951633 0 0 0-17.996659 4.536348l-289.037256 156.169358a37.827689 37.827689 0 0 0-19.83103 33.316129V323.279866a38.050788 38.050788 0 0 0 18.343703 32.423734l288.987678 174.190806a37.8029 37.8029 0 0 0 39.116706 0l289.037256-174.190806a38.050788 38.050788 0 0 0 18.343702-32.423734v-257.134087a37.827689 37.827689 0 0 0-19.83103-33.316129l-289.012467-156.169358a38.125154 38.125154 0 0 0-18.120603-4.635503z m0 603.135975a37.902055 37.902055 0 0 1-19.508775-5.428744l-237.526157-143.155245a38.050788 38.050788 0 0 1-18.120603-32.374156v-197.467477a37.703745 37.703745 0 0 1 19.831029-33.216974l237.575735-128.430705a37.629379 37.629379 0 0 1 35.918952 0l237.550945 128.430705a37.703745 37.703745 0 0 1 19.83103 33.216974v197.467477a38.050788 38.050788 0 0 1-18.294125 32.374156l-237.674889 143.155245a37.902055 37.902055 0 0 1-19.583142 5.428744zM645.064771 858.494565v-366.849258h-51.560677V858.494565zM645.039982 150.675543v-247.788714h-51.560677v247.788714z"  horiz-adv-x="1238" />

    
    <glyph glyph-name="qiye" unicode="&#58896;" d="M989.864 8.936h-34.129V486.8c0 75.093-61.443 136.531-136.537 136.531H614.401v68.272c0 75.093-61.443 136.531-136.537 136.531H204.803c-75.095 0-136.537-61.437-136.537-136.531v-682.667h-34.13C15.021 8.936 0-6.085 0-25.2c0-19.115 15.021-34.136 34.136-34.136h955.728c19.115 0 34.136 15.021 34.136 34.136 0 19.115-15.021 34.136-34.136 34.136zM546.136 623.331v-614.395H136.531V691.603c0 37.547 30.724 68.265 68.272 68.265h273.061c37.548 0 68.272-30.719 68.272-68.265v-68.272z m341.333-614.395H614.401V555.065h204.796c37.548 0 68.272-30.719 68.272-68.265v-477.864zM443.735 623.331H238.932c-19.115 0-34.129-15.015-34.129-34.129 0-19.115 15.015-34.136 34.129-34.136h204.803c19.115 0 34.129 15.021 34.129 34.136 0 19.114-15.015 34.129-34.129 34.129z m0-204.796H238.932c-19.115 0-34.129-15.021-34.129-34.136 0-19.115 15.015-34.129 34.129-34.129h204.803c19.115 0 34.129 15.015 34.129 34.129 0 19.114-15.015 34.136-34.129 34.136z m0-204.803H238.932c-19.115 0-34.129-15.016-34.129-34.129 0-19.115 15.015-34.136 34.129-34.136h204.803c19.115 0 34.129 15.021 34.129 34.136 0 19.113-15.015 34.129-34.129 34.129z m341.333 204.803h-68.265c-19.115 0-34.136-15.021-34.136-34.136 0-19.115 15.021-34.129 34.136-34.129h68.265c19.115 0 34.129 15.015 34.129 34.129 0 19.114-15.014 34.136-34.129 34.136z m0-204.803h-68.265c-19.115 0-34.136-15.016-34.136-34.129 0-19.115 15.021-34.136 34.136-34.136h68.265c19.115 0 34.129 15.021 34.129 34.136 0 19.113-15.014 34.129-34.129 34.129z m0 0"  horiz-adv-x="1024" />

    
    <glyph glyph-name="tingyong" unicode="&#59035;" d="M512-128c-279.917714 0-512 232.082286-512 512s232.082286 512 512 512 512-232.082286 512-512-232.082286-512-512-512zM512 827.757714A442.88 442.88 0 0 1 68.242286 384 442.88 442.88 0 0 1 512-59.757714 442.88 442.88 0 0 1 955.757714 384 442.88 442.88 0 0 1 512 827.757714zM149.942857 70.217143l675.84 675.84 48.274286-48.274286-675.84-675.84z"  horiz-adv-x="1024" />

    
    <glyph glyph-name="fanhui" unicode="&#58901;" d="M736-64c-9 0-18.1 3.2-25 9.6L263 360.8c-13.8 12.8-13.8 33.6 0 46.4L711 822.4c13.8 12.8 36.2 12.8 50 0 13.8-12.8 13.8-33.6 0-46.4L338 384l423-392c13.8-12.8 13.8-33.6 0-46.4-6.9-6.4-16-9.6-25-9.6z"  horiz-adv-x="1024" />

    
    <glyph glyph-name="shipinanniu" unicode="&#59131;" d="M512-128C229.234759-128 0 101.234759 0 384S229.234759 896 512 896 1024 666.765241 1024 384 794.765241-128 512-128z m-105.931034 722.696828v-421.393656a17.655172 17.655172 0 0 1 28.177655-14.159448l283.330207 210.696828a17.655172 17.655172 0 0 1 0 28.318896l-283.330207 210.696828a17.655172 17.655172 0 0 1-28.177655-14.159448z"  horiz-adv-x="1024" />

    
    <glyph glyph-name="zixun" unicode="&#58894;" d="M551.594667 14.933333H76.885333c-38.826667 0-70.528 31.573333-70.528 70.357334V810.752c0 38.826667 31.658667 70.4 70.528 70.4H689.493333c38.869333 0 70.528-31.573333 70.528-70.4v-563.626667a20.394667 20.394667 0 0 0-5.12-13.482666l-188.074666-211.925334a20.352 20.352 0 0 0-15.232-6.826666zM76.885333 840.533333a29.866667 29.866667 0 0 1-29.866666-29.781333v-725.461333a29.866667 29.866667 0 0 1 29.866666-29.738667h465.621334l176.853333 199.296V810.752a29.866667 29.866667 0 0 1-29.866667 29.738667H76.885333zM583.68 669.354667H194.133333a30.72 30.72 0 0 0 0 61.397333h389.546667a30.677333 30.677333 0 1 0 0-61.397333z m0-166.656H194.133333a30.72 30.72 0 0 0 0 61.44h389.546667a30.677333 30.677333 0 0 0 0-61.44z m-180.693333-168.96H194.133333a30.72 30.72 0 0 0 0 61.354666h208.853334a30.72 30.72 0 0 0 0-61.397333z m124.757333-316.672a20.352 20.352 0 0 0-20.309333 20.309333v188.330667c0 38.826667 29.866667 70.4 66.517333 70.4h163.498667a20.309333 20.309333 0 1 0 0-40.618667h-163.498667c-14.250667 0-25.856-13.354667-25.856-29.781333v-188.330667a20.352 20.352 0 0 0-20.352-20.309333z"  horiz-adv-x="1170" />

    
    <glyph glyph-name="tongzhigonggao" unicode="&#59022;" d="M983.388532 442.389257H785.871197c-22.475404 0-40.599079-22.526601-40.599078-50.172884v-15.666227c0-27.69748 18.123675-50.121687 40.599078-50.121688h197.466138c22.424207 0 40.599079 22.424207 40.599079 50.121688V392.216373c0 27.646283-18.174871 50.172884-40.599079 50.172884zM525.074593 872.852125c-61.436185-60.156264-189.940205-144.477428-282.401663-225.573191-1.075133-0.716755-2.25266-5.119682-3.276597-5.938832-11.007316-7.577129-15.819818-28.516629-75.259326-28.516629H48.278602C18.482052 612.669883 0 595.518948 0 556.814151v-343.940241c0-38.602403 16.946148-57.801211 48.278602-57.80121h116.319176c59.132328 0 63.944829-20.837106 74.747359-28.414236 1.023936-0.665559 2.047873-5.119682 3.174203-6.092422 89.645633-81.095764 218.968802-172.072514 282.452859-229.61774 19.198808-17.406919 82.785259-47.971421 82.785259 59.490705V817.917937c0.102394 107.513323-64.047223 73.26265-82.682865 54.934188z m182.516666-237.041279c10.239364-22.782585 31.127667-28.516629 46.435516-12.748009L916.42309 791.602771c15.359046 15.717424 18.99402 46.998681 8.601066 69.781267l-6.041225 12.901598c-10.239364 22.833782-31.230061 28.567826-46.53791 12.850402L710.099903 718.647302c-15.359046-15.768621-18.942824-46.998681-8.498672-69.781267l5.990028-13.055189z m46.077138-490.926314c-15.359046 15.717424-35.837774 10.239364-46.435516-12.748008l-5.836438-12.850402c-10.546545-22.884979-6.655587-54.063843 8.549869-69.832463l162.242725-168.539934c15.359046-15.666227 35.837774-10.239364 46.486713 12.799205l5.990028 12.799205c10.239364 22.884979 6.655587 54.115039-8.549869 69.781267z"  horiz-adv-x="1024" />

    
    <glyph glyph-name="zu" unicode="&#58949;" d="M609.353239 468.976201h-76.756824V895.424324H188.406022a40.681117 40.681117 0 0 1-38.378413-42.600038v-938.224249a40.681117 40.681117 0 0 1 38.378413-42.600037h690.811418a40.681117 40.681117 0 0 1 38.378412 42.600037V468.976201zM616.709101 549.187082h298.328191a165.219064 165.219064 0 0 1-58.527079 113.6001c-30.894622 35.627959-52.194641 60.382035-66.586545 76.756824l-0.95946 1.087389-22.771192 26.353176L765.233556 768.07196 698.647011 844.828784a113.28028 113.28028 0 0 1-81.873946 47.909051z"  horiz-adv-x="1024" />

    
    <glyph glyph-name="fenxiang" unicode="&#58915;" d="M460.074667 328.405333l132.565333-79.573333a149.333333 149.333333 0 1 0-36.394667-77.653333l-143.36 86.016a170.666667 170.666667 0 1 0 0 253.653333l143.36 85.973333a149.333333 149.333333 0 1 0 36.394667-77.653333l-132.565333-79.573333c5.973333-17.408 9.258667-36.138667 9.258666-55.594667 0-19.456-3.242667-38.186667-9.258666-55.594667zM704 554.666667a64 64 0 1 1 0 128 64 64 0 0 1 0-128z m0-469.333334a64 64 0 1 1 0 128 64 64 0 0 1 0-128zM298.666667 298.666667a85.333333 85.333333 0 1 1 0 170.666666 85.333333 85.333333 0 0 1 0-170.666666z"  horiz-adv-x="1024" />

    
    <glyph glyph-name="liebiao1" unicode="&#58893;" d="M400.896 415.232H160.768c-39.936 0-72.192 32.256-72.192 72.192V727.552c0 39.936 32.256 72.192 72.192 72.192h240.128c39.936 0 72.192-32.256 72.192-72.192v-240.128c-0.512-39.936-32.768-72.192-72.192-72.192z m-240.128 320c-4.096 0-8.192-3.584-8.192-8.192v-240.128c0-4.096 3.584-8.192 8.192-8.192h240.128c4.096 0 8.192 3.584 8.192 8.192V727.04c0 4.096-3.584 8.192-8.192 8.192H160.768z m702.464-320H623.104c-39.936 0-72.192 32.256-72.192 72.192V727.552c0 39.936 32.256 72.192 72.192 72.192h240.128c39.936 0 72.192-32.256 72.192-72.192v-240.128c-0.512-39.936-32.768-72.192-72.192-72.192z m-240.128 320c-4.096 0-8.192-3.584-8.192-8.192v-240.128c0-4.096 3.584-8.192 8.192-8.192h240.128c4.096 0 8.192 3.584 8.192 8.192V727.04c0 4.096-3.584 8.192-8.192 8.192H623.104zM400.896-33.28H160.768c-39.936 0-72.192 32.256-72.192 72.192V279.04c0 39.936 32.256 72.192 72.192 72.192h240.128c39.936 0 72.192-32.256 72.192-72.192v-240.128c-0.512-39.936-32.768-72.192-72.192-72.192z m-240.128 320c-4.096 0-8.192-3.584-8.192-8.192V38.4c0-4.096 3.584-8.192 8.192-8.192h240.128c4.096 0 8.192 3.584 8.192 8.192V278.528c0 4.096-3.584 8.192-8.192 8.192H160.768z m702.464-320H623.104c-39.936 0-72.192 32.256-72.192 72.192V279.04c0 39.936 32.256 72.192 72.192 72.192h240.128c39.936 0 72.192-32.256 72.192-72.192v-240.128c-0.512-39.936-32.768-72.192-72.192-72.192z m-240.128 320c-4.096 0-8.192-3.584-8.192-8.192V38.4c0-4.096 3.584-8.192 8.192-8.192h240.128c4.096 0 8.192 3.584 8.192 8.192V278.528c0 4.096-3.584 8.192-8.192 8.192H623.104z"  horiz-adv-x="1024" />

    
    <glyph glyph-name="leiji1" unicode="&#58938;" d="M20.152305 8.209266a20.479099 20.479099 0 0 0-20.152305 20.152305v30.500786a20.479099 20.479099 0 0 0 20.152305 20.152305H157.950499a13.453025 13.453025 0 0 0 12.527108-8.71451 426.520812 426.520812 0 0 1 18.518335-43.027895 13.561957 13.561957 0 0 0-11.982452-19.607648H20.152305zM648.141701-127.954957a377.937417 377.937417 0 0 0-273.962416 118.735203 371.07474 371.07474 0 0 0-100.761525 281.587613 375.37753 375.37753 0 0 0 350.214381 350.759038c8.169853 0.544657 16.339707 0.544657 24.50956 0.544657a377.937417 377.937417 0 0 0 273.962417-118.735202 371.07474 371.07474 0 0 0 100.761525-281.587614 375.813255 375.813255 0 0 0-350.214381-350.214381 184.584221 184.584221 0 0 0-24.509561-1.089314z m0 680.821115a306.206105 306.206105 0 0 1-222.220011-96.40427 305.007859 305.007859 0 0 1 202.612363-512.522135c6.535883-0.544657 13.071765-0.544657 20.152305-0.544657a306.206105 306.206105 0 0 1 222.220012 96.40427 305.007859 305.007859 0 0 1-202.612364 512.522135c-7.08054 0.544657-13.616422 0.544657-20.152305 0.544657z m-20.152305-340.410557a15.577187 15.577187 0 0 0-15.250393 15.250393V404.174827a15.577187 15.577187 0 0 0 15.250393 15.250393h40.30461a15.577187 15.577187 0 0 0 15.250393-15.250393v-106.752751a14.052148 14.052148 0 0 1 14.16108-14.161079h106.75275a15.577187 15.577187 0 0 0 15.250393-15.250393v-40.30461a15.577187 15.577187 0 0 0-15.250393-15.250393zM20.152305 280.537712a20.479099 20.479099 0 0 0-20.152305 20.152305v30.500786a20.479099 20.479099 0 0 0 20.152305 20.152305h113.288634a13.39856 13.39856 0 0 0 10.34848-4.901912 11.655657 11.655657 0 0 0 2.723285-10.893138 387.087653 387.087653 0 0 1-5.446569-43.027894 13.071765 13.071765 0 0 0-13.071765-11.982452zM20.152305 552.866158A20.479099 20.479099 0 0 0 0 573.018463v30.500786A20.479099 20.479099 0 0 0 20.152305 623.671554h251.086827a13.507491 13.507491 0 0 0 9.803824-22.875589 466.662025 466.662025 0 0 1-37.036668-43.027895 14.215545 14.215545 0 0 0-10.893138-5.446569H20.152305zM20.152305 825.194604A20.479099 20.479099 0 0 0 0 845.346909V875.847695A20.479099 20.479099 0 0 0 20.152305 896h983.650347a20.479099 20.479099 0 0 0 20.152305-20.152305v-30.500786a20.479099 20.479099 0 0 0-20.152305-20.152305z"  horiz-adv-x="1024" />

    
    <glyph glyph-name="hegeshuai1" unicode="&#58939;" d="M768.362516-33.513383l166.974442 170.014087a35.084725 35.084725 0 0 0 49.664721 0.412156 1.545583 1.545583 0 0 0 0.412156-0.412156 36.578788 36.578788 0 0 0 0-51.004226l-183.15154-186.345743a35.239284 35.239284 0 0 0-34.724089-9.170457 31.942041 31.942041 0 0 0-22.771584 9.376534l-75.424432 75.424432a32.075991 32.075991 0 1 0 45.33709 45.388609z m-218.545381-94.486617H148.532369A121.431274 121.431274 0 0 0 28.234523-5.589857V773.589857A121.431274 121.431274 0 0 0 148.532369 896h698.088147a121.379754 121.379754 0 0 0 120.503924-122.410143v-507.56933a35.342322 35.342322 0 0 0-34.930167-35.702958 35.393842 35.393842 0 0 0-35.084725 35.5484V773.589857a50.69511 50.69511 0 0 1-50.076877 51.004226H148.532369a50.69511 50.69511 0 0 1-50.128396-51.004226V-5.589857a50.746629 50.746629 0 0 1 50.128396-51.004226h401.284766a35.342322 35.342322 0 0 0 35.084725-35.59992 36.063594 36.063594 0 0 0-35.084725-35.805997z m76.557859 273.052928V404.350171a36.063594 36.063594 0 0 0 35.651439 35.084725 35.393842 35.393842 0 0 0 35.754477-34.930167v-258.318374a35.342322 35.342322 0 0 0-35.599919-35.084725 34.311934 34.311934 0 0 0-36.115114 32.714832v0.92735z m-384.798551-1.236466V604.915275a35.702958 35.702958 0 0 0 71.251358 0v-459.913866a35.342322 35.342322 0 0 0-35.599919-35.084726 33.590662 33.590662 0 0 0-35.651439 31.323808v2.524452z m202.728919 0V604.915275a35.754478 35.754478 0 0 0 71.457436 0v-459.913866a35.342322 35.342322 0 0 0-35.5484-35.084726 33.539143 33.539143 0 0 0-35.651439 31.323808v2.524452z"  horiz-adv-x="1024" />

    
    <glyph glyph-name="boshizhishiguanliicon1" unicode="&#58940;" d="M619.235482 120.521244a75.825286 75.825286 0 0 0-38.129287 10.336998L37.39247 449.014952a75.515795 75.515795 0 0 0 1.05227 130.976576L582.406057 886.263786a75.70149 75.70149 0 0 0 74.277831 0l543.713725-306.272258a75.577693 75.577693 0 0 0 1.114168-130.976576l-543.775623-318.15671a75.887184 75.887184 0 0 0-38.500676-10.336998z m0 723.837465a23.707008 23.707008 0 0 1-11.760657-3.094909L64.008693 535.05344a23.954601 23.954601 0 0 1-9.099034-32.620347A24.264092 24.264092 0 0 1 63.699202 493.643549l543.713725-318.15671a23.830804 23.830804 0 0 1 24.202193 0L1175.328845 493.643549a24.016499 24.016499 0 0 1-0.309491 41.533688L631.243731 841.325698a23.27372 23.27372 0 0 1-11.822555 3.094909zM619.235482-128a38.376879 38.376879 0 0 0-18.012374 4.580466l-288.816967 156.16914a37.819796 37.819796 0 0 0-19.86932 33.301228V323.299723a38.00549 38.00549 0 0 0 18.569458 32.372755l288.755069 174.181514a37.634101 37.634101 0 0 0 39.119657 0l289.06456-174.181514a38.067389 38.067389 0 0 0 18.569458-32.372755v-257.125092a37.943592 37.943592 0 0 0-19.807422-33.363126L637.80494-123.357636a38.748269 38.748269 0 0 0-18.136171-4.642364zM619.235482 475.074092a37.881694 37.881694 0 0 1-19.497931-5.385143L362.41988 326.518429a38.067389 38.067389 0 0 1-18.13617-32.372755v-197.455234a37.757898 37.757898 0 0 1 19.807422-33.23933l237.565263-128.43875a37.819796 37.819796 0 0 1 35.96285 0l237.503366 128.43875a37.695999 37.695999 0 0 1 19.869319 33.23933V294.207572a38.067389 38.067389 0 0 1-18.569457 32.372755l-237.68906 143.17052A38.129287 38.129287 0 0 1 619.235482 475.074092zM645.294621 858.471497v-366.80869h-51.561195V858.471497z m0-707.805833v-247.592771h-51.561195v247.592771z"  horiz-adv-x="1238" />

    


  </font>
</defs>
</svg>
