<?xml version="1.0" standalone="no"?>
<!DOCTYPE svg PUBLIC "-//W3C//DTD SVG 1.1//EN" "http://www.w3.org/Graphics/SVG/1.1/DTD/svg11.dtd" >
<!--
2013-9-30: Created.
-->
<svg>
<metadata>
Created by iconfont
</metadata>
<defs>

<font id="iconfont" horiz-adv-x="1024" >
  <font-face
    font-family="iconfont"
    font-weight="500"
    font-stretch="normal"
    units-per-em="1024"
    ascent="896"
    descent="-128"
  />
    <missing-glyph />
    
    <glyph glyph-name="shoucang" unicode="&#58895;" d="M327.728136 91.698724l150.60509 60.966537 33.721009 13.627369 33.721009-13.627369 150.609183-60.914348-4.484128 166.562527-0.907673 32.985252 20.663622 25.711592 96.563266 120.353089L652.842749 484.425224l-30.030967 9.081843-17.825994 25.716708-92.931552 134.033669-92.871177-134.033669-17.825994-25.716708-30.033014-9.081843-155.490354-47.120181 96.566336-120.29476 20.663622-25.711592-0.907673-32.985252L327.728136 91.698724M789.940197-43.129031 512.054235 69.272969 234.17339-43.129031l8.115841 303.886125L62.389956 484.824313l282.879696 85.667102L512.054235 811.130054l166.843936-240.638639 282.711873-85.667102L781.766027 260.756071 789.940197-43.129031 789.940197-43.129031 789.940197-43.129031z"  horiz-adv-x="1024" />

    
    <glyph glyph-name="xiaochengxu" unicode="&#58880;" d="M606.811539 806.678109c-164.582012-81.194279-158.250279-262.524509-130.090278-429.522618 34.008436-201.320339 7.266521-303.571782-91.101479-352.098909-102.188218-50.414158-226.584436-8.474764-277.154909 94.033066-50.569309 102.504339-8.472048 226.582885 94.035006 277.15297 17.507297 8.638061 24.766061 30.029964 16.129163 47.5392-8.638061 17.508073-30.032679 24.768388-47.539587 16.130327-137.207079-67.687952-194.137212-234.708558-126.291782-372.231757 67.846594-137.525915 234.708945-194.141479 372.233309-126.295661 164.264339 81.039903 157.9264 261.573818 129.922327 427.462594-34.162812 202.430061-7.579539 305.002279 91.423806 353.843588 102.189382 50.414545 226.583661 8.472436 277.156073-94.035006 50.570085-102.507055 8.472048-226.583661-94.033455-277.153358-17.510012-8.638061-24.766448-30.031127-16.129939-47.5392 8.638448-17.508848 30.031515-24.768776 47.539588-16.130715 137.205139 67.690279 194.1376 234.711273 126.293333 372.234473-67.846982 137.5232-234.864097 194.457988-372.391176 126.611006z"  horiz-adv-x="1024" />

    
    <glyph glyph-name="zhaobiaojieshu" unicode="&#58953;" d="M835.5 80.5v607c0 11-9 20-20 20h-607c-11 0-20-9-20-20v-607c0-11 9-20 20-20h607c11 0 20 9 20 20z"  horiz-adv-x="1024" />

    
    <glyph glyph-name="yichu" unicode="&#58918;" d="M858.77161 407.2448l0-71.68-696.32 0 0 71.68 696.32 0ZM3.42441 437.8624A513.536 513.536 0 0 0 486.85481 895.3856a530.3296 530.3296 0 0 0 63.8976-0.8192A36.0448 36.0448 0 0 0 584.33961 858.8288a35.6352 35.6352 0 0 0-37.9904-35.7376C535.18761 824.32 524.02601 824.32 512.65961 824.32a440.32 440.32 0 1 1 439.0912-473.9072A35.9424 35.9424 0 0 0 987.38601 384a36.0448 36.0448 0 0 0 35.84-38.912A512 512 0 1 0 3.42441 437.8624zM804.70441 759.808m-35.84 0a35.84 35.84 0 1 1 71.68 0 35.84 35.84 0 1 1-71.68 0ZM943.14921 586.8544m-35.84 0a35.84 35.84 0 1 1 71.68 0 35.84 35.84 0 1 1-71.68 0Z"  horiz-adv-x="1024" />

    
    <glyph glyph-name="kaishi" unicode="&#58919;" d="M256 0V768l512-384z"  horiz-adv-x="1024" />

    
    <glyph glyph-name="zhongzhi" unicode="&#58920;" d="M505.85907-25.65117399999997c-12.281859 0-25.587206 0.511744-41.963018 2.046976-2.558721 0.511744-5.629185 0.511744-8.187906 1.535232-2.558721 0.511744-5.117441 0.511744-7.164418 1.023489-5.117441 0.511744-10.746627 1.023488-16.375812 2.046976-2.046977 0.511744-4.093953 1.023488-6.652674 1.535233-5.117441 1.023488-10.234883 2.046977-14.840579 3.582209l-1.535233 0.511744c-9.723138 2.046977-17.3993 4.093953-24.563718 6.140929l-2.55872 1.023488c-3.582209 1.023488-7.164418 2.046977-10.234883 3.582209l-4.605697 1.535233c-7.676162 2.558721-15.352324 5.629185-22.516742 8.69965-1.535232 0.511744-2.558721 1.023488-4.093953 2.046976-1.023488 0.511744-2.558721 1.023488-3.582209 1.535233-10.234883 4.605697-19.958021 9.211394-30.192903 14.84058-0.511744 0.511744-1.023488 0.511744-1.535233 1.023488-0.511744 0-0.511744 0.511744-1.023488 0.511744-34.798601 19.446277-66.526737 43.498251-94.160919 71.644178l-2.558721 2.55872c-8.187906 8.187906-16.375812 17.3993-24.051974 26.610695l-1.535233 2.046977c-1.535232 2.046977-2.558721 3.582209-4.093953 5.629185-1.535232 2.046977-3.070465 3.582209-4.605697 5.629185-3.582209 4.605697-7.164418 9.211394-10.746626 14.328836-0.511744 1.023488-1.023488 1.535232-1.535233 2.558721v0.511744C112.83958 229.70914500000003 87.252374 313.12343799999996 87.252374 399.096452v4.093953H19.190405c-5.629185 0-9.211394 6.652674-6.14093 11.258371l114.630685 175.016491c3.070465 4.605697 10.234883 4.093953 12.793603-0.511744l86.996502-172.457771c2.558721-4.605697-1.023488-10.746627-6.652674-10.746627H149.685157v-3.070464c0-80.855572 27.122439-160.175912 77.273364-223.632184 1.535232-2.046977 2.558721-3.582209 4.093953-5.117442 6.14093-7.676162 12.793603-15.352324 20.981509-23.540229l0.511744-0.511745 0.511744-0.511744c23.54023-24.051974 50.662669-45.033483 80.343828-61.409295 0 0 0.511744 0 0.511744-0.511744l0.511745-0.511744 26.610694-13.305348c1.535232-0.511744 3.070465-1.023488 4.605697-2.046976l0.511745-0.511744c7.164418-3.070465 14.84058-6.14093 24.051974-8.69965 2.046977-1.023488 4.093953-1.535232 6.140929-2.558721l3.070465-1.023488c7.164418-2.046977 14.84058-4.093953 21.493253-5.629186 1.535232-0.511744 2.558721-0.511744 4.093953-1.023488 3.070465-1.023488 6.14093-1.535232 9.211395-2.046976 6.14093-1.535232 12.793603-2.046977 19.446276-3.070465l2.558721-0.511744h1.023488l10.746627-1.535233c9.211394-0.511744 18.934533-1.535232 28.657671-1.535232h4.605697c71.132434 0 139.706147 21.493253 198.044978 62.432783l3.582209 2.558721c10.234883 7.164418 21.493253 11.258371 32.751624 11.258371 10.746627 0 20.981509-4.093953 26.610695-10.234883 7.164418-8.187906 11.258371-30.704648-7.164418-48.103948-66.526737-63.968016-172.969515-86.996502-249.219391-86.996501z m286.064968 379.714143c-2.558721 4.605697 1.023488 10.746627 6.652674 10.746626h71.132433v3.070465c0 82.390805-28.145927 163.246377-79.832084 227.726137 0 0 0 0.511744-0.511744 0.511744-35.822089 44.009995-81.367316 79.32034-133.053473 101.837081-0.511744 0-0.511744 0.511744-1.023488 0.511745-0.511744 0.511744-1.023488 0.511744-2.046977 1.023488-8.69965 4.093953-17.911044 7.164418-26.09895 9.723138-2.046977 1.023488-4.605697 2.046977-7.164418 2.558721-8.187906 2.558721-16.375812 4.605697-23.54023 6.140929-1.535232 0.511744-3.070465 0.511744-4.605697 1.023489l-6.14093 1.535232c-8.187906 1.535232-16.375812 3.070465-25.075462 4.093953-3.070465 0.511744-6.14093 1.023488-9.211394 1.023488-9.723138 1.023488-19.958021 1.535232-30.704648 1.535233h-3.070465c-75.738131 0-145.335332-22.516742-201.115442-64.991504-5.117441-4.093953-11.258371-6.14093-17.911044-6.14093-12.281859 0-23.54023 7.164418-27.634183 11.770115-5.629185 6.14093-8.187906 14.84058-7.164418 23.028486 1.023488 9.723138 6.652674 18.422789 16.375812 25.075462 70.108946 50.150925 152.49975 76.761619 238.472764 76.761619h7.164417c12.793603 0 23.028486-0.511744 33.263369-1.535232 3.070465-0.511744 5.629185-0.511744 8.69965-1.023488l5.117441-0.511745c2.558721-0.511744 4.605697-0.511744 7.164418-1.023488l12.281859-1.535232c1.023488 0 2.046977-0.511744 3.070465-0.511744 1.535232-0.511744 2.558721-0.511744 4.093953-1.023489 3.582209-0.511744 7.164418-1.535232 10.234882-2.55872l4.093953-1.023489c8.69965-2.046977 17.3993-4.093953 26.098951-7.164417 2.046977-0.511744 4.093953-1.535232 6.14093-2.046977l4.605697-1.535232c10.234883-3.582209 19.958021-7.164418 29.681159-11.258371 1.023488-0.511744 1.535232-0.511744 2.558721-1.023488l3.070464-1.535233c60.385807-26.610695 114.118941-68.061969 156.08196-119.236381 0.511744-1.023488 1.023488-2.046977 2.046976-3.070465l1.535232-2.046977c5.629185-7.676162 11.258371-14.84058 16.887557-22.516741 0 0 0-0.511744 0.511744-1.023489 0.511744-1.023488 0.511744-1.535232 1.023488-2.55872 48.103948-71.132434 73.691154-154.546727 73.691154-240.51974v-3.070465h68.061969c5.629185 0 9.211394-6.652674 6.14093-11.258371l-114.630685-175.528236c-3.070465-4.605697-9.723138-4.093953-12.281859 0.511744l-93.137431 177.063469z"  horiz-adv-x="1271" />

    
    <glyph glyph-name="global" unicode="&#58965;" d="M512-128C229.376-128 0 101.376 0 384S229.376 896 512 896s512-229.376 512-512c-0.512-282.624-229.376-511.488-512-512z m0 955.904c-245.248 0-443.904-198.656-443.904-443.904s198.656-443.904 443.904-443.904 443.904 198.656 443.904 443.904c-0.512 244.736-199.168 443.392-443.904 443.904zM0 418.304h955.904v-68.096H0V418.304zM546.304 896v-955.904H477.696V896h68.608zM99.328 687.104c13.312 18.432 28.16 35.328 43.52 51.712 222.208-154.112 516.608-154.112 738.816 0 15.872-16.384 30.208-33.792 43.52-51.712-247.296-176.64-579.072-176.64-825.856 0zM512 144.896c-132.608 2.56-262.144-38.4-369.152-115.712-15.36 16.384-30.208 33.792-43.52 51.712 246.784 176.128 578.56 176.128 825.344 0-13.312-18.432-27.648-35.328-43.52-51.712-107.008 77.824-236.544 118.272-369.152 115.712zM433.152-121.856c179.712 37.888 317.44 250.368 317.44 505.856s-138.24 467.968-317.952 505.856a522.24 522.24 0 0 0 159.744 0c279.04-249.856 303.104-678.4 53.76-957.44-16.896-18.944-34.816-36.864-53.76-53.76-52.224-8.192-105.984-8.704-159.232-0.512zM431.104-121.344C151.552 128 128 557.056 377.344 836.096 394.24 855.04 412.16 872.96 431.104 889.344c52.736 8.192 107.008 8.704 159.744 0.512C411.136 851.968 272.896 639.488 272.896 384s137.728-467.968 317.44-505.856c-52.736-8.192-106.496-8.192-159.232 0.512zM1024 384v15.36-15.36z"  horiz-adv-x="1024" />

    
    <glyph glyph-name="qiyeziyuan" unicode="&#58966;" d="M989.864 8.936h-34.129V486.8c0 75.093-61.443 136.531-136.537 136.531H614.401v68.272c0 75.093-61.443 136.531-136.537 136.531H204.803c-75.095 0-136.537-61.437-136.537-136.531v-682.667h-34.13C15.021 8.936 0-6.085 0-25.2c0-19.115 15.021-34.136 34.136-34.136h955.728c19.115 0 34.136 15.021 34.136 34.136 0 19.115-15.021 34.136-34.136 34.136zM546.136 623.331v-614.395H136.531V691.603c0 37.547 30.724 68.265 68.272 68.265h273.061c37.548 0 68.272-30.719 68.272-68.265v-68.272z m341.333-614.395H614.401V555.065h204.796c37.548 0 68.272-30.719 68.272-68.265v-477.864zM443.735 623.331H238.932c-19.115 0-34.129-15.015-34.129-34.129 0-19.115 15.015-34.136 34.129-34.136h204.803c19.115 0 34.129 15.021 34.129 34.136 0 19.114-15.015 34.129-34.129 34.129z m0-204.796H238.932c-19.115 0-34.129-15.021-34.129-34.136 0-19.115 15.015-34.129 34.129-34.129h204.803c19.115 0 34.129 15.015 34.129 34.129 0 19.114-15.015 34.136-34.129 34.136z m0-204.803H238.932c-19.115 0-34.129-15.016-34.129-34.129 0-19.115 15.015-34.136 34.129-34.136h204.803c19.115 0 34.129 15.021 34.129 34.136 0 19.113-15.015 34.129-34.129 34.129z m341.333 204.803h-68.265c-19.115 0-34.136-15.021-34.136-34.136 0-19.115 15.021-34.129 34.136-34.129h68.265c19.115 0 34.129 15.015 34.129 34.129 0 19.114-15.014 34.136-34.129 34.136z m0-204.803h-68.265c-19.115 0-34.136-15.016-34.136-34.129 0-19.115 15.021-34.136 34.136-34.136h68.265c19.115 0 34.129 15.021 34.129 34.136 0 19.113-15.014 34.129-34.129 34.129z m0 0"  horiz-adv-x="1024" />

    
    <glyph glyph-name="shujuzonglan" unicode="&#58967;" d="M107.722-92.69c-56.292 0-102.349 46.057-102.349 102.35V482.51c0 56.293 46.057 102.35 102.35 102.35h183.204V746.059c0 56.292 45.033 100.302 102.348 100.302h237.45c57.315 0 102.348-44.01 102.348-100.302v-303.464h183.205c56.292 0 102.349-46.057 102.349-102.35v-331.098c0-56.291-46.057-102.348-102.35-102.348H107.723z m807.02 60.898c22.006 0 40.428 18.423 40.428 40.428V339.734c0 22.517-17.91 40.428-40.427 40.428H732.05v-411.954h182.693z m-244.101 0V746.059c0 21.493-17.911 38.38-40.428 38.38h-237.45c-22.516 0-40.427-16.887-40.427-38.38v-777.851H670.64z m-562.919 554.73c-22.005 0-40.428-18.422-40.428-40.427v-473.875c0-22.005 18.423-40.428 40.428-40.428h183.205v554.73H107.722z"  horiz-adv-x="1024" />

    
    <glyph glyph-name="mima" unicode="&#58969;" d="M159.744-128C97.28-128 46.08-76.8 46.08-13.824v460.8c0 62.976 51.2 113.664 113.664 113.664h704c62.976 0 113.664-51.2 113.664-113.664v-461.312c0-62.976-51.2-113.664-113.664-113.664H159.744z m0 621.568c-25.6 0-46.08-20.48-46.08-46.08v-461.312c0-25.6 20.48-46.08 46.08-46.08h704c25.6 0 46.08 20.992 46.08 46.08v460.8c0 25.6-20.48 46.08-46.08 46.08H159.744zM753.152 523.776V587.264c0 64.512-25.088 124.928-70.656 170.496-45.568 45.568-105.984 70.656-170.496 70.656-133.12 0-241.152-108.032-241.152-241.152v-62.976H203.264V587.264c0 82.432 32.256 159.744 90.624 218.112C351.744 863.744 429.568 896 512 896c170.496 0 308.736-138.24 308.736-308.736v-63.488h-67.584zM509.952 375.296h3.584c47.616 0 71.68-24.064 71.68-71.68v-3.584c0-47.616-24.064-71.68-71.68-71.68h-3.584c-47.616 0-71.68 24.064-71.68 71.68v3.584c0.512 48.128 24.064 71.68 71.68 71.68zM510.976 328.192h1.536c22.016 0 33.28-9.216 33.28-28.16v-204.288c0-18.944-11.264-28.16-33.28-28.16h-1.536c-22.016 0-33.28 9.216-33.28 28.16v204.288c0 18.944 11.264 28.16 33.28 28.16z"  horiz-adv-x="1024" />

    
    <glyph glyph-name="yonghuming" unicode="&#58970;" d="M509.952 313.344c59.392 0 117.248-11.776 171.52-34.816 52.224-22.016 99.84-53.76 139.776-94.72 40.448-40.448 72.192-87.552 94.72-139.776 14.336-33.28 24.064-68.096 29.184-103.424h-870.4c5.632 35.328 15.36 70.144 29.184 103.424 22.016 52.224 53.76 99.84 94.72 139.776 40.448 40.448 87.552 72.192 139.776 94.72 54.272 23.04 112.128 34.816 171.52 34.816m0 68.096C228.864 381.44 1.024 153.6 1.024-127.488H1018.88c0 281.088-227.84 508.928-508.928 508.928zM509.952 822.272c57.856 0 111.616-22.528 152.576-62.976 40.96-40.96 62.976-94.72 62.976-152.576s-22.528-111.616-62.976-152.576c-40.96-40.96-94.72-62.976-152.576-62.976s-111.616 22.528-152.576 62.976c-40.96 40.96-62.976 94.72-62.976 152.576s22.528 111.616 62.976 152.576c40.96 40.448 95.232 62.976 152.576 62.976m0 68.096C353.28 890.368 226.304 763.392 226.304 606.208S353.28 322.56 509.952 322.56 793.6 449.536 793.6 606.208 667.136 890.368 509.952 890.368z"  horiz-adv-x="1024" />

    
    <glyph glyph-name="sousuo" unicode="&#58971;" d="M998.912-46.08l-182.272 181.76c29.184 35.328 53.76 75.264 71.68 117.76 22.016 53.76 34.816 113.664 34.816 175.104 0 61.44-11.776 119.808-33.792 173.568l-1.024 2.56c-22.528 55.296-56.32 104.448-97.28 146.432l-2.048 2.56c-41.984 41.984-93.184 76.8-148.48 99.84h-0.512c-53.76 22.528-113.664 33.792-175.104 33.792-126.976 0-241.664-50.688-324.608-134.144C97.28 711.68 62.976 660.992 39.936 604.16 17.408 550.4 5.12 491.008 5.12 428.544c0-60.928 12.288-119.296 33.792-173.056l1.024-2.56c23.04-55.808 57.344-106.496 99.328-148.992h0.512c41.984-42.496 92.672-75.776 148.992-99.84 53.76-22.016 113.152-34.816 175.104-34.816 62.464 0 121.344 12.288 175.616 34.816 42.496 18.432 81.92 41.984 117.248 71.168l182.272-181.76c16.384-16.384 43.008-16.384 59.392 0.512 16.896 16.896 16.896 43.52 0.512 59.904z m-269.824 209.92l-0.512-0.512c-34.304-33.28-75.776-61.44-120.832-80.384-44.032-18.432-93.184-28.672-143.36-28.672-50.688 0-99.328 10.752-143.36 28.672-45.568 18.944-86.528 47.104-121.856 80.896-34.304 34.816-62.464 76.288-80.896 121.856l-1.024 2.048c-17.92 43.008-27.648 90.624-27.648 140.8 0 51.2 10.24 99.84 28.672 143.36 18.432 45.568 46.08 86.528 80.896 121.856C266.752 761.856 360.96 803.84 464.384 803.84c50.688 0 99.328-10.24 143.36-28.16 45.568-18.944 86.528-47.104 121.344-81.408l2.048-2.048c33.792-34.304 60.928-74.24 79.36-119.808l1.024-1.536c17.408-43.52 27.136-91.648 27.136-141.824s-9.728-98.816-28.16-142.848c-18.432-46.08-46.592-87.552-81.408-122.368z"  horiz-adv-x="1024" />

    
    <glyph glyph-name="xitongshezhi" unicode="&#58972;" d="M512.512 204.8c-101.376 0-183.808 82.432-183.808 183.808s82.432 183.808 183.808 183.808S696.32 489.984 696.32 388.608c0-101.376-81.92-183.808-183.808-183.808z m0 302.08c-65.536 0-118.784-52.736-119.296-118.272-0.512-65.536 52.736-118.784 118.272-119.296s118.784 52.736 119.296 118.272v1.024c0 65.024-52.736 118.272-118.272 118.272zM368.64-97.792c-13.312 0-26.112 3.072-37.376 10.24l-140.8 80.896c-35.328 20.48-47.616 66.048-27.136 101.888v4.608c15.872 26.624 15.872 60.416 0 87.04-14.848 28.16-44.032 46.08-75.776 46.08h-3.584c-40.96 0-74.752 33.28-74.752 74.752V470.016c0.512 41.984 35.328 75.264 76.8 74.752h1.536c31.744-0.512 60.928 16.896 75.776 45.056 16.384 25.6 17.408 58.368 3.072 85.504v5.12c-20.992 35.328-8.704 81.408 26.624 101.888 0 0 0.512 0 0.512 0.512l137.728 81.92c35.84 20.48 81.408 8.704 101.888-27.136 0-0.512 0.512-0.512 0.512-1.024v-4.608c15.872-26.624 44.544-42.496 75.264-41.472 31.232-1.024 60.928 14.848 77.312 41.472l7.168 5.632c20.48 34.816 65.536 46.592 100.352 26.624L834.048 783.36c16.896-10.24 29.696-26.112 34.816-45.568 5.12-19.456 2.56-39.424-7.68-56.832v-4.608c-15.872-26.624-15.872-60.416 0-87.04 14.336-27.648 42.496-45.056 73.728-45.568h5.632c40.96 0 74.752-33.28 74.752-74.752V307.2c-0.512-41.472-34.304-74.752-75.776-74.752h-5.632c-50.688-1.536-90.112-44.032-88.576-94.72v-0.512c0.512-12.8 4.096-25.6 10.24-36.864v-5.12c20.48-35.328 8.704-80.384-26.112-101.376-0.512 0-0.512-0.512-1.024-0.512l-140.8-81.408c-34.304-15.872-74.752-3.584-94.72 27.648v4.096c-26.624 41.984-82.944 54.272-124.928 27.648-11.264-7.168-20.48-16.384-27.648-27.648v-5.12c-12.8-22.528-36.864-36.864-62.976-37.376l-8.704 1.024z m-148.48 315.904c27.136-47.104 27.136-104.96 0-152.064v-4.608c-2.56-4.608-0.512-10.752 3.584-13.312l140.8-80.896c2.048-1.024 4.608-1.024 7.168 0 2.048 0.512 4.096 2.048 5.632 3.584v5.632c46.08 73.728 143.36 95.744 216.576 49.664 19.968-12.8 37.376-29.696 49.664-49.664v-4.608c2.048-4.608 7.168-6.656 11.264-5.12 0.512 0 1.024 0.512 1.024 0.512l140.288 81.408c4.608 2.56 6.144 8.192 3.584 12.8v5.12c-40.96 75.776-12.8 170.496 62.976 211.456 21.504 11.264 45.056 17.92 69.632 18.944h5.12c5.12-0.512 9.728 3.072 10.752 8.192V470.016c-0.512 5.12-4.608 8.704-9.728 8.704h-5.632c-54.272 1.024-103.936 30.72-130.56 77.824-27.136 47.104-27.136 104.96 0 152.064v5.12c1.024 2.048 1.024 4.608 0 7.168-0.512 2.56-2.048 4.608-4.608 5.632l-141.312 81.92c-4.608 2.048-9.728 1.024-12.8-3.072l0.512-4.608C599.04 727.552 503.296 705.024 430.08 750.08c-20.48 12.8-37.888 30.208-50.688 50.688h-2.56c-2.048 4.608-7.68 6.656-12.8 5.12L224.256 727.04c-3.072-3.584-3.072-9.216 0-12.8v-5.12c27.136-47.104 27.136-104.96 0-152.064-26.624-48.128-77.312-78.336-132.608-78.848h-3.584c-5.12 0.512-9.728-3.072-10.752-8.192V307.2c0.512-5.12 4.608-8.704 9.728-8.704h1.024c54.784-0.512 105.472-30.72 132.608-78.336v-2.048z"  horiz-adv-x="1024" />

    
    <glyph glyph-name="yonghuzhongxin" unicode="&#58974;" d="M907.776-103.424c-21.504 0-38.912 17.408-38.912 38.912v6.144h-1.536c-23.04 172.032-165.888 303.616-339.456 312.832h-0.512c-6.656-0.512-12.288-0.512-18.944-0.512-6.656 0-12.8 0-18.944 0.512h-0.512c-173.568-9.216-315.904-140.8-339.456-312.832h-1.536v-6.144c0-21.504-17.408-38.912-38.912-38.912s-38.912 17.408-38.912 38.912v1.024l-0.512 3.584c0 3.584 1.024 8.192 2.048 12.288v0.512c20.992 152.064 121.344 283.648 262.144 344.064l9.728 4.096-8.704 6.144C250.88 364.544 200.704 459.264 200.704 560.64c0 169.472 137.728 307.2 306.688 307.2 169.472 0 307.2-137.728 307.2-307.2 0-101.376-50.176-196.096-133.632-253.44l-8.704-6.144 9.728-4.096c142.336-60.928 243.712-194.56 263.168-348.672 0.512-3.072 1.024-5.632 1.024-8.704 0-0.512 0-1.536 0.512-2.56v-2.048c0-20.992-17.408-38.4-38.912-38.4zM507.392 789.504c-126.464 0-228.864-102.912-228.864-228.864 0-126.464 102.912-228.864 228.864-228.864 61.44 0 119.296 24.064 162.816 67.584 43.008 43.008 66.56 100.864 66.56 161.792-0.512 125.952-102.912 228.352-229.376 228.352z"  horiz-adv-x="1024" />

    
    <glyph glyph-name="shuju" unicode="&#58973;" d="M781.312-100.352c-27.648 0-50.176 22.528-50.176 50.176V808.448c0 27.648 22.528 50.176 50.176 50.176h175.104c27.648 0 50.176-22.528 50.176-50.176v-858.624c0-27.648-22.528-50.176-50.176-50.176h-175.104zM850.432 798.72c-32.768 0-58.88-26.624-58.88-59.392v-720.896c0-32.256 26.624-58.88 58.88-58.88h37.376c32.768 0 58.88 26.624 58.88 59.392V739.328c0 32.768-26.624 59.392-58.88 59.392h-37.376zM424.96-100.352c-27.648 0-50.176 22.528-50.176 50.176V412.16c0 27.648 22.528 50.176 50.176 50.176h175.104c27.648 0 50.176-22.528 50.176-50.176v-462.336c-0.512-28.16-22.528-50.176-50.176-50.176H424.96z m68.608 502.784c-32.768 0-59.392-26.624-59.392-59.392v-324.608c0.512-32.256 27.136-58.88 59.392-58.88h37.376c32.768 0 59.392 26.624 59.392 59.392V343.04c0 32.768-26.624 59.392-59.392 59.392h-37.376z m-425.472-502.784c-27.648 0-50.176 22.528-50.176 50.176V627.2c0 27.648 22.528 50.176 50.176 50.176h175.104c27.648 0 50.176-22.528 50.176-50.176v-677.888c0-27.648-22.528-49.664-50.176-49.664H68.096zM136.704 617.984c-32.768 0-59.392-26.624-59.392-59.392v-539.648c0.512-32.768 27.136-59.392 59.904-59.392H174.08c32.768 0 59.392 26.624 59.392 59.392V558.592c0 32.768-26.624 59.392-59.392 59.392h-37.376z"  horiz-adv-x="1024" />

    
    <glyph glyph-name="caozuorizhi" unicode="&#58975;" d="M157.696-123.392c-36.864 0-67.072 30.208-67.072 67.072V716.8c0 36.864 30.208 67.072 66.56 67.072h102.912V858.112c0 17.92 14.848 32.768 32.768 32.768s32.768-14.848 32.768-32.768V783.36h367.104V858.112c0 17.92 14.848 32.768 32.768 32.768s32.768-14.848 32.768-32.768V783.36h107.52c17.92 0 34.816-7.168 47.104-19.456 12.8-12.8 19.456-29.184 19.456-47.104v-773.12c0-36.864-30.208-67.072-67.072-67.072H157.696z m0 841.728c-1.024 0-1.536-1.024-1.536-1.536v-773.12c0-1.024 0.512-1.536 1.536-1.536H865.28c1.024 0 1.536 0.512 1.536 1.536V716.8c0 1.024-0.512 1.536-1.536 1.536h-107.52v-72.704c-1.024-16.896-14.336-30.208-30.72-31.232h-1.536c-17.408 0-31.744 13.824-32.768 31.232V718.336H325.632v-72.704c-1.024-16.896-14.336-30.208-30.72-31.232h-1.536c-17.408 0-31.744 13.824-32.768 31.232V718.336H157.696zM292.864 73.728c-17.92 0-32.256 14.848-32.256 32.256 0 8.704 3.584 16.896 9.728 23.04 6.144 6.144 14.336 9.728 23.04 9.728h428.032c16.896-1.024 30.208-14.336 30.72-30.72 0.512-8.704-2.56-16.896-8.192-23.552-5.632-6.656-13.824-10.24-22.528-10.752H292.864z m427.52 162.304H292.864c-17.92 0-32.768 14.848-32.768 32.768s14.848 32.768 32.768 32.768h430.592c8.704-0.512 16.896-4.096 22.528-10.752 5.632-6.656 8.704-14.848 8.192-23.552-1.024-17.408-15.36-31.232-32.768-31.232h-1.024z m0 162.304H292.864c-17.92 0-32.768 14.848-32.768 32.768 0 17.92 14.848 32.768 32.768 32.768h430.592c17.92-1.024 31.744-16.384 30.72-34.304-1.024-17.408-15.36-31.232-32.768-31.232h-1.024z"  horiz-adv-x="1024" />

    
    <glyph glyph-name="zaixianketang" unicode="&#58976;" d="M433.703148 299.818091c-21.493253 0-43.498251 16.375812-43.49825 43.498251V607.888056c0 27.122439 22.004998 43.498251 43.49825 43.498251 8.187906 0 16.375812-2.558721 24.563719-8.187906l187.29835-132.541729c11.770115-8.69965 18.934533-22.516742 18.934533-35.310345 0-15.352324-7.164418-28.145927-18.934533-35.822089L458.778611 307.494253c-8.69965-5.117441-16.887556-7.676162-25.075463-7.676162z m21.493254 273.271364c-2.046977 0-5.117441-1.535232-5.117441-3.582209v-186.786606c0-2.558721 0.511744-6.14093 4.093953-6.14093 1.023488 0 2.046977 0.511744 3.070464 1.023488L588.761619 472.787606c1.535232 1.023488 2.046977 2.046977 2.046977 3.582209 0 1.023488-0.511744 2.558721-2.046977 3.070465L457.243378 572.577711c-0.511744 0-1.535232 0.511744-2.046976 0.511744zM112.327836-17.463268C49.383308-17.463268 0.255872 32.175912 0.255872 94.608696v568.035982c0 61.409295 49.127436 109.513243 112.071964 109.513243H906.042979c61.409295 0 112.071964-48.103948 114.11894-109.513243v-568.035982c0-61.921039-50.150925-112.071964-112.071964-112.071964H112.327836z m0 729.747126c-28.657671 0-52.197901-22.516742-52.197901-49.63918V92.561719c0-27.634183 23.54023-49.63918 52.197901-49.63918H906.042979c27.634183 0 52.197901 24.563718 52.197901 52.197901v568.035982c0 27.634183-23.54023 49.63918-52.197901 49.63918H112.327836zM648.123938 94.608696c-31.216392 0-57.315342 22.516742-68.573713 45.545227H192.15992c-17.3993 0-29.681159 12.281859-29.681159 29.681159s12.281859 29.681159 29.681159 29.68116h387.390305c11.258371 23.54023 37.357321 45.545227 68.573713 45.545227s57.315342-22.516742 68.573713-45.545227h97.743129c14.328836 0 29.681159-11.258371 29.681159-29.68116 0-17.3993-12.281859-29.681159-29.681159-29.681159H716.697651c-11.258371-23.54023-37.357321-45.545227-68.573713-45.545227z m0 91.090454c-9.723138 0-15.864068-5.629185-15.864068-15.864068s5.629185-15.864068 15.864068-15.864068 15.864068 5.629185 15.864068 15.864068-6.14093 15.864068-15.864068 15.864068z"  horiz-adv-x="1024" />

    
    <glyph glyph-name="gongzuotai" unicode="&#58977;" d="M82.432 91.648c-36.352 0-66.048 29.696-66.048 66.048V730.624c0 36.352 29.696 66.048 66.048 66.048h861.696c36.352 0 66.048-29.696 66.048-66.048v-572.928c0-36.352-29.696-66.048-66.048-66.048H82.432z m0 62.976h848.896c15.872 0 15.872 0 15.872 3.072V730.624l-3.072-3.072v5.632H95.744c-16.384 0-16.384 0-16.384-3.072v-572.928l3.072 3.072v-5.632zM192.512-53.76c-17.408 0-31.744 14.336-31.744 31.744v1.536c0 17.408 14.336 31.744 31.744 31.744H834.56c17.408 0 31.744-14.336 31.744-31.744v-1.536c0-17.408-14.336-31.744-31.744-31.744H192.512zM481.28 5.632l1.536 85.504h61.44v-85.504z"  horiz-adv-x="1024" />

    
    <glyph glyph-name="pingceguanli" unicode="&#58978;" d="M508.928-115.2c-15.36 0-30.208 2.56-44.032 7.168-139.264 47.616-198.656 88.576-208.896 96.256-164.864 112.64-168.448 262.144-168.448 268.288V689.664c0 39.424 31.744 72.192 70.656 73.728C261.12 766.976 423.424 849.408 471.04 874.496c11.264 6.144 24.576 9.216 37.888 9.216 13.824 0 26.624-3.072 38.4-9.216 47.104-25.088 208.896-107.52 312.832-111.104 38.912-1.536 70.656-34.304 70.656-73.728v-432.64c0-6.144-3.072-155.648-168.448-268.8-10.24-7.68-68.608-48.128-209.408-96.256-13.824-4.608-28.672-7.168-44.032-7.168z m-222.72 163.328l8.704-6.144c5.632-4.096 57.856-40.96 191.488-87.04 7.168-2.56 14.848-3.584 22.528-3.584 7.68 0 15.36 1.024 22.528 3.584 138.752 47.616 190.976 86.528 191.488 86.528l1.536 1.024c135.68 92.672 139.776 209.92 139.776 214.528V689.152c0 3.584-3.072 6.656-6.656 7.168-114.688 4.096-277.504 84.48-342.016 118.784-2.048 1.024-4.608 1.536-7.168 1.536-2.56 0-4.608-0.512-6.656-1.536C436.736 780.8 273.92 700.416 159.744 696.32c-3.072 0-6.656-3.584-6.656-7.168v-432.64c0-4.608 4.096-116.736 131.584-208.384h1.536zM481.28 241.664c-9.216 0-17.92 3.584-24.576 10.24L337.92 370.176c-6.656 6.656-10.24 15.36-10.24 25.088 0 9.216 3.584 17.92 10.24 24.576 6.656 6.656 15.36 10.24 24.576 10.24 9.216 0 17.92-3.584 24.576-10.24L481.28 326.144l190.464 190.464c6.656 6.656 15.36 10.24 24.576 10.24s17.92-3.584 24.576-10.24c6.656-6.656 10.24-15.36 10.24-24.576 0-9.216-3.584-17.92-10.24-24.576l-215.04-215.04c-6.656-7.168-15.36-10.752-24.576-10.752z"  horiz-adv-x="1024" />

    
    <glyph glyph-name="qiyeshuju" unicode="&#58979;" d="M806 622.25c-14.805 8.55-32.333 0.25-45.361-13.779L569.516 433.963 418.454 541.58c-16.621 10.586-23.113 16.345-37.464 13.476-2.72-0.364-5.257-1.149-7.795-2.206-0.544-0.271-1.147-0.243-1.721-0.515-0.513-0.241-0.787-0.723-1.3-0.996-2.236-1.269-4.198-2.78-6.073-4.592a28.976 28.976 0 0 1-4.622-5.257c-0.302-0.454-0.756-0.695-1.028-1.179L203.764 355.38c-8.55-14.925-3.475-33.957 11.33-42.567 14.774-8.58 29.906-3.563 42.237 11.42L393.77 487.318 536.875 384c7.77-6.419 14.171-11.121 19.75-14.75 12.875-8.375 26.75-3.25 41.018 10.514l216.563 197.77c16.544 16.716 6.567 36.196-8.206 44.716zM973.063 803.492H44.907C27.837 803.492 14 789.654 14 772.585c0-17.131 13.837-30.968 30.907-30.968h30.938v-556.844c0-34.201 27.705-61.875 61.906-61.875h267.198l-76.98-141.787c-9.488-14.049-3.867-32.057 12.568-40.184 16.464-8.065 37.462-3.293 46.98 10.786l85.924 158.253c2.778 4.108 3.896 8.489 4.199 12.932h62.69c0.303-4.442 1.451-8.823 4.2-12.932l85.924-158.253c9.518-14.079 30.545-18.852 46.979-10.786 16.438 8.127 22.057 26.135 12.57 40.184l-76.981 141.787H880.25c34.171 0 61.875 27.674 61.875 61.875V741.617h30.938c17.069 0 30.938 13.837 30.938 30.968-0.001 17.069-13.869 30.907-30.938 30.907zM880.25 215.71c0-17.102-13.868-30.938-30.938-30.938H168.688c-17.1 0-30.938 13.836-30.938 30.938V741.556h30.604c0.092 0 0.212 0.061 0.333 0.061h680.625c0.09 0 0.21-0.061 0.303-0.061h30.635V215.71z"  horiz-adv-x="1024" />

    
    <glyph glyph-name="shangchuan" unicode="&#58980;" d="M512.331-36c-8.559-0.045-16.764 3.216-22.674 9.014-6.09 5.495-9.448 13.126-9.284 21.047a28.477 28.477 0 0 0 2.53 11.383c1.663 3.626 3.896 6.95 6.754 9.865 12.78 11.116 32.526 11.116 45.308 0a34.928 34.928 0 0 0 6.784-9.865 28.953 28.953 0 0 0 2.562-11.383c-0.134-16.531-14.367-29.907-31.98-30.06m255.64 150.056c-11.424 0-21.979 5.726-27.688 15.01-5.706 9.279-5.706 20.718 0 30.005 5.709 9.288 16.264 15.002 27.687 15.002 105.928 0 191.797 80.604 191.797 180.035 0 99.432-85.87 180.034-191.797 180.034h-28.192l-5.639 26.128c-13.803 105.132-108.95 184.11-221.794 184.11-112.853 0-207.989-78.978-221.792-184.11l-3.648-27.417-29.426 1.15h-0.18c-105.873 0.169-191.853-80.258-192.03-179.638-0.18-99.388 85.501-180.085 191.382-180.254 17.232-0.542 30.91-13.822 30.91-30.012s-13.678-29.462-30.91-30.004C119.913 113.588 6.968 214.171 0.308 342.37c-6.66 128.197 95.332 238.62 231.467 250.604C261.125 716.303 377.717 804 512.345 804c134.63 0 251.222-87.697 280.57-211.027 67.49-6.105 129.625-37.128 172.747-86.247 43.115-49.111 63.673-112.292 57.153-175.644-12.633-123.191-122.995-217.17-254.845-217.025M511.99 74c-7.954-0.007-15.584 3.034-21.2 8.448-5.624 5.421-8.78 12.778-8.773 20.436V420.112c-0.366 10.553 5.265 20.463 14.696 25.848 9.424 5.387 21.148 5.387 30.58 0 9.424-5.385 15.063-15.295 14.69-25.848v-317.228c-0.038-15.946-13.452-28.864-29.994-28.884M631.81 293a30.144 30.144 0 0 0-21.274 8.715l-99.075 98.432-99.105-98.468c-11.893-10.721-30.166-10.282-41.53 0.99-11.356 11.276-11.813 29.43-1.029 41.255l105.33 104.612c20.332 19.285 52.336 19.285 72.67 0l105.292-104.612c8.673-8.508 11.298-21.39 6.622-32.578-4.674-11.189-15.707-18.439-27.902-18.345"  horiz-adv-x="1024" />

    
    <glyph glyph-name="fabu" unicode="&#58981;" d="M793.6 15.872c-8.704 0-17.408 1.536-25.6 4.096l-237.056 80.896c-9.216 3.072-16.384 9.728-20.48 17.92-4.096 8.704-4.608 18.432-1.536 27.136 5.12 14.336 18.432 24.064 33.792 24.064 4.096 0 7.68-0.512 11.776-2.048l238.08-81.408H801.28v6.656L931.84 773.12 96.256 324.608l219.648-74.752c9.216-3.072 16.384-9.728 20.48-17.92s4.608-18.432 2.048-27.136c-5.12-14.336-18.432-24.064-33.792-24.064-4.096 0-7.68 0.512-11.264 2.048l-240.64 81.92c-23.552 8.192-39.936 29.184-41.984 53.76-2.048 24.576 10.752 48.128 32.256 59.904L934.4 855.552c7.68 4.096 15.872 6.144 24.576 6.144 10.752 0 21.504-3.584 30.208-10.24 16.384-11.776 24.064-31.744 19.968-51.2l-138.24-720.384c-4.096-22.528-17.92-41.984-37.888-53.248-11.776-7.168-25.088-10.752-39.424-10.752zM412.672-101.376c-19.968 0-35.84 15.872-35.84 35.84v231.936c1.024 11.776 10.24 55.296 77.824 126.976 60.416 64 427.52 488.448 468.992 536.576l0.512 0.512c6.656 7.68 16.896 12.288 27.136 12.288 8.704 0 16.896-3.072 23.552-8.704 7.168-6.144 11.776-14.848 12.288-24.576 0.512-9.728-2.56-18.944-8.704-26.112-2.048-2.56-9.728-11.264-21.504-25.088-261.12-302.08-412.672-475.136-450.048-514.56-44.032-47.104-55.808-76.288-57.856-83.968l-0.512-1.024v-224.768c0-19.456-15.872-35.328-35.84-35.328z"  horiz-adv-x="1024" />

    
    <glyph glyph-name="xiazai" unicode="&#58982;" d="M205.312-79.872c-90.624 0-163.84 73.216-163.84 163.84V596.48c0 71.68 54.272 130.048 120.832 130.048h46.592c18.432 0 33.28-14.848 33.28-33.28s-14.848-33.28-33.28-33.28h-46.592c-29.184 0-53.76-29.184-53.76-63.488v-512.512c0-53.76 43.52-96.768 96.768-96.768h611.84c53.76 0 96.768 43.52 96.768 96.768V596.48c0 34.304-24.576 63.488-53.76 63.488h-46.592c-18.432 0-33.28 14.848-33.28 33.28s14.848 33.28 33.28 33.28h46.592c66.56 0 120.832-58.368 120.832-130.048v-512.512c0-90.112-73.216-163.84-163.84-163.84H205.312zM510.976 132.608c-2.048 0-4.608 0-7.168 0.512-0.512 0-0.512 0-1.024 0.512-0.512 0-0.512 0-1.024 0.512l-4.608 1.536H496.64c-1.536 0.512-3.072 1.536-4.608 2.56-2.048 1.024-3.584 2.56-5.12 4.096l-0.512 0.512-195.584 185.344c-7.168 6.656-10.752 15.36-11.264 25.088-0.512 9.728 3.072 18.432 9.728 25.6 6.656 7.168 15.872 11.264 26.112 11.264 9.216 0 17.92-3.584 24.576-9.728l134.656-128V817.664c0 19.968 15.872 35.84 35.84 35.84s35.84-15.872 35.84-35.84v-567.808l141.824 130.048c6.656 6.144 15.36 9.216 24.064 9.216 10.24 0 19.456-4.096 26.624-11.776 13.312-14.336 12.288-37.376-2.048-50.688l-201.728-185.344c-0.512-0.512-1.024-0.512-1.024-1.024l-1.024-1.024-0.512-0.512c-0.512-0.512-1.024-1.024-1.536-1.024-1.024-0.512-2.048-1.024-3.072-2.048l-1.024-0.512c-0.512-0.512-1.024-0.512-1.536-1.024-1.536-0.512-2.56-1.024-4.096-1.024-0.512 0-1.024 0-1.024-0.512-0.512 0-1.024-0.512-1.024-0.512-3.584 0.512-5.632 0.512-8.192 0.512z"  horiz-adv-x="1024" />

    
    <glyph glyph-name="shanchu" unicode="&#58983;" d="M679.424 88.576c-18.432 0-33.28 14.848-33.28 33.28V504.32c0 18.432 14.848 33.28 33.28 33.28s33.28-14.848 33.28-33.28v-382.464c0-18.432-14.848-33.28-33.28-33.28z m-167.424 0c-18.432 0-33.28 14.848-33.28 33.28V504.32c0 18.432 14.848 33.28 33.28 33.28s33.28-14.848 33.28-33.28v-382.464c0-18.432-14.848-33.28-33.28-33.28z m-167.424 0c-17.408 0-32.768 14.848-33.28 33.28V504.32c0 18.432 14.848 33.28 33.28 33.28s33.28-14.848 33.28-33.28v-382.464c0-18.432-14.848-33.28-33.28-33.28zM296.96-91.136c-71.168 0-129.024 57.856-129.024 129.024v634.88H58.368c-18.432 0-33.28 14.848-33.28 33.28s14.848 33.28 33.28 33.28h229.888v38.4c0 44.544 36.352 80.896 80.896 80.896h286.72c44.544 0 80.896-36.352 80.896-80.896v-38.4h228.864c18.432 0 33.28-14.336 33.28-32.256 0-18.432-14.848-33.28-33.28-33.28h-109.568v-635.904c0-71.168-57.856-129.024-129.024-129.024H296.96z m-61.952 129.024c0-34.304 28.16-62.464 62.464-62.464H727.04c34.304 0 62.464 28.16 62.464 62.464V673.28H235.008v-635.392z m435.712 701.44v38.4c0 8.192-6.656 14.848-14.848 14.848H368.64v3.072-3.072c-4.096 0-7.68-1.536-10.24-4.608s-4.096-6.656-4.096-10.24v-38.4H670.72z"  horiz-adv-x="1024" />

    
    <glyph glyph-name="zengjia" unicode="&#58984;" d="M825.6 422.4H544V697.6c0 19.2-12.8 32-32 32s-32-12.8-32-32V416H204.8c-25.6 0-38.4-12.8-38.4-32s12.8-32 32-32h275.2v-275.2c0-19.2 12.8-32 32-32s32 12.8 32 32V352h275.2c19.2 0 32 12.8 32 32s0 38.4-19.2 38.4zM512 896C230.4 896 0 665.6 0 384s230.4-512 512-512 512 230.4 512 512S793.6 896 512 896z m0-953.6C268.8-57.6 70.4 140.8 70.4 384 70.4 627.2 268.8 825.6 512 825.6c243.2 0 441.6-198.4 441.6-441.6 0-243.2-198.4-441.6-441.6-441.6z"  horiz-adv-x="1024" />

    
    <glyph glyph-name="gengduo" unicode="&#58985;" d="M512-128C230.4-128 0 102.4 0 384S230.4 896 512 896s512-230.4 512-512-230.4-512-512-512z m0 64c249.6 0 448 198.4 448 448S761.6 832 512 832 64 633.6 64 384s198.4-448 448-448z m0 0M227.9 385a60.7 60.7 0 1 1 121.4 0 60.7 60.7 0 1 1-121.4 0zM450.9 385a60.7 60.7 0 1 1 121.4 0 60.7 60.7 0 1 1-121.4 0zM685.1 385a60.7 60.7 0 1 1 121.4 0 60.7 60.7 0 1 1-121.4 0z"  horiz-adv-x="1024" />

    
    <glyph glyph-name="xiugai" unicode="&#58986;" d="M339.097 341.59c-0.61-0.763-1.231-1.602-1.498-2.592l-47.092-172.647c-2.742-10.056 0.064-20.924 7.504-28.542 5.574-5.408 12.912-8.404 20.708-8.404 2.59 0 5.18 0.303 7.72 0.989l171.466 46.75c0.253 0 0.38-0.255 0.584-0.255 1.98 0 3.91 0.736 5.383 2.236l458.447 458.394c13.635 13.635 21.1 32.198 21.1 52.411 0 22.879-9.725 45.783-26.713 62.746L913.41 796.047c-16.987 17.013-39.918 26.74-62.772 26.74-20.212 0-38.775-7.466-52.46-21.052L339.782 343.162c-0.482-0.43-0.33-1.065-0.685-1.573m578.377 340.799l-45.53-45.505-73.843 75.011 44.895 44.87c7.084 7.135 20.873 6.095 28.998-2.057l43.297-43.371c4.545-4.545 7.134-10.537 7.134-16.455 0-4.9-1.778-9.318-4.951-12.493m-496.84-348.01l330.795 330.844 73.842-75.061-330.16-330.186-74.477 74.402zM360.35 200.251l23.894 87.758 63.762-63.763-87.656-23.995z m586.172 300.474c-17.368 0-31.615-14.118-31.664-31.69V41.67c0-22.42-18.182-40.602-40.63-40.602H151.252c-22.397 0-40.693 18.182-40.693 40.602V739.217c0 22.423 18.271 40.656 40.693 40.656h465.644c17.42 0 31.589 14.169 31.589 31.613 0 17.42-14.17 31.615-31.589 31.615H146.44c-54.659 0-99.11-44.438-99.11-99.11v-707.145c0-54.696 44.451-99.083 99.11-99.083h732.563c54.672 0 99.135 44.387 99.135 99.083V469.214c-0.103 17.394-14.296 31.512-31.615 31.512"  horiz-adv-x="1024" />

    
    <glyph glyph-name="bangzhuzhongxin" unicode="&#58987;" d="M512 896C230.4 896 0 665.6 0 384s230.4-512 512-512 512 230.4 512 512S793.6 896 512 896z m0-960c-249.856 0-448 198.656-448 448S262.144 832 512 832s448-198.144 448-448-198.144-448-448-448zM512 146.944c24.576 0 45.056-19.968 45.056-44.544 0-24.576-19.968-44.544-44.544-44.544-24.576 0-44.544 19.968-44.544 44.544-1.024 24.576 19.456 44.544 44.032 44.544zM512 710.144c-57.344 0-108.544-12.8-140.8-45.056-26.624-26.624-49.152-62.464-59.392-107.52-3.072-14.336 6.144-28.672 20.48-31.232l27.136-4.608c13.312-2.048 26.112 6.656 28.672 19.968 7.168 32.256 19.456 56.32 40.448 72.192 25.6 19.456 51.2 31.744 82.944 31.744 31.232 0 62.464-12.288 87.552-30.72 1.024-1.024 2.56-2.048 3.584-3.072 24.576-25.088 36.864-50.176 36.864-81.408 0-17.408-5.12-29.696-11.264-46.08-1.024-3.072-3.072-6.144-5.12-8.704-11.776-12.8-25.088-30.72-54.272-53.76-24.064-17.92-42.496-35.84-49.664-48.64-1.024-1.536-2.048-3.072-3.584-4.608-17.408-17.92-23.552-30.208-29.696-48.128 0-0.512-0.512-1.536-0.512-2.048-6.144-25.088-12.288-50.688-12.288-81.92 0-14.336 11.264-25.6 25.6-25.6h25.6c13.824 0 25.088 11.264 25.6 25.088 0.512 18.432 1.536 31.744 6.144 45.568 6.656 19.456 6.144 31.744 12.8 38.4 6.144 12.8 25.088 25.6 50.688 50.688l1.536 1.536c37.888 31.744 63.488 63.488 76.288 82.432 12.8 19.456 19.456 51.2 19.456 76.8 0 50.688-18.944 88.576-56.32 120.32-1.024 0.512-1.536 1.536-2.56 2.56-31.744 37.376-82.432 55.808-145.92 55.808z"  horiz-adv-x="1024" />

    
    <glyph glyph-name="fenxiang" unicode="&#58988;" d="M791.552-118.784c-45.056 0-88.064 16.384-121.344 46.592-46.08 40.96-68.096 101.888-58.88 162.816l2.048 12.8-217.6 130.56-10.752-9.728c-38.912-34.816-89.088-54.272-141.312-54.272-59.904 0-117.248 25.6-157.184 69.632C49.152 281.6 29.696 335.36 32.768 391.68 35.84 448 60.416 500.224 102.4 537.6c38.912 34.816 89.088 54.272 141.312 54.272s102.4-19.456 141.312-54.272l10.752-9.728 217.6 130.56-2.048 12.8c-14.848 99.328 54.272 192.512 153.6 206.848 8.704 1.536 17.92 2.048 27.136 2.048 89.6 0 166.912-67.072 180.224-155.648 7.168-48.128-5.12-96.256-33.792-135.168-29.184-38.912-71.68-64.512-119.808-71.68-8.704-1.536-17.92-2.048-26.624-2.048-51.712 0-101.376 22.016-135.68 60.928L645.12 588.8 438.272 464.896l5.12-14.848c7.68-22.016 11.264-45.056 11.264-68.608s-4.096-46.592-11.264-68.608l-5.12-14.848 206.848-124.416 10.752 12.288c34.304 38.4 83.968 60.928 136.192 60.928 45.056 0 88.064-16.384 121.344-46.592 36.352-32.256 57.856-77.312 60.416-125.952 2.56-48.64-13.824-95.232-46.08-131.584-34.304-39.424-83.968-61.44-136.192-61.44z m0.512 288.256c-58.368 0-105.984-47.616-105.984-105.984s47.616-105.984 105.984-105.984 105.984 47.616 105.984 105.984-47.616 105.984-105.984 105.984zM243.712 516.096c-74.24 0-135.168-60.416-135.168-135.168S168.96 245.76 243.712 245.76 378.88 306.176 378.88 380.928 317.952 516.096 243.712 516.096z m548.352 288.256c-58.368 0-105.984-47.616-105.984-105.984s47.616-105.984 105.984-105.984 105.984 47.616 105.984 105.984-47.616 105.984-105.984 105.984z"  horiz-adv-x="1024" />

    
    <glyph glyph-name="xiangqing" unicode="&#58989;" d="M616.32-27.712H197.056a92.608 92.608 0 0 0-92.608 92.672V698.88a92.608 92.608 0 0 0 92.544 92.8h633.92c24.576 0 48.192-9.728 65.536-27.2 17.472-17.472 27.072-40.704 27.072-65.472l-1.472-419.264v-0.128a34.176 34.176 0 0 1 68.352-0.128l1.408 419.392A160.832 160.832 0 0 1 830.912 859.776h-633.92A160.64 160.64 0 0 1 36.224 698.88v-633.92a160.64 160.64 0 0 1 160.768-160.832h419.392a34.112 34.112 0 1 1 0 68.16zM981.888-37.696l-130.176 130.24a205.056 205.056 0 1 1-48.256-48.256l130.24-130.176a34.112 34.112 0 0 1 48.192 48.192zM684.8 74.624a136.576 136.576 0 1 0 0 273.152 136.576 136.576 0 0 0 0-273.152zM787.2 552.32a34.176 34.176 0 0 1 0 68.416l-546.112 0.064a34.176 34.176 0 0 1 0-68.352l546.112-0.192zM445.888 347.712a34.112 34.112 0 1 1 0 68.16h-204.8a34.048 34.048 0 1 1 0-68.096l204.8-0.064z m-204.8-136.448a34.112 34.112 0 1 1 0-68.16H377.6a34.048 34.048 0 1 1 0 68.096l-136.512 0.064z"  horiz-adv-x="1024" />

    
    <glyph glyph-name="ketangguanli" unicode="&#58990;" d="M436.736-41.984c17.92 0 32.256-14.336 32.256-32.256s-14.336-32.256-32.256-32.256H161.28c-62.976 0-112.64 56.32-112.64 123.904V750.592c0 67.584 49.664 123.904 112.64 123.904h644.096c63.488 0 112.64-56.32 112.64-123.904v-232.448c0-17.92-14.336-32.256-32.256-32.256s-32.256 14.336-32.256 32.256V750.592c0 33.792-22.528 59.392-48.128 59.392H161.28c-25.6 0-48.128-25.6-48.128-59.392v-733.184c0-33.792 22.528-59.392 48.128-59.392h275.456zM195.584 609.28c-17.92 0-32.256 14.336-32.256 32.256s14.336 32.256 32.256 32.256h517.632c17.92 0 32.256-14.336 32.256-32.256s-14.336-32.256-32.256-32.256H195.584zM195.584 437.76c-17.92 0-32.256 14.336-32.256 32.256s14.336 32.256 32.256 32.256h345.088c17.92 0 32.256-14.336 32.256-32.256s-14.336-32.256-32.256-32.256H195.584z m0-172.032c-17.92 0-32.256 14.336-32.256 32.256s14.336 32.256 32.256 32.256h229.888c17.92 0 32.256-14.336 32.256-32.256s-14.336-32.256-32.256-32.256H195.584zM805.376-105.472c-13.312 0-25.6 5.632-36.352 16.384-10.24 10.24-19.456 15.36-29.184 15.36-10.752 0-20.48-4.608-27.136-12.288l-3.072-3.584c-10.24-9.728-23.552-15.36-37.376-15.36h-3.072c-2.56 0-5.632 0.512-8.192 1.024l-6.656 2.048c-30.72 10.752-59.392 28.16-82.944 50.688-16.384 14.336-22.528 37.376-14.848 56.832 3.072 9.728 1.536 21.504-3.584 30.72-6.656 10.752-12.8 16.384-20.992 19.456h-0.512l-4.608 1.024c-20.48 4.608-35.84 20.992-38.912 42.496-3.072 14.336-4.608 31.232-4.608 50.176 0 16.896 1.024 31.744 4.096 47.616V201.728l2.048 5.12c5.12 13.312 12.8 23.552 23.552 30.208 4.608 3.584 9.216 5.632 14.336 6.656h1.024c10.752 3.584 18.944 9.728 22.528 17.408 5.632 11.264 7.168 22.528 4.096 35.84-6.144 20.992 0.512 43.008 16.896 56.32 23.04 19.968 48.64 35.84 78.848 48.64l2.048 1.024c6.144 2.048 12.288 3.072 18.432 3.072 13.824 0 25.6-5.632 35.84-15.872 9.728-10.24 19.456-15.36 29.184-15.36 14.848 0 22.528 6.144 26.624 11.264l3.072 3.584c10.24 10.752 24.064 16.896 37.888 16.896 5.632 0 11.264-1.024 16.384-3.584 31.232-11.264 58.88-28.16 82.432-51.2 16.384-14.336 22.528-37.376 14.848-56.832-3.072-10.752-1.536-21.504 3.584-30.72 6.656-10.752 12.8-16.384 20.992-19.456l4.608-1.024c20.992-4.608 35.84-20.992 39.424-42.496 2.56-12.288 4.096-24.576 5.12-36.352 0.512-4.096 0.512-7.68 1.024-11.776v-2.048c0-16.896-1.024-31.744-4.096-47.104v-5.12l-2.048-5.12c-5.12-13.312-12.8-23.552-23.552-30.208-4.608-3.584-9.216-5.632-14.336-6.656h-0.512c-10.24-3.584-18.944-10.24-22.528-17.408-5.632-11.264-7.168-24.064-4.096-35.84 6.656-20.992-1.024-44.544-17.92-56.32-23.552-19.968-49.664-35.84-77.312-47.616-4.096-2.048-8.704-3.072-12.8-3.584-3.584-1.536-5.12-1.536-7.68-1.536z m-65.536 91.648c23.04 0 45.056-8.704 64.512-26.624l3.584-3.584 4.608 2.048c16.896 8.192 32.256 17.408 45.568 28.672l3.584 3.072-1.024 4.608c-5.12 24.576-1.024 50.176 10.752 72.192 10.752 19.968 29.696 35.84 52.736 44.544l4.096 1.536 0.512 4.608c1.536 10.752 2.56 20.992 2.56 31.744l-0.512 10.24c-1.024 9.728-1.536 16.384-2.56 22.016l-0.512 4.608-4.608 1.536c-22.528 7.168-40.448 22.528-54.272 46.08-12.288 22.016-16.384 47.616-10.752 71.68l1.024 4.608-3.584 3.072c-13.312 11.776-28.16 20.992-45.568 28.672l-4.608 2.048-3.584-3.584c-16.384-16.384-39.936-25.6-65.536-25.6-23.04 0-44.544 8.704-64 26.112l-3.584 3.584-4.608-2.048c-17.92-8.192-33.28-17.92-47.104-29.184l-3.584-3.072 1.024-4.608c5.12-24.576 1.024-50.176-10.752-72.192-10.752-19.968-29.696-35.84-53.248-44.544l-4.096-1.536-0.512-4.608c-1.536-10.752-2.56-20.992-2.56-32.256 0-10.24 0.512-20.48 2.048-30.208l0.512-4.608 4.608-1.536c22.528-7.168 40.448-22.528 54.272-46.08 12.288-22.528 16.384-47.616 10.752-71.68l-1.024-4.608 3.584-3.072c14.336-12.288 30.208-22.528 47.616-29.696l4.608-2.048 3.584 3.584c17.408 16.384 41.472 26.112 66.048 26.112z m-3.072 58.88c-27.648 0-54.272 11.264-73.728 31.232-19.456 19.968-30.208 46.08-30.208 74.24v1.024c0 57.344 47.104 104.448 104.448 104.448h1.024c27.648 0 53.76-11.264 73.216-31.232 19.456-19.968 30.208-46.08 29.696-73.728v-1.024c0-57.344-46.592-103.936-103.936-103.936h-0.512z m1.024 150.016c-25.6 0-45.568-19.968-45.568-45.056v-0.512c0.512-24.576 20.48-44.544 45.056-44.544 25.6 0 45.056 19.968 45.056 45.568 0 25.088-19.456 44.544-44.544 44.544z"  horiz-adv-x="1024" />

    
    <glyph glyph-name="pilianngdaochu" unicode="&#58991;" d="M937.472 584.704h-242.688c-18.432 0-33.792-15.36-33.792-33.792 0-18.944 15.36-33.792 33.792-33.792v-0.512h220.16v-571.904H104.96V517.12h205.824c18.432 0 33.792 15.36 33.792 33.792 0 18.944-15.36 33.792-33.792 33.792H82.432c-24.576 0-45.056-19.968-45.056-45.056v-618.496c0-24.576 19.968-45.056 45.056-45.056h855.552c24.576 0 45.056 20.48 44.544 46.08V539.648c0 24.576-19.968 45.056-45.056 45.056zM729.088 690.688L534.016 876.544c-6.144 5.632-14.336 9.216-23.552 9.216-8.704 0-16.384-3.584-22.528-8.704L291.84 691.712c-7.68-6.144-12.288-15.872-12.288-26.112 0-18.944 15.36-33.792 33.792-33.792 9.728 0 18.432 4.096 24.576 11.264l0.512-0.512 138.752 131.072v-583.68c0-16.896 14.336-31.232 31.232-31.232h5.632c16.896 0 31.232 13.824 31.232 31.232V772.608l137.728-130.56 0.512 0.512c6.144-7.68 15.872-12.8 26.112-12.8 18.944 0 33.792 15.36 33.792 33.792 0 11.264-5.632 20.992-14.336 27.136z"  horiz-adv-x="1024" />

    
    <glyph glyph-name="kaoshitongji" unicode="&#58992;" d="M274.908 329.276l196.444 205.528 189.892-198.688c1.456-2.26 2.416-4.828 4.36-6.84 15.572-16.304 40.772-16.304 56.3 0l218.144 228.228a41.016 41.016 0 0 1 6.772 5.68c15.908 16.648 15.908 43.648 0 60.312-15.928 16.652-41.74 16.652-57.656 0-1.168-1.26-1.688-2.888-2.708-4.248L694.872 418.764 500.984 621.648c-0.492 0.568-0.664 1.3-1.172 1.852-15.916 16.648-41.732 16.648-57.664 0-1.184-1.268-1.672-2.892-2.672-4.252L218.608 388.136c-15.552-16.264-15.552-42.64 0-58.856 15.548-16.312 40.768-16.312 56.3-0.004zM964.8 61.752H94.024V742.056c0 19.784-15.588 35.808-34.832 35.808-19.248 0-34.836-16.024-34.836-35.808v-716.128c0-19.78 15.588-35.788 34.836-35.788h905.612c19.232 0 34.84 16.008 34.84 35.788 0.004 19.776-15.604 35.824-34.844 35.824z"  horiz-adv-x="1024" />

    
    <glyph glyph-name="zanting" unicode="&#58993;" d="M510.976-102.4c-268.8 0-487.936 218.624-487.936 487.936 0 268.8 218.624 487.936 487.936 487.936 268.8 0 487.936-218.624 487.936-487.936-0.512-269.312-219.136-487.936-487.936-487.936z m0 912.384c-234.496 0-424.96-190.464-424.96-424.96s190.464-424.96 424.96-424.96 424.96 190.464 424.96 424.96-190.976 424.96-424.96 424.96zM624.64 229.888c-16.896 0-31.232 13.824-31.232 31.232V509.952c0 16.896 13.824 31.232 31.232 31.232s31.232-13.824 31.232-31.232V261.12c0-8.192-2.56-15.872-8.192-21.504-6.144-6.656-14.336-9.728-23.04-9.728z m-227.84 0c-16.896 0-31.232 13.824-31.232 31.232V509.952c0 16.896 13.824 31.232 31.232 31.232 16.896 0 31.232-13.824 31.232-31.232V261.12c0-17.408-13.824-31.232-31.232-31.232z"  horiz-adv-x="1024" />

    
    <glyph glyph-name="xiayi" unicode="&#58994;" d="M512.512-38.4c-56.32 0-112.128 11.264-164.352 33.28-155.648 65.536-256.512 218.112-257.024 386.56-0.512 232.448 187.392 420.864 419.84 421.376 232.448 0.512 420.864-187.392 421.376-419.84s-187.904-420.864-419.84-421.376m492.544 422.4c0 271.872-220.672 492.544-492.544 492.544S19.968 655.872 19.968 384s220.672-492.544 492.544-492.544 492.544 220.16 492.544 492.544zM330.24 541.696c11.264 0 21.504-5.12 28.16-14.336l153.088-207.36 153.6 204.8c11.776 15.36 33.792 18.944 49.152 7.168 15.36-11.776 18.944-33.792 7.168-49.152l-181.76-242.688c-6.656-8.704-16.896-13.824-28.16-13.824s-21.504 5.12-28.16 14.336L302.08 485.376c-4.608 6.144-6.656 13.312-6.656 20.992-0.512 19.456 15.36 35.328 34.816 35.328z"  horiz-adv-x="1024" />

    
    <glyph glyph-name="shangyi" unicode="&#58995;" d="M512.512 805.888c232.448-0.512 420.352-188.928 419.84-421.376s-188.928-420.352-421.376-419.84-420.352 188.928-419.84 421.376c0.512 168.96 101.376 321.024 257.024 386.56 51.712 22.016 107.52 33.28 164.352 33.28m0 70.656C240.128 876.544 19.968 655.872 19.968 384s220.672-492.544 492.544-492.544 492.544 220.672 492.544 492.544-220.672 492.544-492.544 492.544zM330.24 226.304c-19.456 0-35.328 15.872-35.328 35.328 0 7.68 2.56 14.848 6.656 20.992l181.248 245.76c6.656 8.704 16.896 14.336 28.16 14.336s21.504-5.12 28.16-13.824l181.76-242.688c11.776-15.36 8.704-37.376-7.168-49.152-15.36-11.776-37.376-8.704-49.152 7.168l-153.6 204.8L358.912 240.64c-6.656-9.216-17.408-14.336-28.672-14.336z"  horiz-adv-x="1024" />

    
    <glyph glyph-name="shixiao" unicode="&#58996;" d="M512-128C230.384-128 0 102.384 0 384S230.384 896 512 896s512-230.384 512-512-230.384-512-512-512z m0 960.04C262.428 831.976 64.024 633.508 64.024 384S262.428-63.976 512-63.976 959.976 134.428 959.976 384 761.572 831.976 512 831.976zM150.571 744.661q22.614 22.614 45.227 0l678.398-678.398q22.614-22.614 0-45.227-22.613-22.613-45.226 0L150.57 699.435q-22.613 22.613 0 45.226z"  horiz-adv-x="1024" />

    
    <glyph glyph-name="zixun" unicode="&#58997;" d="M710.044978-122.882559H154.802599c-45.545227 0-82.390805 36.845577-82.390805 82.390805V807.98001c0 45.545227 36.845577 82.390805 82.390805 82.390805h716.953523c45.545227 0 82.390805-36.845577 82.390805-82.390805V148.853573c0-5.629185-2.046977-11.258371-6.14093-15.864068l-220.049975-248.195902c-4.605697-5.117441-10.746627-7.676162-17.911044-7.676162zM154.802599 842.778611c-19.446277 0-34.798601-15.352324-34.798601-34.798601V-40.491754c0-19.446277 15.864068-34.798601 34.798601-34.798601h545.007496l206.744628 233.355323v649.915042c0 19.446277-15.864068 34.798601-34.798601 34.798601H154.802599z m593.111444-200.091954H291.950025c-19.958021 0.511744-35.310345 17.3993-34.798601 37.357321 0.511744 18.934533 15.864068 33.775112 34.798601 34.798601h455.964018c19.958021 0 35.822089-15.864068 35.822089-35.822089s-15.864068-36.333833-35.822089-36.333833z m0-194.974513H291.950025c-19.958021 0-35.822089 15.864068-35.822089 35.822089s15.864068 35.822089 35.822089 35.822089h455.964018c19.958021 0 35.822089-15.864068 35.822089-35.822089s-15.864068-35.822089-35.822089-35.822089z m-211.350325-197.533233H291.950025c-19.958021 1.023488-34.798601 17.911044-33.775112 37.869065 1.023488 18.422789 15.864068 33.263368 33.775112 33.775112h244.101949c19.958021-0.511744 35.310345-17.3993 34.798601-37.357321-0.511744-18.934533-15.864068-33.775112-34.286857-34.286856z m145.847077-370.502749c-13.305347 0-23.54023 10.746627-23.54023 23.54023v220.561719c0 45.545227 34.798601 82.390805 77.785107 82.390805h191.392304c13.305347 0 23.54023-10.746627 23.54023-23.54023 0-13.305347-10.746627-23.54023-23.54023-23.54023h-191.392304c-16.887556 0-30.192904-15.864068-30.192903-34.798601V-96.783608c-0.511744-13.305347-10.746627-23.54023-24.051974-23.54023z"  horiz-adv-x="1024" />

    
    <glyph glyph-name="shengxiao" unicode="&#58998;" d="M749.568 584.192L424.96 260.608 274.432 410.624a33.9968 33.9968 0 0 1-48.128 0 33.9968 33.9968 0 0 1 0-48.128l170.496-169.984c1.024-1.536 2.048-3.584 3.072-5.12 6.656-6.656 15.872-10.24 24.576-9.728 9.216 0 17.92 3.072 25.088 9.728 1.536 1.536 2.048 3.072 3.072 5.12l344.064 343.552c13.312 13.312 13.312 34.816 0 48.128-12.8 13.312-34.304 13.312-47.104 0zM512-128C230.4-128 0 102.4 0 384S230.4 896 512 896s512-230.4 512-512-230.4-512-512-512z m0 960c-249.344 0-448-198.656-448-448s198.656-448 448-448 448 198.656 448 448-198.656 448-448 448z"  horiz-adv-x="1024" />

    
    <glyph glyph-name="fenpeijuese" unicode="&#58999;" d="M870.912-70.656c-75.264 0-136.192 60.928-136.192 136.192s60.928 136.192 136.192 136.192 136.192-60.928 136.192-136.192-60.928-136.192-136.192-136.192z m0 215.04c-43.52 0-78.848-35.328-78.848-78.848s35.328-78.848 78.848-78.848 78.848 35.328 78.848 78.848-35.328 78.848-78.848 78.848z m-358.912-215.04c-75.264 0-136.192 60.928-136.192 136.192s60.928 136.192 136.192 136.192c75.264 0 136.192-60.928 136.192-136.192s-60.928-136.192-136.192-136.192z m0 215.04c-43.52 0-78.848-35.328-78.848-78.848s35.328-78.848 78.848-78.848 78.848 35.328 78.848 78.848-35.328 78.848-78.848 78.848z m-358.912-215.04c-75.264 0-136.192 60.928-136.192 136.192s60.928 136.192 136.192 136.192 136.192-60.928 136.192-136.192-60.928-136.192-136.192-136.192z m0 215.04c-43.52 0-78.848-35.328-78.848-78.848s35.328-78.848 78.848-78.848 78.848 35.328 78.848 78.848c0.512 20.992-7.68 40.448-22.528 55.296-14.848 15.36-34.816 23.552-56.32 23.552z m717.312 107.52c-17.408 0-28.672 11.264-28.672 28.672V395.264h-301.056v-114.688c0-17.408-11.264-28.672-28.672-28.672-17.408 0-28.672 11.264-28.672 28.672V395.264H182.272v-114.688c0-17.408-11.264-28.672-28.672-28.672s-28.672 11.264-28.672 28.672v107.52c0 35.328 28.672 64.512 64.512 64.512h293.888V574.464H404.48c-35.328 0-64.512 28.672-64.512 64.512v107.52c0 35.328 28.672 64.512 64.512 64.512h215.552c35.328 0 64.512-28.672 64.512-64.512v-107.52c0-35.328-28.672-64.512-64.512-64.512h-78.848v-121.856h293.888c17.408 0 33.28-6.656 45.568-18.944 11.776-12.288 18.432-28.16 18.432-45.056v-107.52c0-17.92-11.264-29.184-28.672-29.184z m-243.712 380.416V754.176H397.312v-121.856h229.376z"  horiz-adv-x="1024" />

    
    <glyph glyph-name="xiaozuguanli1" unicode="&#59001;" d="M892.928 637.44c-2.56-62.464-19.456-111.616-55.296-153.6-20.48-24.064-20.48-24.064 8.192-40.448 31.744-18.944 59.904-42.496 84.992-69.12 14.336-14.848 18.432-33.28 1.536-48.64-16.896-15.872-32.256-9.216-47.104 7.168-35.328 38.4-78.336 66.048-127.488 83.968-16.384 6.144-34.304 11.776-36.352 32.768-2.56 21.504 14.336 29.184 29.184 38.912 57.344 37.376 85.504 91.136 79.36 158.72-6.144 70.656-44.032 120.832-110.592 147.968-4.096 1.536-8.704 3.072-12.8 4.608-17.92 7.68-26.112 20.48-18.944 39.424 7.168 18.432 22.016 23.552 40.448 17.408 85.504-29.696 140.288-87.552 159.744-176.64 3.072-16.896 4.096-33.28 5.12-42.496zM10.24 41.472l1.024 27.136c13.824 71.68 37.376 139.264 81.92 198.656 46.08 60.928 103.936 105.472 173.056 136.704 9.216 4.096 18.432 8.192 31.232 13.824-34.304 27.136-63.488 55.808-81.92 93.184-47.104 95.232-38.912 186.88 24.064 271.36C299.52 862.72 407.552 899.072 502.784 871.936c102.912-29.184 164.864-97.792 186.368-202.752 26.112-128-74.752-293.376-254.464-293.888-126.976-0.512-227.328-57.856-299.52-162.304-49.664-71.68-64-152.576-60.416-238.08 1.024-22.016 15.36-16.384 27.136-16.384h368.64c5.632 0 11.264 0.512 16.384 0 18.944-3.072 30.208-14.336 29.696-33.28s-12.288-31.232-31.232-31.744c-27.648-1.024-55.296-0.512-82.432-0.512-116.736 0-232.96 0-349.696-0.512-18.944 0-34.304 3.584-43.52 22.016l0.512 126.976zM437.76 440.32c102.912-1.536 189.952 84.48 189.952 187.904 0 102.4-83.968 186.368-187.904 187.392-101.376 1.536-187.392-83.968-187.904-186.88-0.512-102.4 82.432-186.88 185.856-188.416zM899.584 41.472v80.384c0 14.336-7.68 27.136-19.968 34.304l-72.704 42.496c-12.288 7.168-28.16 7.168-40.448 0l-72.704-42.496c-12.288-7.168-19.968-20.48-19.968-34.304v-82.944c0-14.336 7.68-27.648 20.48-34.816l72.192-40.448c12.288-7.168 27.648-6.656 39.936 0.512l73.216 43.008c12.8 6.656 19.968 19.968 19.968 34.304z m-132.608-140.8l-128 73.216c-12.288 7.168-19.968 20.48-19.968 34.816v145.92c0 14.336 7.68 27.648 19.968 34.816l128 73.216c12.288 7.168 27.648 7.168 39.936 0l128-73.216c12.288-7.168 19.968-20.48 19.968-34.816v-145.92c0-14.336-7.68-27.648-19.968-34.816l-128-73.216c-12.288-7.168-27.648-7.168-39.936 0z"  horiz-adv-x="1024" />

    
    <glyph glyph-name="fenpeijineng" unicode="&#59002;" d="M1006.08 545.792c-0.512 0.512-0.512 0.512 0 0L753.152 834.56c-12.288 14.848-29.184 23.04-47.616 23.04h-0.512c-17.92 0-35.328-8.192-47.616-23.04-11.264-12.8-16.896-29.696-16.896-47.616V665.6h-96.768c-17.92 0-31.744-14.336-31.744-31.744s14.336-31.744 31.744-31.744h128.512c17.92 0 31.744 14.336 31.744 31.744v153.6c0 2.048 0.512 4.096 1.024 4.608L957.44 504.32c2.56-3.072 2.56-9.728 0-12.8l-251.392-287.232c-0.512 1.024-1.024 2.56-1.024 5.12v166.912c0 17.92-14.336 31.744-31.744 31.744H383.488V543.232c0 38.912-29.184 70.656-65.024 70.656-18.432 0-35.84-8.192-47.616-22.528L19.456 302.592l-0.512-0.512c-22.528-26.624-22.528-68.608 0-95.744l0.512-0.512 251.392-284.16c12.288-14.848 29.184-23.04 47.616-23.04h0.512c17.92 0 35.328 8.192 47.616 23.04 11.264 12.8 16.896 29.696 16.896 47.616v119.808h98.816c17.92 0 31.744 14.336 31.744 31.744s-14.336 31.744-31.744 31.744H351.232c-17.92 0-32.256-14.336-32.256-31.744V-30.72c0-2.048-0.512-4.096-1.024-4.608l-250.368 283.648c-2.56 3.072-2.56 9.728 0 12.8l250.368 286.72c0.512-1.024 1.024-2.56 1.024-5.12v-166.912c0-17.92 14.336-31.744 31.744-31.744H640v-134.656c0-38.912 29.184-70.656 65.024-70.656 18.432 0 35.84 8.192 47.616 22.528l252.416 288.256s0 0.512 0.512 0.512c23.04 27.136 23.04 69.12 0.512 95.744z"  horiz-adv-x="1024" />

    
    <glyph glyph-name="yemian" unicode="&#59003;" d="M589.824 465.92H517.12V869.888H191.488c-20.992-1.024-37.376-18.944-36.352-40.448v-888.32c-1.024-20.992 15.36-38.912 36.352-40.448h653.824c20.992 1.024 37.376 18.944 36.352 40.448V465.92h-291.84zM596.992 542.2080000000001h282.624c-3.072 41.984-23.04 80.384-55.296 107.52-29.184 33.792-49.664 57.344-62.976 72.704l-1.024 1.024-21.504 25.088-1.024 1.024-62.976 72.704c-17.92 25.6-46.08 42.496-77.312 45.568l-0.512-325.632z"  horiz-adv-x="1024" />

    
    <glyph glyph-name="wenjianjia" unicode="&#59004;" d="M69.12 769.536h423.424c26.624 0 49.664-19.456 54.272-45.056l33.792-181.76c5.632-30.208-13.824-58.88-44.032-64-3.584-1.024-6.656-1.024-10.24-1.024H69.12C38.912 477.696 14.336 502.272 14.336 532.48V714.752c0 30.208 24.576 54.784 54.784 54.784zM954.88-47.104H63.488c-27.648 0-49.664 22.016-49.664 49.664V594.432h941.056c27.648 0 49.664-22.016 49.664-49.664v-542.72c0-27.136-22.016-49.152-49.664-49.152z"  horiz-adv-x="1024" />

    
    <glyph glyph-name="zhinengtianjia" unicode="&#59006;" d="M327.734426-110.08c-22.016 0-42.496 5.12-60.416 14.848-58.88 32.256-84.992 111.616-73.216 223.232 1.536 15.36 4.096 30.72 6.656 46.592-15.36 5.632-30.208 11.264-44.032 17.408-102.912 45.568-158.72 107.52-156.672 174.592 1.024 65.536 56.32 123.904 155.648 165.376 8.192 3.584 16.384 6.656 25.088 9.728-1.536 5.632-2.56 11.776-3.584 17.408-20.48 110.08-1.024 191.488 54.784 228.352 20.48 13.312 44.544 19.968 71.68 19.968 56.832 0 125.44-30.208 198.144-87.04 19.456 17.92 38.912 33.792 57.856 47.616 5.12 3.584 10.752 5.12 16.896 5.12 9.216 0 17.92-4.608 23.04-12.288 9.216-13.312 5.632-31.232-7.168-39.936-15.36-10.752-31.232-23.552-47.104-37.888 32.768-30.208 65.024-64 95.232-101.376 47.616-5.632 93.184-14.848 135.168-26.112 3.584 20.992 5.632 41.472 6.656 60.416 0.512 15.36 13.824 27.648 28.672 27.648h1.024c15.872-0.512 28.16-14.336 27.648-30.208-1.024-23.552-4.096-48.64-8.704-74.752 15.36-5.632 29.696-11.264 43.52-17.408 102.912-45.568 158.72-107.52 156.672-174.592-1.024-65.536-56.32-123.904-155.648-165.376-7.68-3.072-15.872-6.656-24.064-9.728 1.024-5.632 2.56-11.776 3.584-17.408 20.48-110.08 1.024-191.488-54.784-228.352-20.48-13.312-44.544-19.968-71.68-19.968-56.832 0-125.44 30.208-198.144 87.04-11.776-11.264-24.064-21.504-36.352-31.232-59.392-46.592-117.248-71.68-166.4-71.68z m-71.68 267.264c-2.048-12.288-3.584-24.064-5.12-35.84-8.704-86.016 7.168-146.944 44.032-166.912 9.216-5.12 20.48-7.68 32.768-7.68 35.84 0 82.432 21.504 131.584 60.416 9.216 7.168 18.432 15.36 27.648 23.552-32.768 29.696-64.512 63.488-94.72 100.352-48.128 6.144-93.696 14.848-136.192 26.112z m315.904-122.88c59.904-45.568 115.2-70.656 157.184-70.656 15.36 0 28.672 3.584 39.936 10.752 34.304 22.528 45.568 86.016 30.208 169.472-0.512 3.584-1.536 7.168-2.048 10.752-45.568-12.288-95.232-20.992-148.48-26.624-24.576-33.792-50.176-65.536-76.8-93.696z m-97.28 89.6c17.408-18.944 35.328-36.864 53.76-53.248 15.36 16.384 30.208 33.792 45.056 52.736-12.8-0.512-25.6-0.512-38.912-0.512h-23.04c-12.288 0-24.576 0.512-36.864 1.024z m-52.224 61.952c29.696-3.072 59.904-4.608 90.624-5.632h22.016c27.648 0 55.808 1.024 82.944 3.072 18.944 27.648 36.864 57.344 53.76 88.064s32.256 61.952 46.08 93.696c-15.872 30.208-33.792 59.904-53.248 89.6-17.408 25.6-35.328 50.688-53.76 74.24-29.696 3.072-59.904 4.608-90.112 5.632h-22.528c-27.648 0-55.296-1.024-82.432-3.072-18.944-28.16-37.376-58.368-54.272-89.088-16.896-30.72-32.256-61.952-45.568-92.672 15.872-29.696 33.792-59.904 53.248-89.088 16.384-26.624 34.816-51.2 53.248-74.752z m327.168 112.64c-8.704-18.432-18.432-36.864-28.16-54.784-9.728-17.92-19.968-35.328-30.208-52.224 32.256 5.12 62.976 11.264 91.648 18.944-9.216 28.672-20.48 57.856-33.28 88.064z m-481.28-84.992c23.552-6.656 48.128-12.288 74.24-16.896-7.168 10.24-14.336 20.48-20.992 31.232-11.264 17.408-22.528 34.816-32.768 52.224-8.192-22.528-14.848-44.544-20.48-66.56z m512 154.112c23.552-47.616 43.008-94.208 56.832-139.264 5.632 2.048 11.264 4.608 16.896 6.656 75.776 31.744 119.296 72.704 120.32 113.152 1.024 41.984-43.52 86.016-122.88 121.344-10.24 4.608-21.504 9.216-32.768 13.312-9.728-37.376-22.528-76.288-38.4-115.2zM195.638426 486.4c-6.144-2.048-11.776-4.608-17.408-7.168-75.776-31.744-119.296-72.704-120.32-113.152-1.024-41.984 43.52-86.016 122.88-121.344 10.752-4.608 22.016-9.216 33.28-13.312 9.728 37.888 23.04 76.288 38.912 115.712C228.406426 394.24 209.462426 441.344 195.638426 486.4zM249.910426 503.808c8.704-28.672 19.968-57.856 33.28-88.064 8.704 17.92 18.432 36.352 28.16 53.76 9.728 17.92 20.48 35.84 31.232 53.248-32.768-4.608-64-11.264-92.672-18.944z m440.832 13.312c7.168-10.24 14.336-20.48 20.992-30.72 11.264-16.896 22.016-34.816 32.256-52.224 7.68 22.528 14.336 44.544 19.968 66.048-23.04 6.656-47.616 12.288-73.216 16.896zM303.158426 750.592c-15.36 0-28.672-3.584-39.936-10.752-34.304-22.528-45.568-86.016-30.208-169.472 0.512-3.584 1.536-7.168 2.048-11.264 45.568 12.288 95.744 21.504 149.504 26.624 24.576 34.304 50.176 65.536 76.288 93.696-59.904 46.08-115.712 71.168-157.696 71.168z m217.088-159.744c12.8 0 25.6-0.512 37.888-1.536-17.92 19.456-35.84 37.376-53.76 53.76-15.36-16.384-30.72-34.304-45.568-52.736 12.8 0.512 25.6 0.512 38.4 0.512h23.04zM631.862426 763.392c0-59.392 48.128-107.52 107.52-107.52s108.032 48.128 108.032 107.52-48.128 107.52-108.032 107.52c-58.88 0.512-107.52-47.616-107.52-107.52z"  horiz-adv-x="1031" />

    
    <glyph glyph-name="tikuzhongtianjia" unicode="&#59007;" d="M170.496-123.904c-73.216 0-132.096 59.392-132.096 132.096V759.296C38.4 832.512 97.792 891.392 170.496 891.392h682.496c73.216 0 132.096-59.392 132.096-132.096v-751.104c0-73.216-59.392-132.096-132.096-132.096H170.496z m0 956.416c-43.52 0-72.704-29.184-72.704-72.704v-751.104c0-43.52 29.184-72.704 72.704-72.704h682.496c43.52 0 72.704 29.184 72.704 72.704V759.296c0 43.52-29.184 72.704-72.704 72.704l-72.704 0.512V486.4c0-18.432-11.776-29.696-29.696-29.696-6.656 0-11.776 0-17.408 5.632L614.4 560.128l-118.784-97.28c-5.12-2.56-11.264-3.584-17.408-3.584-9.728 0-18.432 3.584-25.088 9.728-5.632 5.632-5.632 10.752-5.632 17.408V832.512H302.592v-902.656H243.712V832.512H170.496z m446.464-212.48c13.824 0 26.112-5.12 35.328-14.336L721.408 552.96V832.512H507.392V552.96l68.608 53.248c12.288 8.704 27.136 13.824 40.96 13.824z"  horiz-adv-x="1024" />

    
    <glyph glyph-name="shouji" unicode="&#59009;" d="M521.216-23.04c-30.72 0-55.296 25.088-55.296 55.296 0 30.72 25.088 55.296 55.296 55.296 30.72 0 55.296-25.088 55.296-55.296s-24.576-55.296-55.296-55.296zM269.312-118.272c-44.544 0-80.896 36.352-80.896 80.896V807.936c0 44.544 36.352 80.896 80.896 80.896H773.12c44.544 0 80.896-36.352 80.896-80.896v-845.312c0-44.544-36.352-80.896-80.896-80.896H269.312z m-21.504 80.384c0-11.776 9.728-20.992 20.992-20.992H773.12c11.776 0 20.992 9.728 20.992 20.992v152.064H247.808v-152.064z m546.816 216.576V807.936c0 11.776-9.728 20.992-20.992 20.992H269.312c-11.776 0-20.992-9.728-20.992-20.992v-629.248h546.304z"  horiz-adv-x="1024" />

    
    <glyph glyph-name="fenxiang1" unicode="&#59010;" d="M510.976-87.04c-259.072 0-469.504 211.456-469.504 471.04S252.928 854.528 512 854.528c20.48 0 35.84-15.36 35.84-35.84s-15.36-35.84-35.84-35.84c-220.16 0-398.848-179.2-398.848-398.848 0-220.16 179.2-398.848 398.848-398.848s398.848 179.2 398.848 398.848c0 20.48 15.36 35.84 35.84 35.84s35.84-15.36 35.84-35.84c0-259.584-211.456-471.04-471.552-471.04zM491.52 289.28c-17.92 0-33.792 14.336-35.84 32.768v5.12c0 220.16 77.824 313.856 261.12 313.856h61.952l-17.408 19.456c-12.8 14.848-11.776 36.352 3.072 50.176 6.656 5.632 14.848 8.704 23.552 8.704 8.704 0 16.896-3.072 22.528-8.704L880.128 640c18.944-18.944 18.944-50.176 0-69.632l-69.632-69.632c-6.656-6.656-15.36-10.24-24.576-10.24-9.216 0-18.432 3.584-25.088 9.728-13.312 13.312-13.312 35.84 0 50.176l19.456 19.456h-61.952c-143.36 0-191.488-61.44-191.488-243.2 1.024-18.432-13.824-35.328-32.256-37.376H491.52z"  horiz-adv-x="1024" />

    
    <glyph glyph-name="yijianfankui" unicode="&#59011;" d="M512-96.768c-265.216 0-481.28 215.552-481.28 480.768C30.72 649.216 246.272 865.28 512 865.28s481.28-215.552 481.28-481.28c0-265.216-216.064-480.768-481.28-480.768z m-4.096 888.32C281.6 791.552 97.28 607.744 97.28 381.44c0-226.304 183.808-410.112 410.112-410.112 226.304 0 410.624 184.32 410.624 410.112 0 226.304-183.808 410.112-410.112 410.112z m-6.656-670.208c-15.872 0-29.184 13.312-29.184 29.184v26.112c0 16.384 12.8 29.184 29.184 29.184h20.48c16.384 0 29.184-12.8 29.184-29.184v-26.112c0-16.384-13.312-29.184-29.184-29.184h-20.48z m0 162.304c-15.872 0-29.184 13.312-29.184 29.184V586.24c0 15.872 12.8 29.184 29.184 29.184h22.016c15.872 0 29.184-12.8 29.184-29.184v-273.408c0-15.872-13.312-29.184-29.184-29.184h-22.016z"  horiz-adv-x="1024" />

    
    <glyph glyph-name="zhiboyuanshehzi" unicode="&#59012;" d="M1012.485757 481.999c-6.14093 31.728136-25.075462 52.197901-49.127436 52.197902h-5.629186c-69.085457 0-125.377311 56.291854-125.377311 125.377311 0 22.516742 10.746627 47.592204 10.746627 47.592204 12.281859 27.634183 3.070465 61.921039-22.004998 79.32034l-1.535232 1.023488-126.4008 70.108945-1.535232 0.511745c-8.187906 3.582209-17.3993 5.629185-27.122439 5.629185-19.446277 0-38.892554-7.676162-51.686157-20.981509-13.817091-14.328836-61.921039-55.268366-98.766616-55.268366-37.357321 0-85.461269 41.963018-99.790105 56.291854C401.975012 857.107446 382.528736 865.295352 362.570715 865.295352c-9.211394 0-18.422789-1.535232-26.610695-5.117441l-1.535232-0.511744-131.006497-72.667666-1.535233-1.023489c-25.075462-17.3993-34.798601-51.174413-22.516741-79.320339 0 0 10.746627-25.075462 10.746627-47.592204 0-69.085457-56.291854-125.377311-125.377312-125.377312h-5.117441c-24.051974 0-42.986507-20.469765-49.127436-52.197901 0-2.046977-10.234883-56.803598-10.234883-99.790105s10.234883-97.743128 10.746627-100.301849c6.14093-31.728136 25.075462-52.197901 49.127436-52.197901h5.629185c69.085457 0 125.377311-56.291854 125.377312-125.377311 0-22.516742-10.746627-47.592204-10.746627-47.592204-12.281859-27.634183-3.070465-61.921039 22.004998-79.32034l1.535232-1.023488L327.772114-93.713143l1.535232-0.511745c8.187906-3.582209 17.3993-5.629185 26.610695-5.629185 19.958021 0 39.404298 8.187906 52.197901 22.004998 17.911044 19.446277 65.503248 58.850575 101.325337 58.850574 38.38081 0 87.508246-44.521739 101.837082-59.874063 12.793603-13.817091 32.23988-22.516742 52.197901-22.516741 9.211394 0 18.422789 1.535232 26.09895 5.117441l1.535233 0.511744 128.95952 71.132434 1.535232 1.023488c25.075462 17.3993 34.798601 51.686157 22.004998 79.32034 0 0-10.746627 25.587206-10.746627 47.592204 0 69.085457 56.291854 125.377311 125.377312 125.377311h5.117441c24.051974 0 42.986507 20.469765 49.127436 52.197901 0 0.511744 10.746627 56.291854 10.746627 100.301849 0 43.498251-10.234883 98.254873-10.746627 100.813593zM356.429785-27.698151l-109.001499 60.897551c4.605697 12.281859 14.328836 40.93953 14.328835 70.62069 0 103.372314-79.32034 188.833583-181.669165 196.509745-2.558721 14.328836-8.187906 51.686157-8.187906 80.855572 0 29.169415 5.629185 66.526737 8.187906 80.855573 102.348826 7.676162 181.669165 93.137431 181.669165 196.509745 0 29.681159-9.723138 58.338831-14.328835 70.620689L363.594203 793.13943c4.093953-4.093953 20.981509-20.981509 44.009995-37.357321 37.869065-27.122439 73.691154-40.427786 106.954523-40.427786 32.751624 0 68.573713 13.305347 105.931034 39.916042 23.028486 16.375812 39.404298 32.23988 43.498251 36.333833l111.56022-61.92104c-4.605697-12.281859-14.328836-40.93953-14.328836-70.620689 0-103.372314 79.32034-188.833583 181.669166-196.509745 2.558721-14.84058 8.187906-52.197901 8.187906-80.855573 0-29.169415-5.629185-66.526737-8.187906-80.855572-102.348826-7.676162-181.669165-93.137431-181.669166-196.509745 0-29.681159 9.723138-58.338831 14.328836-70.62069l-113.095452-62.432783c-5.117441 5.117441-21.493253 22.004998-44.009995 38.892554-38.38081 28.657671-75.226387 42.986507-109.513244 42.986506-33.775112 0-70.108946-14.328836-108.489755-41.963018-22.516742-16.887556-38.892554-33.775112-44.009995-38.892554z m334.168916 409.907047C690.598701 481.999 609.231384 563.366317 509.441279 563.366317s-181.157421-81.367316-181.157421-181.157421 81.367316-181.157421 181.157421-181.157422 181.157421 81.367316 181.157422 181.157422zM509.441279 491.722139c60.385807 0 109.513243-49.127436 109.513244-109.513243 0-60.385807-49.127436-109.513243-109.513244-109.513244-60.385807 0-109.513243 49.127436-109.513243 109.513244 0.511744 60.385807 49.127436 109.513243 109.513243 109.513243z"  horiz-adv-x="1024" />

    
    <glyph glyph-name="wendangguanli" unicode="&#59013;" d="M779.055 383.423v-67.292H243.791v67.292h535.264z m-1.153-200.339v-67.293H242.638v67.293h535.264zM680.231 896H159.195a94.594 94.594 0 0 1-94.21-94.21v-835.58a94.594 94.594 0 0 1 94.21-94.21h705.61a94.594 94.594 0 0 1 94.21 94.21V597.606zM649.47 831.784l244.56-261.095H693.69a44.99 44.99 0 0 0-44.989 44.99z m244.945-387.99v-463.357a44.99 44.99 0 0 0-45.375-45.759H173.422a44.99 44.99 0 0 0-44.99 44.99v807.51a44.99 44.99 0 0 0 44.99 45.375H583.33v-230.717a94.594 94.594 0 0 1 94.21-94.21h216.105z"  horiz-adv-x="1024" />

    
    <glyph glyph-name="kechengshehzi" unicode="&#59015;" d="M511.488-118.272c-3.072 0-5.632 0.512-8.704 1.024h-0.512c-0.512 0-2.048 0.512-3.584 1.024-1.536 0.512-3.584 1.024-5.12 1.536L35.84 68.608c-16.384 6.144-27.136 22.016-27.136 39.936V844.288c0 5.12 1.024 10.752 3.072 15.872 6.144 16.384 22.528 27.136 40.448 27.136 5.632 0 10.752-1.024 15.872-3.072L512 706.048l443.904 178.176c5.12 2.048 10.24 3.072 15.872 3.072 8.704 0 17.408-2.56 24.576-7.68 11.776-8.192 18.944-21.504 18.432-35.84v-735.744c0-17.408-10.752-33.28-27.136-39.936l-458.24-183.296-3.072-1.024c-3.072-1.024-5.12-1.536-6.144-2.048-3.072 0.512-5.632 0-8.704 0z m-449.536 228.864l409.6-162.816V650.752l-409.6 162.816v-702.976z m498.688 544.256v-703.488l407.04 162.304V816.64l-407.04-161.792zM341.504 180.736c-3.072 0-5.632 0.512-8.704 1.536L136.192 261.12c-8.192 3.072-14.336 11.776-14.336 20.48v24.064c0 13.824 11.264 22.016 22.528 22.016 3.072 0 5.632-0.512 8.192-1.536l196.096-78.848c8.192-3.072 14.336-11.776 14.336-20.48v-24.064c0.512-11.776-9.216-22.016-21.504-22.016zM680.448 193.536c-12.288 0-22.528 9.728-22.528 22.016v26.112c0 8.704 5.632 17.408 14.336 20.48l196.608 78.848c2.56 1.024 5.632 1.536 8.192 1.536 10.752 0 22.528-8.192 22.528-22.016v-26.112c0-8.704-5.632-17.408-14.336-20.48l-196.608-78.848c-2.56-1.024-5.12-1.536-8.192-1.536zM341.504 419.84c-3.072 0-5.632 0.512-8.704 1.536L136.704 499.712c-8.192 3.072-14.336 11.776-14.336 20.48v26.624c0 13.824 11.264 22.016 22.528 22.016 3.072 0 5.632-0.512 8.192-1.536l196.096-78.848c8.192-3.072 14.336-11.776 14.336-20.48v-26.112c0-11.776-9.728-22.016-22.016-22.016zM680.96 434.176c-12.288 0-22.528 9.728-22.528 22.016v24.064c0 8.704 5.632 17.408 14.336 20.48l196.608 78.848c2.56 1.024 5.632 1.536 8.192 1.536 10.752 0 22.528-8.192 22.528-22.016v-24.064c0-8.704-5.632-17.408-14.336-20.48l-196.608-78.848c-3.072-1.024-5.632-1.536-8.192-1.536z"  horiz-adv-x="1024" />

    
    <glyph glyph-name="CombinedShape" unicode="&#59016;" d="M757.248 835.584c-30.72 30.72-90.624 55.296-134.144 55.296H187.392C121.856 890.88 68.608 837.632 68.608 772.096v-775.68c0-65.536 53.248-118.784 118.784-118.784h648.704c65.536 0 118.784 53.248 118.784 118.784v563.2c0 43.008-25.088 103.424-55.296 134.144l-5.12 5.12-137.216 136.704z m-56.832-28.16l4.608-3.072c4.608-3.072 8.704-6.656 11.776-9.728l142.336-142.336c2.56-2.56 5.632-6.656 8.704-10.752 0.512-1.024 1.024-1.536 1.536-2.56l2.048-3.584H742.4c-23.552 0-41.984 18.944-41.984 41.984V807.424z m194.56-229.376l0.512-2.56c1.024-6.144 1.536-11.776 1.536-16.384v-563.2c0-33.792-27.648-60.928-60.928-60.928H187.392c-33.792 0-60.928 27.648-60.928 60.928V772.096c0 33.792 27.648 60.928 60.928 60.928h435.712c4.608 0 10.24-0.512 16.384-1.536l2.56-0.512v-210.944c0-23.552 18.944-41.984 41.984-41.984h210.944zM450.56 192.512c-44.544 0-89.088 32.768-89.088 106.496V403.456c0 73.728 45.056 106.496 89.088 106.496 20.48 0 41.472-6.144 62.976-18.944l90.112-52.224c37.888-22.016 59.392-53.76 59.392-88.064 0-34.304-21.504-66.048-59.392-88.064l-90.112-52.224c-21.504-11.776-42.496-17.92-62.976-17.92z m0 262.144c-21.504 0-33.792-18.944-33.792-51.2v-103.936c0-32.768 12.288-51.2 33.792-51.2 10.24 0 22.528 4.096 35.328 11.264l90.112 52.224c20.48 11.776 31.744 26.112 31.744 39.936s-11.264 28.16-31.744 39.936L485.888 443.392C473.088 450.56 460.8 454.656 450.56 454.656z"  horiz-adv-x="1024" />

    
    <glyph glyph-name="yinyue" unicode="&#59017;" d="M371.2 147.456c-40.448 0-73.728 32.768-73.728 73.728s32.256 73.728 73.728 73.728c8.704 0 17.408-1.536 26.112-5.12v168.96c0 18.944 14.848 34.304 33.28 34.304l199.68 23.552h4.096c17.92 0 33.28-15.36 33.28-33.792v-225.28c0-19.968-7.68-38.4-22.016-51.712-13.312-13.312-31.744-20.992-51.2-20.992-40.448 0-73.728 32.768-73.728 73.728s32.768 73.728 73.728 73.728c8.704 0 17.92-1.536 26.112-5.12V392.704L444.416 373.76v-153.088c-1.024-40.96-33.28-73.216-73.216-73.216z m0 98.816c-14.336 0-26.112-11.776-26.112-26.112s11.776-26.112 26.112-26.112 26.112 11.776 26.112 26.112c-0.512 14.848-11.776 26.112-26.112 26.112z m222.72 37.376c-14.336 0-26.112-11.776-26.112-26.112s11.776-26.112 26.112-26.112 26.112 11.776 26.112 26.112-11.776 26.112-26.112 26.112zM443.904 421.376L619.52 440.32v28.16l-175.616-20.48v-26.624zM760.32 835.584c-30.72 30.72-90.624 55.296-134.144 55.296H190.464C124.928 890.88 71.68 837.632 71.68 772.096v-775.68c0-65.536 53.248-118.784 118.784-118.784H839.68c65.536 0 118.784 53.248 118.784 118.784v563.2c0 43.008-25.088 103.424-55.296 134.144l-5.12 5.12-137.728 136.704z m-56.832-28.16l4.608-3.072c4.608-3.072 8.704-6.656 11.776-9.728l142.336-142.336c2.56-2.56 5.632-6.656 8.704-10.752 0.512-1.024 1.024-1.536 1.536-2.56l2.048-3.584h-129.024c-23.552 0-41.984 18.944-41.984 41.984V807.424z m194.56-229.376l0.512-2.56c1.024-6.144 1.536-11.776 1.536-16.384v-563.2c0-33.792-27.648-60.928-60.928-60.928H190.464c-33.792 0-60.928 27.648-60.928 60.928V772.096c0 33.792 27.648 60.928 60.928 60.928h435.712c4.608 0 10.24-0.512 16.384-1.536l2.56-0.512v-210.944c0-23.552 18.944-41.984 41.984-41.984h210.944z"  horiz-adv-x="1024" />

    
    <glyph glyph-name="yasuobao-" unicode="&#59018;" d="M323.584 572.416h89.6v-57.856H323.584V572.416z m95.744-64h89.6V450.56H419.328V508.416zM323.584 699.904h89.6v-57.856H323.584V699.904z m0-254.976h89.6v-57.856H323.584V444.928z m95.744 190.976h89.6v-57.856H419.328V635.904zM419.328 763.392h89.6v-57.856H419.328V763.392zM323.584 317.44v-220.16c0-15.872 12.8-29.184 29.184-29.184h127.488c15.872 0 29.184 12.8 29.184 29.184v283.648H419.84V317.44H323.584z m159.744-121.856v-69.632h-133.12v69.632h133.12zM762.368 835.584c-30.72 30.72-90.624 55.296-134.144 55.296H192.512C126.976 890.88 73.728 837.632 73.728 772.096v-775.68c0-65.536 53.248-118.784 118.784-118.784h648.704c65.536 0 118.784 53.248 118.784 118.784v563.2c0 43.008-25.088 103.424-55.296 134.144l-5.12 5.12-137.216 136.704z m-56.832-28.16l4.608-3.072c4.608-3.072 8.704-6.656 11.776-9.728l142.336-142.336c2.56-2.56 5.632-6.656 8.704-10.752 0.512-1.024 1.024-1.536 1.536-2.56l2.048-3.584H747.52c-23.552 0-41.984 18.944-41.984 41.984V807.424z m194.56-229.376l0.512-2.56c1.024-6.144 1.536-11.776 1.536-16.384v-563.2c0-33.792-27.648-60.928-60.928-60.928H192.512c-33.792 0-60.928 27.648-60.928 60.928V772.096c0 33.792 27.648 60.928 60.928 60.928h435.712c4.608 0 10.24-0.512 16.384-1.536l2.56-0.512v-210.944c0-23.552 18.944-41.984 41.984-41.984h210.944z"  horiz-adv-x="1024" />

    
    <glyph glyph-name="tupian-" unicode="&#59019;" d="M111.616-41.472c-40.96 0-76.288 23.04-90.624 58.88-7.168 17.408-7.168 34.816-6.656 52.736V685.568v9.728 20.48c3.072 53.248 43.52 93.696 94.72 93.696h769.024c46.592 0 103.936 0 127.488-58.88 10.752-27.648 9.216-63.488 7.68-94.72-0.512-10.24-1.024-20.48-1.024-29.696V52.224c0-1.536 0-3.072-0.512-4.608-5.12-53.76-46.08-89.088-105.472-89.088H111.616z m742.912 59.904c5.12 0 11.264-0.512 17.408-0.512 7.168-0.512 14.336-0.512 22.016-0.512 39.936 0 57.344 10.752 58.88 35.328V633.344c0 5.12 0.512 11.264 1.024 18.944 2.048 32.768 5.632 87.552-22.528 95.232-10.752 3.072-23.04 4.096-38.912 4.096-10.24 0-20.48-0.512-30.72-1.024-9.728-0.512-19.456-1.024-28.16-1.024H169.472c-4.608 0-10.24 0-15.872 0.512-6.656 0.512-13.824 0.512-20.992 0.512-40.448 0-57.856-10.752-57.856-35.328v-648.192c0-17.408 0-35.328 16.896-44.032 7.68-4.096 15.872-4.608 26.112-4.608h736.768zM718.336-19.968c-7.168 0-13.824 2.56-19.968 7.68l-425.472 372.224-207.872-168.448c-5.632-4.608-12.288-7.168-19.456-7.168-13.312 0-26.624 9.216-31.232 21.504-3.584 10.752-0.512 20.992 8.704 28.672l229.376 185.856c6.656 5.12 13.824 8.192 20.992 8.192 7.168 0 14.336-3.072 20.48-8.192l445.44-390.144c9.216-8.192 12.288-18.944 8.192-29.696-3.584-11.264-16.384-20.48-29.184-20.48z m-131.584 442.88h-4.096c-35.84 1.024-71.168 15.872-96.768 40.96-27.136 26.112-41.984 60.416-40.448 96.768 2.56 75.776 62.464 137.728 133.632 137.728h4.096c74.752-2.56 132.608-58.368 137.216-132.608 0-1.536 0.512-3.584 0-5.12 0-1.536 0-3.584-0.512-5.632-4.608-73.728-63.488-132.096-133.12-132.096z m-3.584 215.552c-20.48-0.512-40.448-9.216-55.296-23.04-15.36-14.848-23.552-33.792-22.528-54.272 1.536-43.008 35.328-77.824 75.264-77.824h2.56c43.52 1.536 76.288 34.304 77.824 77.824-1.536 42.496-35.328 77.824-75.264 77.824-1.024-0.512-2.048-0.512-2.56-0.512zM981.504 92.16c-7.168 0-14.336 3.072-19.968 8.704l-211.968 204.288-145.408-163.328c-5.632-6.144-12.8-9.728-19.968-9.728-11.264 0-22.528 7.68-27.648 19.456-5.12 11.264-3.072 23.04 5.12 32.256l164.864 185.344c5.12 5.632 12.288 8.704 20.48 8.704s16.384-3.072 22.016-8.704L1003.52 143.36c8.704-8.704 11.264-19.968 7.168-30.72-5.12-11.776-16.896-20.48-29.184-20.48z"  horiz-adv-x="1024" />

    
    <glyph glyph-name="liebiao" unicode="&#59020;" d="M400.896 415.232H160.768c-39.936 0-72.192 32.256-72.192 72.192V727.552c0 39.936 32.256 72.192 72.192 72.192h240.128c39.936 0 72.192-32.256 72.192-72.192v-240.128c-0.512-39.936-32.768-72.192-72.192-72.192z m-240.128 320c-4.096 0-8.192-3.584-8.192-8.192v-240.128c0-4.096 3.584-8.192 8.192-8.192h240.128c4.096 0 8.192 3.584 8.192 8.192V727.04c0 4.096-3.584 8.192-8.192 8.192H160.768z m702.464-320H623.104c-39.936 0-72.192 32.256-72.192 72.192V727.552c0 39.936 32.256 72.192 72.192 72.192h240.128c39.936 0 72.192-32.256 72.192-72.192v-240.128c-0.512-39.936-32.768-72.192-72.192-72.192z m-240.128 320c-4.096 0-8.192-3.584-8.192-8.192v-240.128c0-4.096 3.584-8.192 8.192-8.192h240.128c4.096 0 8.192 3.584 8.192 8.192V727.04c0 4.096-3.584 8.192-8.192 8.192H623.104zM400.896-33.28H160.768c-39.936 0-72.192 32.256-72.192 72.192V279.04c0 39.936 32.256 72.192 72.192 72.192h240.128c39.936 0 72.192-32.256 72.192-72.192v-240.128c-0.512-39.936-32.768-72.192-72.192-72.192z m-240.128 320c-4.096 0-8.192-3.584-8.192-8.192V38.4c0-4.096 3.584-8.192 8.192-8.192h240.128c4.096 0 8.192 3.584 8.192 8.192V278.528c0 4.096-3.584 8.192-8.192 8.192H160.768z m702.464-320H623.104c-39.936 0-72.192 32.256-72.192 72.192V279.04c0 39.936 32.256 72.192 72.192 72.192h240.128c39.936 0 72.192-32.256 72.192-72.192v-240.128c-0.512-39.936-32.768-72.192-72.192-72.192z m-240.128 320c-4.096 0-8.192-3.584-8.192-8.192V38.4c0-4.096 3.584-8.192 8.192-8.192h240.128c4.096 0 8.192 3.584 8.192 8.192V278.528c0 4.096-3.584 8.192-8.192 8.192H623.104z"  horiz-adv-x="1024" />

    
    <glyph glyph-name="liebiao1" unicode="&#59021;" d="M928 673.162H591.777c-17.673 0-32 14.327-32 32v0.036c0 17.673 14.327 32 32 32H928c17.673 0 32-14.327 32-32v-0.036c0-17.674-14.327-32-32-32z m0-190.107H591.777c-17.673 0-32 14.327-32 32v0.036c0 17.673 14.327 32 32 32H928c17.673 0 32-14.327 32-32v-0.036c0-17.673-14.327-32-32-32z m-551.826-67.037H136.04c-39.723 0-72.04 32.317-72.04 72.04V728.192c0 39.723 32.317 72.04 72.04 72.04h240.134c39.723 0 72.04-32.317 72.04-72.04v-240.134c0-39.723-32.316-72.04-72.04-72.04zM136.04 736.197c-4.339 0-8.004-3.666-8.004-8.004v-240.134c0-4.339 3.666-8.004 8.004-8.004h240.134c4.339 0 8.004 3.666 8.004 8.004V728.192c0 4.339-3.666 8.004-8.004 8.004H136.04zM928 224.911H591.777c-17.673 0-32 14.327-32 32v0.036c0 17.673 14.327 32 32 32H928c17.673 0 32-14.327 32-32v-0.036c0-17.673-14.327-32-32-32z m0-190.106H591.777c-17.673 0-32 14.327-32 32v0.036c0 17.673 14.327 32 32 32H928c17.673 0 32-14.327 32-32v-0.036c0-17.673-14.327-32-32-32z m-551.826-67.037H136.04c-39.723 0-72.04 32.317-72.04 72.04V279.942c0 39.723 32.317 72.04 72.04 72.04h240.134c39.723 0 72.04-32.317 72.04-72.04v-240.134c0-39.723-32.316-72.04-72.04-72.04zM136.04 287.946c-4.339 0-8.004-3.666-8.004-8.004v-240.134c0-4.339 3.666-8.004 8.004-8.004h240.134c4.339 0 8.004 3.666 8.004 8.004V279.942c0 4.339-3.666 8.004-8.004 8.004H136.04z"  horiz-adv-x="1024" />

    
    <glyph glyph-name="jinzhiyuyin" unicode="&#59022;" d="M349.696-99.84c-17.408 0-31.744 14.336-31.744 31.744s14.336 31.744 31.744 31.744h135.68v79.872c-89.088 7.68-172.032 48.128-233.984 113.152-62.464 66.048-97.28 151.552-98.816 241.664V554.496c0 17.408 14.336 31.744 31.744 31.744s31.744-14.336 31.744-31.744V399.36c2.048-161.792 136.704-293.376 300.544-293.376 163.328 0 297.984 131.072 300.544 292.352V555.008c0 17.408 14.336 31.744 31.744 31.744 8.704 0 16.384-3.072 22.528-9.216 6.144-6.144 9.216-13.824 9.216-22.528v-157.696c-1.536-89.088-36.864-174.592-99.328-240.64-61.952-65.024-144.384-104.96-233.472-112.64V-35.84h135.68c17.408 0 31.744-14.336 31.744-31.744s-14.336-31.744-31.744-31.744H349.696z m167.424 292.352c-115.712 0-209.92 93.184-209.92 207.872v261.12c0 114.688 94.208 207.872 209.92 207.872s209.92-93.184 209.92-207.872v-261.12c0-114.176-94.208-207.872-209.92-207.872z m0 613.888c-80.896 0-146.432-65.024-146.432-144.896v-261.12c0-79.872 65.536-144.896 146.432-144.896s146.432 65.024 146.432 144.896v261.12c0 80.384-65.536 144.896-146.432 144.896zM161.28 175.104c-12.288 13.312-10.752 34.304 3.584 46.08L829.44 761.856c12.8 10.752 31.744 9.216 43.008-3.072 12.288-13.312 10.752-34.304-3.584-46.08L204.8 172.032c-13.312-10.752-32.256-9.216-43.52 3.072z"  horiz-adv-x="1024" />

    
    <glyph glyph-name="speech" unicode="&#59023;" d="M349.696-99.84c-17.408 0-31.744 14.336-31.744 31.744s14.336 31.744 31.744 31.744h135.68v79.872c-89.088 7.68-172.032 48.128-233.984 113.152-62.464 66.048-97.28 151.552-98.816 241.664V554.496c0 17.408 14.336 31.744 31.744 31.744s31.744-14.336 31.744-31.744V399.36c2.048-161.792 136.704-293.376 300.544-293.376 163.328 0 297.984 131.072 300.544 292.352V555.008c0 17.408 14.336 31.744 31.744 31.744 8.704 0 16.384-3.072 22.528-9.216 6.144-6.144 9.216-13.824 9.216-22.528v-157.696c-1.536-89.088-36.864-174.592-99.328-240.64-61.952-65.024-144.384-104.96-233.472-112.64V-35.84h135.68c17.408 0 31.744-14.336 31.744-31.744s-14.336-31.744-31.744-31.744H349.696z m167.424 292.352c-115.712 0-209.92 93.184-209.92 207.872v261.12c0 114.688 94.208 207.872 209.92 207.872s209.92-93.184 209.92-207.872v-261.12c0-114.176-94.208-207.872-209.92-207.872z m0 613.888c-80.896 0-146.432-65.024-146.432-144.896v-261.12c0-79.872 65.536-144.896 146.432-144.896s146.432 65.024 146.432 144.896v261.12c0 80.384-65.536 144.896-146.432 144.896z"  horiz-adv-x="1024" />

    
    <glyph glyph-name="tongzhigonggao" unicode="&#59024;" d="M983.388913 442.390084H785.869949c-22.474996 0-40.598992-22.526996-40.598992-50.173991v-15.665997c0-27.696995 18.123997-50.121991 40.599992-50.12199h197.464964c22.424996 0 40.599992 22.424996 40.599992 50.12199v15.665997c0 27.646995-18.174997 50.172991-40.599992 50.172991zM525.074998 872.851004c-61.436989-60.155989-189.939965-144.476973-282.401948-225.572958-1.075-0.717-2.253-5.119999-3.276999-5.938999-11.006998-7.576999-15.819997-28.516995-75.258986-28.516994H48.279086C18.482092 612.670053 0.000095 595.520056 0.000095 556.814063v-343.939936c0-38.601993 16.945997-57.800989 48.278991-57.80099h116.318978c59.131989 0 63.944988-20.836996 74.746987-28.414994 1.024-0.665 2.048-5.119999 3.173999-6.091999 89.645983-81.095985 218.969959-172.071968 282.452948-229.617958 19.198996-17.406997 82.784985-47.970991 82.784984 59.490989V817.918014C607.859982 925.429995 543.709994 891.180001 525.074998 872.852004zM707.589964 635.811048c10.239998-22.782996 31.127994-28.516995 46.435991-12.747997l162.39597 168.539968c15.359997 15.716997 18.993996 46.997991 8.600998 69.780987l-6.040999 12.901998c-10.239998 22.832996-31.229994 28.566995-46.537991 12.849998L710.099963 718.647033c-15.359997-15.767997-18.942996-46.997991-8.498998-69.780987l5.989999-13.054998z m46.076991-490.925909c-15.358997 15.716997-35.836993 10.238998-46.434991-12.747997l-5.836999-12.849998c-10.545998-22.885996-6.654999-54.06499 8.549998-69.832987l162.24297-168.539969c15.359997-15.666997 35.837993-10.239998 46.486992 12.798998l5.989998 12.799998c10.239998 22.883996 6.654999 54.11399-8.549998 69.779987z"  horiz-adv-x="1024" />

    
    <glyph glyph-name="pdf" unicode="&#59025;" d="M760.32 835.584c-30.72 30.72-90.624 55.296-134.144 55.296H190.464C124.928 890.88 71.68 837.632 71.68 772.096v-775.68c0-65.536 53.248-118.784 118.784-118.784H839.68c65.536 0 118.784 53.248 118.784 118.784v563.2c0 43.008-25.088 103.424-55.296 134.144l-5.12 5.12-137.728 136.704z m-56.832-28.16l4.608-3.072c4.608-3.072 8.704-6.656 11.776-9.728l142.336-142.336c2.56-2.56 5.632-6.656 8.704-10.752 0.512-1.024 1.024-1.536 1.536-2.56l2.048-3.584h-129.024c-23.552 0-41.984 18.944-41.984 41.984V807.424z m194.56-229.376l0.512-2.56c1.024-6.144 1.536-11.776 1.536-16.384v-563.2c0-33.792-27.648-60.928-60.928-60.928H190.464c-33.792 0-60.928 27.648-60.928 60.928V772.096c0 33.792 27.648 60.928 60.928 60.928h435.712c4.608 0 10.24-0.512 16.384-1.536l2.56-0.512v-210.944c0-23.552 18.944-41.984 41.984-41.984h210.944zM653.312 97.792l4.096 5.12c-28.16 12.8-55.808 50.176-82.944 111.616-30.208 12.8-61.44 23.04-90.112 30.208-34.304-22.528-82.944-48.64-121.856-48.64-29.696 0-51.2 15.36-58.88 41.472-7.68 25.088 2.048 40.96 6.656 46.592 12.288 16.896 36.352 25.6 72.192 25.6 25.6 0 57.856-4.096 92.16-12.288 20.48 14.336 39.936 30.72 58.368 47.616-10.24 51.712-16.896 119.296 9.728 153.6 11.264 14.336 27.136 21.504 45.568 21.504 7.168 0 15.36-1.024 23.04-3.584 33.28-9.728 43.52-31.744 47.104-44.032 9.216-36.352-14.848-84.48-71.168-143.36 7.68-29.184 16.384-55.808 25.6-78.336 71.68-32.768 109.568-64 115.2-95.744 3.072-15.872-1.536-31.232-14.336-43.52l-0.512-0.512c-10.752-9.216-22.528-13.824-34.304-13.824h-25.6z m-2.56 77.312c14.336-21.504 24.576-28.16 27.648-29.184 0 0 0.512 0.512 1.024 0.512-2.048 6.144-10.24 16.384-28.672 28.672z m-301.056 79.872c0-0.512 0-1.536 0.512-3.584 1.024-3.584 1.536-7.168 12.288-7.168 12.288 0 28.672 5.12 49.152 14.336-10.752 1.536-20.48 2.048-29.184 2.048-22.016 0.512-30.208-4.096-32.768-5.632z m184.32 26.112c6.144-2.048 11.776-4.096 17.92-6.144-1.536 5.12-3.584 10.752-5.12 16.384-4.096-3.072-8.704-6.656-12.8-10.24zM588.8 471.552c-3.584 0-5.632-1.024-7.68-3.584-8.704-10.752-10.752-40.448-5.632-78.848 32.768 39.424 38.4 63.488 36.352 71.68-0.512 3.584-5.632 6.656-12.8 8.704l-1.024 0.512c-2.56 1.024-5.632 1.536-8.192 2.048h-1.024z"  horiz-adv-x="1024" />

    
    <glyph glyph-name="duanxin" unicode="&#59026;" d="M156.849575 3.518241c-71.644178 0-129.983008 58.850575-129.983008 131.006497V621.705147C26.354823 693.861069 85.205397 752.711644 156.849575 752.711644H870.22089c70.108946 0 127.936032-56.291854 129.983008-126.400799V134.524738c0-72.155922-58.338831-131.006497-129.983008-131.006497H156.849575zM86.74063 645.757121c-3.070465-8.69965-4.605697-16.887556-4.605697-25.075462V133.501249c0-41.451274 34.286857-75.738131 76.761619-75.738131h713.883058c41.451274 0 74.202899 33.263368 74.202899 75.738131V620.681659c0 12.281859-2.046977 23.028486-6.652674 32.751624l-370.502749-353.103448c-5.629185-6.14093-22.004998-20.469765-53.733133-20.469765s-48.103948 14.328836-54.244878 20.469765L86.74063 645.757121z m415.536232-308.069965c1.535232-1.023488 5.629185-3.070465 13.305347-3.070464s11.770115 2.046977 13.305347 3.070464l1.535233 1.535233 0.511744 0.511744L900.925537 691.814093c-9.723138 4.093953-18.934533 6.14093-28.657671 6.140929H158.896552c-12.281859 0-24.563718-3.582209-36.333833-9.723138l377.155422-348.497751c0.511744-0.511744 0.511744-0.511744 1.023488-0.511744l1.535233-1.535233z"  horiz-adv-x="1024" />

    
    <glyph glyph-name="xiajiantou" unicode="&#59027;" d="M511.488 137.216c-11.264 0-21.504 4.096-29.184 12.288-1.536 1.536-2.56 2.56-3.584 4.096L68.096 563.712c-15.872 15.872-15.872 41.984 0 57.856 7.68 7.68 18.432 12.288 29.184 12.288s20.992-4.096 28.672-11.776l385.024-385.024 384 384c7.68 7.68 17.92 11.776 28.672 11.776 11.264 0 21.504-4.096 29.184-12.288 7.68-7.68 12.288-17.92 12.288-29.184 0-10.752-4.096-21.504-11.776-29.184L539.648 148.48c-7.168-7.168-17.408-11.264-28.16-11.264z"  horiz-adv-x="1024" />

    
    <glyph glyph-name="shangjiantou" unicode="&#59028;" d="M539.648 622.592l413.696-413.696c7.68-7.68 11.776-18.432 11.776-29.184 0-11.264-4.608-21.504-12.288-29.184-7.68-8.192-17.92-12.288-29.184-12.288-10.752 0-20.992 4.096-28.672 11.776l-384 384-385.024-385.024c-7.68-7.68-17.92-11.776-28.672-11.776s-21.504 4.608-29.184 12.288c-15.872 15.872-15.872 41.984 0 57.856l410.624 410.112c1.024 1.536 2.048 2.56 3.584 4.096 7.68 8.192 17.92 12.288 29.184 12.288 10.752 0 20.992-4.096 28.16-11.264z"  horiz-adv-x="1024" />

    
    <glyph glyph-name="zuojiantou" unicode="&#59029;" d="M274.944 413.184l413.696 413.696c7.68 7.68 18.432 11.776 29.184 11.776 11.264 0 21.504-4.608 29.184-12.288 8.192-7.68 12.288-17.92 12.288-29.184 0-10.752-4.096-20.992-11.776-28.672l-384-384 385.024-385.024c7.68-7.68 11.776-17.92 11.776-28.672 0-10.752-4.608-21.504-12.288-29.184-15.872-15.872-41.984-15.872-57.856 0l-410.112 410.624c-1.536 1.024-2.56 2.048-4.096 3.584-8.192 7.68-12.288 17.92-12.288 29.184 0 10.752 4.096 20.992 11.264 28.16z"  horiz-adv-x="1024" />

    
    <glyph glyph-name="youjiantou" unicode="&#59030;" d="M760.32 385.024c0-11.264-4.096-21.504-12.288-29.184-1.536-1.536-2.56-2.56-4.096-3.584l-410.112-410.624c-15.872-15.872-41.984-15.872-57.856 0-7.68 7.68-12.288 18.432-12.288 29.184s4.096 20.992 11.776 28.672L660.48 384.512l-384 384c-7.68 7.68-11.776 17.92-11.776 28.672 0 11.264 4.096 21.504 12.288 29.184 7.68 7.68 17.92 12.288 29.184 12.288 10.752 0 21.504-4.096 29.184-11.776l413.696-413.696c7.168-7.168 11.264-17.408 11.264-28.16z"  horiz-adv-x="1024" />

    
    <glyph glyph-name="jiahao" unicode="&#59031;" d="M509.953023-55.332334c-22.516742 0-38.38081 22.516742-44.009995 44.009995v356.685657H109.769115c-17.911044 0-38.38081 16.887556-38.380809 38.38081 0 20.469765 17.3993 38.892554 36.845577 38.892554 2.046977 0 4.093953 0 6.14093-0.511744H472.083958V778.298851c0 20.981509 15.352324 44.009995 38.38081 44.009995 21.493253 0 38.38081-20.469765 38.380809-38.38081v-356.685657H916.277861c21.493253 0 32.751624-25.587206 32.751624-44.009995 0-17.911044-16.887556-38.38081-38.380809-38.38081h-361.803099v-361.803098c-0.511744-17.3993-17.3993-38.38081-38.892554-38.38081z"  horiz-adv-x="1024" />

    
    <glyph glyph-name="jianhao" unicode="&#59032;" d="M466.454773 345.363318H109.769115c-17.911044 0-38.38081 16.887556-38.380809 38.38081 0 20.469765 17.3993 44.009995 36.845577 44.009995 2.046977 0 4.093953 0.511744 6.14093 0H916.277861c21.493253 0 32.751624-25.587206 32.751624-44.009995 0-17.911044-16.887556-38.38081-38.380809-38.38081H466.454773z"  horiz-adv-x="1024" />

    
    <glyph glyph-name="word" unicode="&#59033;" d="M757.248 835.584c-30.72 30.72-90.624 55.296-134.144 55.296H187.392C121.856 890.88 68.608 837.632 68.608 772.096v-775.68c0-65.536 53.248-118.784 118.784-118.784h648.704c65.536 0 118.784 53.248 118.784 118.784v563.2c0 43.008-25.088 103.424-55.296 134.144l-5.12 5.12-137.216 136.704z m-56.832-28.16l4.608-3.072c4.608-3.072 8.704-6.656 11.776-9.728l142.336-142.336c2.56-2.56 5.632-6.656 8.704-10.752 0.512-1.024 1.024-1.536 1.536-2.56l2.048-3.584H742.4c-23.552 0-41.984 18.944-41.984 41.984V807.424z m194.56-229.376l0.512-2.56c1.024-6.144 1.536-11.776 1.536-16.384v-563.2c0-33.792-27.648-60.928-60.928-60.928H187.392c-33.792 0-60.928 27.648-60.928 60.928V772.096c0 33.792 27.648 60.928 60.928 60.928h435.712c4.608 0 10.24-0.512 16.384-1.536l2.56-0.512v-210.944c0-23.552 18.944-41.984 41.984-41.984h210.944zM410.624 130.56c-8.192 0-15.36 1.536-20.992 4.608-5.632 3.072-10.24 7.68-14.336 13.312-4.096 6.656-7.68 13.824-10.752 22.016l-3.584 9.216c-1.536 4.608-3.072 8.704-4.096 11.776l-66.56 196.608c-8.192 22.016-9.728 32.256-9.728 36.864 0 7.68 3.072 14.336 9.216 20.992 6.144 6.144 13.824 9.216 22.528 9.216 12.288 0 19.968-3.072 24.064-9.728 4.608-7.168 9.728-20.48 14.848-38.4L409.6 209.408 461.824 394.24c5.12 17.92 8.704 29.696 11.264 36.352 2.048 5.632 6.656 11.264 12.8 16.896 6.144 5.12 14.336 7.68 25.6 7.68s19.968-2.56 25.6-7.68c6.144-5.632 10.752-11.264 13.312-17.408 2.048-5.12 5.632-15.36 11.776-35.328l53.248-184.32 57.344 197.632c4.096 14.848 6.656 23.04 8.704 28.16 2.048 5.12 5.12 9.728 9.728 13.824 4.608 3.584 10.752 5.632 19.456 5.632 8.704 0 16.384-3.072 22.528-8.704 6.144-6.144 9.728-12.8 9.728-20.992 0-8.192-3.072-20.48-8.704-36.864l-66.048-196.608c-5.632-16.384-10.24-28.16-13.312-35.84-3.072-6.656-7.68-12.8-13.824-18.432-6.144-5.12-14.848-7.68-25.6-7.68-11.264 0-20.48 2.56-26.624 8.192-6.656 5.632-11.264 12.8-14.336 20.992-3.584 9.728-7.168 20.992-11.264 34.816l-51.712 174.08-48.64-174.08c-5.632-21.504-12.288-38.4-18.944-49.152-6.144-9.728-16.896-14.848-33.28-14.848z"  horiz-adv-x="1024" />

    
    <glyph glyph-name="zanting1" unicode="&#59034;" d="M353.35932 335.128436v-356.685657c0-17.911044-16.887556-38.38081-38.380809-38.38081-20.469765 0-44.009995 17.3993-44.009995 36.845577 0 2.046977-0.511744 4.093953 0 6.14093V784.951524c0 21.493253 25.587206 32.751624 44.009995 32.751624 17.911044 0 38.38081-16.887556 38.380809-38.380809V335.128436zM763.778111 335.128436v-356.685657c0-17.911044-16.887556-38.38081-38.38081-38.38081-20.469765 0-44.009995 17.3993-44.009995 36.845577 0 2.046977-0.511744 4.093953 0 6.14093V784.951524c0 21.493253 25.587206 32.751624 44.009995 32.751624 17.911044 0 38.38081-16.887556 38.38081-38.380809V335.128436z"  horiz-adv-x="1024" />

    
    <glyph glyph-name="fanhuidingbu" unicode="&#59035;" d="M633.856 514.048v-343.04c0-16.896-13.824-30.72-30.72-30.72h-184.32c-16.896 0-30.72 13.824-30.72 30.72v343.04H216.064c-16.896 0-30.72 13.824-30.72 30.72 0 8.192 3.072 15.872 8.704 21.504L488.96 865.28c11.776 12.288 31.232 12.288 43.52 0.512l0.512-0.512 295.424-299.008c11.776-12.288 11.776-31.744-0.512-43.52-5.632-5.632-13.312-8.704-21.504-8.704h-172.544zM51.2 15.872h921.6c16.896 0 30.72-13.824 30.72-30.72v-62.976c0-16.896-13.824-30.72-30.72-30.72H51.2c-16.896 0-30.72 13.824-30.72 30.72v62.976c0 16.896 13.824 30.72 30.72 30.72z"  horiz-adv-x="1024" />

    
    <glyph glyph-name="boshizhishiguanliicon-" unicode="&#59036;" d="M512.151834 166.252874c-11.258371 0-22.004998 3.070465-31.728135 8.69965L31.112354 437.477261C1.431195 454.876562-8.803688 493.257371 8.595613 522.938531c5.629185 9.723138 13.817091 17.3993 23.028485 23.028485l449.311345 253.313344c18.934533 10.746627 42.474763 10.746627 61.409295 0l449.311344-253.313344c30.192904-16.887556 40.427786-54.756622 23.54023-84.949525-5.629185-9.723138-13.305347-17.911044-23.028486-23.028486L543.87997 174.44078c-9.723138-5.629185-20.469765-8.187906-31.728136-8.187906z m0 598.228885c-3.582209 0-6.652674-1.023488-9.723138-2.558721L53.117352 508.609695c-9.723138-5.117441-12.793603-17.3993-7.676162-27.122439 1.535232-3.070465 4.093953-5.629185 7.164418-7.164417L501.916952 211.286357c6.14093-3.582209 13.817091-3.582209 19.958021 0l449.311344 263.036482c9.211394 5.629185 12.793603 17.3993 7.164418 27.122438-1.535232 3.070465-4.093953 5.629185-7.164418 7.164418l-449.311344 253.313343c-2.558721 2.046977-6.14093 2.558721-9.723139 2.558721zM512.151834-39.468266c-5.117441 0-10.234883 1.535232-14.840579 3.582209l-238.984508 128.95952c-10.234883 5.629185-16.375812 15.864068-16.375812 27.634183v212.885557c0 10.746627 5.629185 20.981509 15.352324 26.610695l238.984508 143.8001c9.723138 6.14093 22.516742 6.14093 32.23988 0l238.984507-143.8001c9.211394-5.629185 15.352324-15.864068 15.352324-26.610695v-212.373813c0-11.258371-6.14093-22.004998-16.375812-27.634183L527.504158-35.374313c-4.605697-2.558721-9.723138-4.093953-15.352324-4.093953z m0 498.950525c-5.629185 0-11.258371-1.535232-16.375812-4.605697l-196.509745-118.212894c-9.211394-5.629185-14.84058-15.864068-14.840579-26.610694v-163.246377c0-11.258371 6.14093-22.004998 16.375812-27.634183l196.509745-105.931035c9.211394-5.117441 20.469765-5.117441 29.681159 0l196.509745 105.931035c10.234883 5.629185 16.375812 15.864068 16.375812 27.634183v163.246377c0 10.746627-5.629185 20.981509-15.352323 26.610694l-196.509746 118.212894c-4.605697 3.070465-10.234883 4.605697-15.864068 4.605697zM533.645088 776.251874v-303.464268h-42.474763V776.251874h42.474763z m0-585.435282v-204.697651h-42.474763v204.697651h42.474763z"  horiz-adv-x="1024" />

    
    <glyph glyph-name="guanbi" unicode="&#59037;" d="M821.093453 81.303348c-15.864068-15.864068-42.986507-11.258371-62.432783 0L506.882559 333.593203l-251.778111-251.778111c-12.793603-12.793603-38.892554-15.352324-54.244878 0-14.328836 14.328836-15.352324 39.916042-1.535232 53.733134 1.535232 1.535232 3.070465 3.070465 4.605697 4.093953l0.511744 0.511744 0.511744 0.511744 251.778111 251.778111L204.953523 644.221889c-14.84058 14.84058-20.469765 41.963018-4.093953 58.338831 15.352324 15.352324 41.451274 12.793603 54.244878 0l252.289855-252.289855 259.966017 259.966017c15.352324 15.352324 41.451274 5.117441 54.244877-8.187906 12.793603-12.793603 15.352324-38.892554 0-54.244878l-255.872064-255.872064 255.872064-255.872064c12.281859-12.793603 14.84058-39.404298-0.511744-54.756622z"  horiz-adv-x="1024" />

    
    </font>
</defs>
</svg>
