<?xml version="1.0" standalone="no"?><!DOCTYPE svg PUBLIC "-//W3C//DTD SVG 1.1//EN" "http://www.w3.org/Graphics/SVG/1.1/DTD/svg11.dtd"><svg t="1534228630430" class="icon" style="" viewBox="0 0 1024 1024" version="1.1" xmlns="http://www.w3.org/2000/svg" p-id="2345" xmlns:xlink="http://www.w3.org/1999/xlink" width="20" height="20"><defs><style type="text/css"></style></defs><path d="M899.121951 661.853659 287.219512 661.853659 287.219512 62.439024c0-31.219512-31.219512-62.439024-62.439024-62.439024s-62.439024 31.219512-62.439024 62.439024L162.341463 74.926829 87.414634 74.926829c-31.219512 0-62.439024 31.219512-62.439024 62.439024s31.219512 62.439024 62.439024 62.439024l74.926829 0 0 530.731707c0 31.219512 31.219512 62.439024 62.439024 62.439024 0 0 0 0 0 0 0 0 0 0 0 0l518.243902 0 0 174.829268c0 31.219512 24.97561 56.195122 56.195122 56.195122l6.243902 0c31.219512 0 56.195122-24.97561 56.195122-56.195122l0-174.829268 31.219512 0c37.463415 0 62.439024-31.219512 62.439024-62.439024S936.585366 661.853659 899.121951 661.853659z" p-id="2346" fill="#ffffff"></path><path d="M368.390244 199.804878l374.634146 0 0 374.634146c0 31.219512 24.97561 62.439024 62.439024 62.439024 31.219512 0 62.439024-31.219512 62.439024-62.439024L867.902439 137.365854c0-31.219512-31.219512-62.439024-62.439024-62.439024l-437.073171 0c-37.463415 0-62.439024 31.219512-62.439024 62.439024S330.926829 199.804878 368.390244 199.804878z" p-id="2347" fill="#ffffff"></path></svg>