<?xml version="1.0" standalone="no"?><!DOCTYPE svg PUBLIC "-//W3C//DTD SVG 1.1//EN" "http://www.w3.org/Graphics/SVG/1.1/DTD/svg11.dtd"><svg t="1545704999697" class="icon" style="" viewBox="0 0 1039 1024" version="1.1" xmlns="http://www.w3.org/2000/svg" p-id="23946" xmlns:xlink="http://www.w3.org/1999/xlink" width="20.29296875" height="20"><defs><style type="text/css"></style></defs><path d="M156.16 1024C69.12 1024 0 954.88 0 867.84V156.16C0 69.12 69.12 0 156.16 0h430.08c33.28 0 58.88 28.16 58.88 58.88s-28.16 58.88-58.88 58.88H156.16c-20.48 0-35.84 15.36-35.84 35.84v716.8c0 20.48 15.36 35.84 35.84 35.84h711.68c20.48 0 35.84-15.36 35.84-35.84V468.48c0-33.28 28.16-58.88 58.88-58.88 15.36 0 33.28 7.68 43.52 17.92 10.24 10.24 15.36 25.6 15.36 40.96v399.36c0 87.04-69.12 156.16-156.16 156.16H156.16z" p-id="23947" fill="#ffffff"></path><path d="M450.56 670.72c-7.68 0-15.36-5.12-20.48-10.24-5.12-5.12-5.12-15.36-2.56-20.48l28.16-84.48L934.4 74.24c10.24-12.8 25.6-17.92 43.52-17.92 15.36 0 30.72 7.68 43.52 17.92 23.04 23.04 25.6 64 0 87.04L542.72 642.56l-84.48 28.16h-7.68z" p-id="23948" fill="#ffffff"></path></svg>